<svg style="display: none;" xmlns="http://www.w3.org/2000/svg">
    
    <symbol viewBox="0 0 20 20" id="icon1">
        <g clip-path="url(#clip0_4_2019)">
        <path d="M0.312924 16.3234H4.68783V16.4385C4.68783 16.6304 4.84133 16.7647 5.03322 16.7839H14.9343C15.1262 16.7839 15.2605 16.6304 15.2797 16.4385V16.3234H19.6546C19.7 16.3236 19.745 16.3148 19.787 16.2975C19.829 16.2802 19.8671 16.2548 19.8992 16.2226C19.9314 16.1905 19.9568 16.1524 19.9741 16.1104C19.9914 16.0684 20.0002 16.0234 20 15.978V14.7691C20 12.8887 18.8295 11.2193 17.0642 10.5861C18.5033 9.74185 19.0022 7.88061 18.1579 6.44149C17.3137 5.00237 15.4524 4.50348 14.0133 5.34775C13.8022 5.46287 13.6103 5.61637 13.4376 5.76991C12.862 3.87028 10.8664 2.79574 8.96681 3.3714C8.39984 3.54163 7.88394 3.84985 7.46535 4.26845C7.04676 4.68704 6.73854 5.20293 6.5683 5.76991C5.35945 4.59944 3.44063 4.63779 2.27017 5.82749C0.888581 7.24738 1.23397 9.58835 2.94171 10.5669C1.17639 11.2002 0.00592257 12.8887 0.00592257 14.75V15.9588C-0.0324625 16.1699 0.121038 16.3234 0.312924 16.3234ZM14.5889 16.0932H5.34022V14.6348C5.34022 12.2747 7.23984 10.3559 9.60001 10.375H10.2908C12.6509 10.375 14.5506 12.2939 14.5506 14.6348C14.5889 14.654 14.5889 16.1123 14.5889 16.0932ZM5.93507 10.5861C6.51073 10.2599 6.97123 9.74185 7.23988 9.10862C7.5085 9.43481 7.83473 9.70347 8.19931 9.89531C7.56612 10.0872 6.99046 10.3942 6.47238 10.8164C6.29965 10.7205 6.12695 10.6437 5.93507 10.5861ZM11.7299 9.89535C12.0944 9.68427 12.4206 9.41566 12.6893 9.10866C12.9388 9.72266 13.3993 10.2408 13.9941 10.5862C13.8022 10.6629 13.6295 10.7397 13.4568 10.8164C12.9388 10.3942 12.3631 10.0872 11.7299 9.89535ZM18.1771 12.102C18.8871 12.812 19.2901 13.7714 19.2901 14.7692V15.6518H15.2605V14.6349C15.2605 13.3493 14.7232 12.1021 13.9749 11.3153C15.3948 10.6821 17.0642 10.9891 18.1771 12.102ZM13.5528 6.63337C14.2819 5.55883 15.7594 5.29021 16.8339 6.01937C17.9085 6.74853 18.1771 8.226 17.4479 9.30054C16.7188 10.3751 15.2413 10.6437 14.1668 9.91455C13.6487 9.56916 13.3033 9.01269 13.1882 8.39869C13.3993 7.99573 13.572 7.26657 13.5528 6.63337ZM10.214 3.90867C11.8258 4.04298 12.9771 5.44372 12.8812 6.97876C12.7469 9.14704 10.4443 10.3559 8.58304 9.35808C7.64281 8.85919 7.048 7.86142 7.048 6.80607C7.04796 5.13671 8.48708 3.75513 10.214 3.90867ZM2.05905 7.95734C2.05905 6.65253 3.13359 5.59722 4.43837 5.59722C5.20591 5.59722 5.93503 5.98099 6.37638 6.63337C6.33799 7.20903 6.4723 7.84223 6.74096 8.39869C6.49149 9.68431 5.26345 10.5286 3.97787 10.2983C2.86494 10.068 2.05905 9.08946 2.05905 7.95734ZM0.639118 14.7691C0.639118 12.6776 2.32766 10.9891 4.41918 10.9891C4.93725 10.9891 5.47453 11.1042 5.95422 11.3153C5.20587 12.102 4.6686 13.3492 4.6686 14.6348V15.6518H0.639118V14.7691Z" fill="#EF2FA2"/>
        </g>
        <defs>
        <clipPath id="clip0_4_2019">
        <rect width="20" height="20" fill="white"/>
        </clipPath>
        </defs>
    </symbol>

    <symbol viewBox="0 0 20 20" id="icon2">
        <path d="M18.4375 10.2813H1.5625C1.21875 10.2813 0.9375 10.5625 0.9375 10.9063V14.0312C0.9375 14.375 1.21875 14.6562 1.5625 14.6562H18.4375C18.7812 14.6562 19.0625 14.375 19.0625 14.0312V10.9063C19.0625 10.5625 18.7812 10.2813 18.4375 10.2813ZM18.4375 14.0312H1.5625V10.9063H2.1875V11.2188C2.1875 11.3906 2.32812 11.5313 2.5 11.5313C2.67188 11.5313 2.8125 11.3906 2.8125 11.2188V10.9063H3.4375V11.8438C3.4375 12.0156 3.57812 12.1563 3.75 12.1563C3.92188 12.1563 4.0625 12.0156 4.0625 11.8438V10.9063H4.6875V11.2188C4.6875 11.3906 4.82812 11.5313 5 11.5313C5.17188 11.5313 5.3125 11.3906 5.3125 11.2188V10.9063H5.9375V11.8438C5.9375 12.0156 6.07812 12.1563 6.25 12.1563C6.42188 12.1563 6.5625 12.0156 6.5625 11.8438V10.9063H7.1875V11.2188C7.1875 11.3906 7.32812 11.5313 7.5 11.5313C7.67188 11.5313 7.8125 11.3906 7.8125 11.2188V10.9063H8.4375V11.8438C8.4375 12.0156 8.57812 12.1563 8.75 12.1563C8.92188 12.1563 9.0625 12.0156 9.0625 11.8438V10.9063H9.6875V11.2188C9.6875 11.3906 9.82812 11.5313 10 11.5313C10.1719 11.5313 10.3125 11.3906 10.3125 11.2188V10.9063H10.9375V11.8438C10.9375 12.0156 11.0781 12.1563 11.25 12.1563C11.4219 12.1563 11.5625 12.0156 11.5625 11.8438V10.9063H12.1875V11.2188C12.1875 11.3906 12.3281 11.5313 12.5 11.5313C12.6719 11.5313 12.8125 11.3906 12.8125 11.2188V10.9063H13.4375V11.8438C13.4375 12.0156 13.5781 12.1563 13.75 12.1563C13.9219 12.1563 14.0625 12.0156 14.0625 11.8438V10.9063H14.6875V11.2188C14.6875 11.3906 14.8281 11.5313 15 11.5313C15.1719 11.5313 15.3125 11.3906 15.3125 11.2188V10.9063H15.9375V11.8438C15.9375 12.0156 16.0781 12.1563 16.25 12.1563C16.4219 12.1563 16.5625 12.0156 16.5625 11.8438V10.9063H17.1875V11.2188C17.1875 11.3906 17.3281 11.5313 17.5 11.5313C17.6719 11.5313 17.8125 11.3906 17.8125 11.2188V10.9063H18.4375V14.0312ZM3.475 8.33437C3.5375 8.39687 3.61562 8.425 3.69688 8.425C3.77813 8.425 3.85625 8.39375 3.91875 8.33437C3.94772 8.30546 3.9707 8.27112 3.98639 8.23332C4.00207 8.19552 4.01014 8.15499 4.01014 8.11406C4.01014 8.07313 4.00207 8.03261 3.98639 7.9948C3.9707 7.957 3.94772 7.92266 3.91875 7.89375L3.56875 7.54375H16.4344L16.0844 7.89375C16.0408 7.93739 16.0111 7.99301 15.9992 8.05354C15.9872 8.11407 15.9936 8.17678 16.0173 8.23371C16.0411 8.29064 16.0813 8.33921 16.1327 8.37327C16.1842 8.40733 16.2446 8.42534 16.3062 8.425C16.3875 8.425 16.4656 8.39375 16.5281 8.33437L17.4125 7.45C17.4719 7.39062 17.5031 7.3125 17.5031 7.22812C17.5031 7.14375 17.4688 7.06562 17.4125 7.00625L16.5281 6.12187C16.4992 6.09294 16.4648 6.06999 16.427 6.05434C16.3892 6.03868 16.3487 6.03062 16.3078 6.03062C16.2669 6.03062 16.2264 6.03868 16.1886 6.05434C16.1508 6.06999 16.1164 6.09294 16.0875 6.12187C16.0586 6.15081 16.0356 6.18515 16.02 6.22295C16.0043 6.26076 15.9962 6.30127 15.9962 6.34219C15.9962 6.3831 16.0043 6.42362 16.02 6.46142C16.0356 6.49922 16.0586 6.53357 16.0875 6.5625L16.4375 6.9125H3.56562L3.91562 6.5625C3.97406 6.50407 4.00688 6.42482 4.00688 6.34219C4.00688 6.25955 3.97406 6.18031 3.91562 6.12187C3.85719 6.06344 3.77795 6.03062 3.69531 6.03062C3.61268 6.03062 3.53343 6.06344 3.475 6.12187L2.59063 7.00625C2.53125 7.06562 2.5 7.14375 2.5 7.22812C2.5 7.3125 2.53437 7.39062 2.59063 7.45L3.475 8.33437ZM18.75 5.34375C18.5781 5.34375 18.4375 5.48438 18.4375 5.65625V8.78125C18.4375 8.95312 18.5781 9.09375 18.75 9.09375C18.9219 9.09375 19.0625 8.95312 19.0625 8.78125V5.65625C19.0625 5.48438 18.9219 5.34375 18.75 5.34375ZM1.25 9.09375C1.42188 9.09375 1.5625 8.95312 1.5625 8.78125V5.65625C1.5625 5.48438 1.42188 5.34375 1.25 5.34375C1.07812 5.34375 0.9375 5.48438 0.9375 5.65625V8.78125C0.9375 8.95312 1.07812 9.09375 1.25 9.09375Z" fill="#EF2FA2"/>
    </symbol>

    <symbol viewBox="0 0 20 20" id="icon3">
        <g clip-path="url(#clip0_4_2016)">
        <path d="M10 0C4.48598 0 0 4.48598 0 10C0 15.514 4.48598 20 10 20C15.514 20 20 15.514 20 10C20 4.48598 15.514 0 10 0ZM10 18.75C5.17523 18.75 1.25 14.8248 1.25 10C1.25 5.17523 5.17523 1.25 10 1.25C14.8248 1.25 18.75 5.17523 18.75 10C18.75 14.8248 14.8248 18.75 10 18.75ZM10.625 3.57758V10C10.625 10.1097 10.5962 10.2174 10.5414 10.3123C10.4866 10.4073 10.4077 10.4862 10.3128 10.5411L6.67316 12.6452C6.57831 12.7002 6.4706 12.7292 6.36094 12.7292C6.14504 12.7292 5.93508 12.6172 5.81926 12.4169C5.64648 12.118 5.74871 11.7357 6.04754 11.563L9.375 9.63941V3.57758C9.375 3.23238 9.65484 2.95258 10 2.95258C10.3452 2.95258 10.625 3.23238 10.625 3.57758Z" fill="#EF2FA2"/>
        </g>
        <defs>
        <clipPath id="clip0_4_2016">
        <rect width="20" height="20" fill="white"/>
        </clipPath>
        </defs>
    </symbol>

    <symbol viewBox="0 0 20 20" id="icon4">
        <g clip-path="url(#clip0_4_2022)">
          <path d="M18.0155 6.33596H17.6793C17.4142 6.33596 17.1993 6.12104 17.1993 5.85596C17.1993 5.59088 17.4142 5.37596 17.6793 5.37596H18.0155C18.2806 5.37596 18.4955 5.59088 18.4955 5.85596C18.4955 6.12104 18.2806 6.33596 18.0155 6.33596Z" fill="#EF2FA2"/>
          <path d="M18.8155 1.82508H16.44V0.677083C16.44 0.412003 16.2251 0.197083 15.96 0.197083C15.6949 0.197083 15.48 0.412003 15.48 0.677083V1.82508H4.52V0.677083C4.52 0.412003 4.30508 0.197083 4.04 0.197083C3.77492 0.197083 3.56 0.412003 3.56 0.677083V1.82508H1.13272C0.50812 1.82508 0 2.33324 0 2.9578V18.5534C0 19.2424 0.56052 19.8029 1.24952 19.8029H18.7492C19.4389 19.8029 20 19.2418 20 18.552V3.00956C20 2.35644 19.4686 1.82508 18.8155 1.82508ZM19.04 18.5521C19.04 18.7124 18.9095 18.8429 18.7492 18.8429H1.24952C1.08988 18.8429 0.96 18.713 0.96 18.5534V6.33596H16.1331C16.3982 6.33596 16.6131 6.12104 16.6131 5.85596C16.6131 5.59088 16.3982 5.37596 16.1331 5.37596H0.96V2.9578C0.960053 2.91201 0.978267 2.86811 1.01065 2.83573C1.04303 2.80335 1.08693 2.78514 1.13272 2.78508H3.56V3.35708C3.56 3.62216 3.77492 3.83708 4.04 3.83708C4.30508 3.83708 4.52 3.62216 4.52 3.35708V2.78508H15.48V3.35708C15.48 3.62216 15.6949 3.83708 15.96 3.83708C16.2251 3.83708 16.44 3.62216 16.44 3.35708V2.78508H18.8155C18.875 2.78516 18.9321 2.80883 18.9742 2.85091C19.0163 2.893 19.0399 2.95005 19.04 3.00956V18.5521Z" fill="#EF2FA2"/>
          <path d="M8.17055 16.1695L5.71099 14.4767C5.49263 14.3264 5.43743 14.0276 5.58771 13.8092C5.73799 13.5908 6.03687 13.5356 6.25523 13.686L8.38035 15.1486L13.6721 9.68468C13.8565 9.49424 14.1604 9.4894 14.3508 9.67384C14.5412 9.85828 14.5461 10.1622 14.3617 10.3526L8.78747 16.1081C8.67331 16.2259 8.31331 16.2838 8.17055 16.1695Z" fill="#EF2FA2"/>
        </g>
        <defs>
          <clipPath id="clip0_4_2022">
            <rect width="20" height="20" fill="white"/>
          </clipPath>
        </defs>
    </symbol>

    <symbol viewBox="0 0 10 10" id="icon-li">
        <circle cx="5" cy="5" r="5" fill="#EF2FA2"/>
    </symbol>

    <!--Page 7-->

    <symbol viewBox="0 0 2 174" id="page7">
        <path d="M1 0L1.00001 174" stroke="#C0C0C0" stroke-width="0.5"/>
    </symbol>

    <!--Page 9-->

    <symbol viewBox="0 0 18 18" id="page9">
        <path d="M9 15.75C8.05268 14.9419 7.17464 14.0561 6.375 13.1018C5.175 11.6685 3.75 9.534 3.75 7.49999C3.74894 5.37566 5.02819 3.46004 6.9908 2.64704C8.95343 1.83404 11.2126 2.28392 12.714 3.78674C13.7014 4.7697 14.2544 6.10679 14.25 7.49999C14.25 9.534 12.825 11.6685 11.625 13.1018C10.8254 14.0561 9.94733 14.9419 9 15.75ZM9 3.74999C6.92996 3.75248 5.25248 5.42996 5.25 7.49999C5.25 8.3745 5.64525 9.88875 7.52625 12.1395C7.98983 12.693 8.48175 13.2223 9 13.725C9.51825 13.2228 10.0104 12.6944 10.4745 12.1418C12.3547 9.888 12.75 8.37375 12.75 7.49999C12.7475 5.42996 11.0701 3.75248 9 3.74999ZM9 9.75C7.75733 9.75 6.75 8.7426 6.75 7.49999C6.75 6.25735 7.75733 5.24999 9 5.24999C10.2427 5.24999 11.25 6.25735 11.25 7.49999C11.25 8.0967 11.0129 8.66903 10.591 9.09098C10.169 9.51293 9.59678 9.75 9 9.75Z" fill="#EF2FA2"/>
    </symbol>

    <!--Page 15-->

    <symbol viewBox="0 0 24 24" id="page15-1">
        <path d="M19.2373 6.23731C20.7839 7.78395 20.8432 10.2727 19.3718 11.8911L11.9995 20.0001L4.62812 11.8911C3.15679 10.2727 3.21605 7.7839 4.76269 6.23726C6.48961 4.51034 9.33372 4.66814 10.8594 6.5752L12 8.00045L13.1396 6.57504C14.6653 4.66798 17.5104 4.51039 19.2373 6.23731Z" stroke="white" stroke-linecap="round" stroke-linejoin="round"/>
    </symbol>

    <symbol viewBox="0 0 3 3" id="page15-2">
        <circle cx="1.5" cy="1.5" r="1.5" fill="white"/>
    </symbol>

    <!--Page 19-->

    <symbol viewBox="0 0 2 305" id="page19_y1">
        <path d="M1 0L1.00001 305" stroke="#CDCDCD" stroke-width="0.5"/>
    </symbol>

    <!--Page 20-->

    <symbol viewBox="0 0 24 24" id="page20-left">
      <path d="M14 16L10 12L14 8" stroke="white" stroke-width="2" stroke-linecap="round" stroke-linejoin="round"/>
    </symbol>

    <symbol viewBox="0 0 24 24" id="page20-right">
      <path d="M10 8L14 12L10 16" stroke="white" stroke-width="2" stroke-linecap="round" stroke-linejoin="round"/>
    </symbol>

    <!--Page 21-->

    <symbol viewBox="0 0 20 20" id="page21_5">
      <circle cx="10" cy="10" r="9.5" fill="white" stroke="#3D84EE"/>
    </symbol>

    <symbol viewBox="0 0 20 20" id="page21_6">
      <circle cx="10" cy="10" r="10" fill="#CFCFCF"/>
    </symbol>


    <symbol viewBox="0 0 20 20" id="page21_7">
      <circle cx="10" cy="10" r="10" fill="#FF0000"/>
    </symbol>

    <symbol viewBox="0 0 20 20" id="page21_8">
      <circle cx="10" cy="10" r="10" fill="#FF0000"/>
    </symbol>

    <symbol viewBox="0 0 20 20" id="page21_9">
      <circle cx="10" cy="10" r="10" fill="#00456C"/>
    </symbol>

    <!--Page 25-->

    <symbol viewBox="0 0 14 14" id="page25">
        <path d="M6.71468 0.878114C6.80449 0.601721 7.19551 0.601722 7.28532 0.878115L8.72876 5.32057C8.76892 5.44418 8.88411 5.52786 9.01408 5.52786H13.6851C13.9758 5.52786 14.0966 5.89975 13.8615 6.07057L10.0825 8.81616C9.97736 8.89255 9.93336 9.02796 9.97352 9.15157L11.417 13.594C11.5068 13.8704 11.1904 14.1003 10.9553 13.9294L7.17634 11.1838C7.07119 11.1074 6.92881 11.1075 6.82366 11.1838L3.04469 13.9294C2.80957 14.1003 2.49323 13.8704 2.58303 13.594L4.02648 9.15157C4.06664 9.02796 4.02264 8.89255 3.91749 8.81616L0.138516 6.07057C-0.0965979 5.89975 0.0242358 5.52786 0.314853 5.52786H4.98593C5.11589 5.52786 5.23108 5.44418 5.27124 5.32057L6.71468 0.878114Z" fill="#FFF500"/>
    </symbol>

    <!--Page 26-->
    
    <symbol viewBox="0 0 36 6" id="page26">
      <circle cx="3" cy="3" r="3" fill="#08006A"/>
      <circle cx="13" cy="3" r="2.75" stroke="#08006A" stroke-width="0.5"/>
      <circle cx="23" cy="3" r="2.75" stroke="#08006A" stroke-width="0.5"/>
      <circle cx="33" cy="3" r="2.75" stroke="#08006A" stroke-width="0.5"/>
    </symbol>

    <!--Page 32-->

    <symbol viewBox="0 0 72 72" id="page32_1">
        <path d="M51 63C51 54.7157 44.2843 48 36 48C27.7157 48 21 54.7157 21 63M51 63H53.4093C56.763 63 58.44 63 59.7222 62.3467C60.8512 61.7714 61.7714 60.8512 62.3467 59.7222C63 58.44 63 56.763 63 53.4093V18.5907C63 15.237 63 13.5576 62.3467 12.2754C61.7714 11.1464 60.8512 10.2292 59.7222 9.65396C58.4387 9 56.7609 9 53.4006 9H18.6006C15.2403 9 13.5589 9 12.2754 9.65396C11.1464 10.2292 10.2292 11.1464 9.65396 12.2754C9 13.5589 9 15.2403 9 18.6006V53.4006C9 56.7609 9 58.4387 9.65396 59.7222C10.2292 60.8512 11.1464 61.7714 12.2754 62.3467C13.5576 63 15.237 63 18.5907 63H21M51 63H21M36 39C31.0294 39 27 34.9706 27 30C27 25.0294 31.0294 21 36 21C40.9706 21 45 25.0294 45 30C45 34.9706 40.9706 39 36 39Z" stroke="white" stroke-width="4" stroke-linecap="round" stroke-linejoin="round"/>
    </symbol>

    <symbol viewBox="0 0 72 72" id="page32_2">
        <path d="M45 18V63M45 18L63 9V54L45 63M45 18L27 9M45 63L27 54M27 54L9 63V18L27 9M27 54V9" stroke="white" stroke-width="4" stroke-linecap="round" stroke-linejoin="round"/>
    </symbol>

    <symbol viewBox="0 0 72 72" id="page32_3">
        <path d="M48 24H60C61.6569 24 63 25.3431 63 27V60L53.001 51.6929C52.4624 51.2454 51.7823 51 51.082 51H27C25.3431 51 24 49.6569 24 48V39M48 24V15C48 13.3431 46.6569 12 45 12H12C10.3431 12 9 13.3431 9 15V48.0009L18.999 39.6924C19.5376 39.245 20.2177 39 20.918 39H24M48 24V36C48 37.6569 46.6569 39 45 39H24" stroke="white" stroke-width="4" stroke-linecap="round" stroke-linejoin="round"/>
    </symbol>

    <!--Page 33-->

    <symbol viewBox="0 0 24 24" id="page33-heart">
        <path d="M12 7.69428C10 2.99984 3 3.49984 3 9.49987C3 15.4999 12 20.5001 12 20.5001C12 20.5001 21 15.4999 21 9.49987C21 3.49984 14 2.99984 12 7.69428Z" stroke="white" stroke-width="2" stroke-linecap="round" stroke-linejoin="round"/>
    </symbol>

    <symbol viewBox="0 0 20 20" id="page33">
        <path d="M9.16667 7.5L11.6667 10L9.16667 12.5M17.5 10C17.5 5.85786 14.1421 2.5 10 2.5C5.85786 2.5 2.5 5.85786 2.5 10C2.5 14.1421 5.85786 17.5 10 17.5C14.1421 17.5 17.5 14.1421 17.5 10Z" stroke="#232323" stroke-linecap="round" stroke-linejoin="round"/>
    </symbol>

    <symbol viewBox="0 0 12 11" id="page33-star">
      <path d="M5.52447 0.463532C5.67415 0.00287688 6.32585 0.00287759 6.47553 0.463533L7.45934 3.4914C7.52628 3.69741 7.71826 3.83689 7.93487 3.83689H11.1186C11.6029 3.83689 11.8043 4.4567 11.4124 4.7414L8.83679 6.61272C8.66155 6.74004 8.58822 6.96573 8.65516 7.17174L9.63897 10.1996C9.78864 10.6603 9.2614 11.0433 8.86955 10.7586L6.29389 8.8873C6.11865 8.75997 5.88135 8.75997 5.70611 8.8873L3.13045 10.7586C2.73859 11.0433 2.21136 10.6603 2.36103 10.1996L3.34484 7.17174C3.41178 6.96573 3.33845 6.74004 3.16321 6.61272L0.587553 4.7414C0.195696 4.4567 0.397084 3.83689 0.881446 3.83689H4.06513C4.28174 3.83689 4.47372 3.69741 4.54066 3.4914L5.52447 0.463532Z" fill="white"/>
    </symbol>

    <symbol viewBox="0 0 32 32" id="page33-link">
      <path d="M17.3333 20L21.3333 16M21.3333 16L17.3333 12M21.3333 16H10.6667M28 16C28 9.37258 22.6274 4 16 4C9.37258 4 4 9.37258 4 16C4 22.6274 9.37258 28 16 28C22.6274 28 28 22.6274 28 16Z" stroke="white" stroke-linecap="round" stroke-linejoin="round"/>
    </symbol>

    <symbol viewBox="0 0 16 16" id="page33-map">
      <path d="M10 4V14M10 4L14 2V12L10 14M10 4L6 2M10 14L6 12M6 12L2 14V4L6 2M6 12V2" stroke="#FE634E" stroke-linecap="round" stroke-linejoin="round"/>
    </symbol>

    <symbol viewBox="0 0 16 16" id="page33-home">
      <path d="M13.3334 11.3334V7.63482C13.3334 7.27859 13.333 7.10038 13.2897 6.93462C13.2513 6.78772 13.1883 6.64871 13.1031 6.52309C13.0068 6.38134 12.8731 6.26379 12.605 6.02922L9.40497 3.22922C8.90723 2.79369 8.65836 2.57604 8.37828 2.49321C8.13148 2.42023 7.86843 2.42023 7.62163 2.49321C7.34176 2.57598 7.09325 2.79343 6.59626 3.22829L3.3952 6.02922C3.12711 6.2638 2.99338 6.38134 2.89716 6.52309C2.81188 6.64871 2.74839 6.78772 2.71 6.93462C2.66669 7.10038 2.66669 7.27859 2.66669 7.63482V11.3334C2.66669 11.9547 2.66669 12.2652 2.76818 12.5102C2.90351 12.8369 3.1629 13.0968 3.4896 13.2321C3.73463 13.3336 4.04526 13.3336 4.66652 13.3336C5.28777 13.3336 5.59874 13.3336 5.84377 13.2321C6.17047 13.0968 6.4298 12.837 6.56512 12.5103C6.66662 12.2653 6.66669 11.9546 6.66669 11.3334V10.6667C6.66669 9.93034 7.26364 9.33338 8.00002 9.33338C8.7364 9.33338 9.33335 9.93034 9.33335 10.6667V11.3334C9.33335 11.9546 9.33335 12.2653 9.43485 12.5103C9.57017 12.837 9.82957 13.0968 10.1563 13.2321C10.4013 13.3336 10.7119 13.3336 11.3332 13.3336C11.9544 13.3336 12.2654 13.3336 12.5104 13.2321C12.8371 13.0968 13.0965 12.8369 13.2318 12.5102C13.3333 12.2652 13.3334 11.9547 13.3334 11.3334Z" stroke="#FE634E" stroke-linecap="round" stroke-linejoin="round"/>
    </symbol>

    <symbol viewBox="0 0 16 16" id="page33-people">
      <path d="M12.6667 14C12.6667 11.4227 10.5773 9.33333 8.00001 9.33333C5.42268 9.33333 3.33334 11.4227 3.33334 14M8.00001 7.33333C6.52725 7.33333 5.33334 6.13943 5.33334 4.66667C5.33334 3.19391 6.52725 2 8.00001 2C9.47277 2 10.6667 3.19391 10.6667 4.66667C10.6667 6.13943 9.47277 7.33333 8.00001 7.33333Z" stroke="#FE634E" stroke-linecap="round" stroke-linejoin="round"/>
    </symbol>

</svg>