<svg width="36" height="36" viewBox="0 0 36 36" fill="none" xmlns="http://www.w3.org/2000/svg">
<path d="M31.7812 15.1875H35.4375V23.0625H31.7812V15.1875Z" fill="url(#paint0_linear_5_2864)"/>
<path d="M29.5312 14.0625H31.5C31.1251 11.8305 29.1305 10.125 26.7188 10.125C24.307 10.125 22.3124 11.8305 21.9375 14.0625H24.4688C24.903 12.9985 25.3966 12.2304 26.1562 11.8125C26.7871 11.4654 27.531 11.4061 28.125 11.8125C28.6225 12.1528 29.1445 12.9023 29.5312 14.0625Z" fill="url(#paint1_linear_5_2864)"/>
<path d="M23.3438 6.46875H25.3125V8.15625H23.3438V6.46875Z" fill="url(#paint2_linear_5_2864)"/>
<path d="M23.3438 9.28125H25.3125V10.9688H23.3438V9.28125Z" fill="url(#paint3_linear_5_2864)"/>
<path d="M13.2188 15.1875H10.4062C9.94219 15.1875 9.5625 14.8078 9.5625 14.3438V5.625C9.5625 5.16094 9.94219 4.78125 10.4062 4.78125H13.2188C13.6828 4.78125 14.0625 5.16094 14.0625 5.625V14.3438C14.0625 14.8078 13.6828 15.1875 13.2188 15.1875Z" fill="url(#paint4_linear_5_2864)"/>
<path d="M25.875 12.6562H31.7812C31.7812 12.6562 34.3125 18.3164 31.7812 25.5938H25.875V12.6562Z" fill="url(#paint5_linear_5_2864)"/>
<path d="M26.7188 25.5938H16.875V12.6562H26.7188C26.7792 12.7302 27.9661 18.0008 26.7188 25.5938Z" fill="url(#paint6_linear_5_2864)"/>
<path d="M10.125 12.6562H16.875V25.5938H10.125V12.6562Z" fill="url(#paint7_linear_5_2864)"/>
<path d="M10.4062 14.625H30.375V16.0312H10.4062V14.625Z" fill="url(#paint8_linear_5_2864)"/>
<path d="M30.6562 16.5938H29.25C29.0953 16.5938 28.9688 16.4672 28.9688 16.3125V14.3438C28.9688 14.1891 29.0953 14.0625 29.25 14.0625H30.6562C30.8109 14.0625 30.9375 14.1891 30.9375 14.3438V16.3125C30.9375 16.4672 30.8109 16.5938 30.6562 16.5938Z" fill="url(#paint9_linear_5_2864)"/>
<path d="M0.5625 16.0312H3.09375V22.2188H0.5625V16.0312Z" fill="url(#paint10_linear_5_2864)"/>
<path d="M6.46875 12.6562L3.09375 16.0312V22.2188L6.46875 25.5938H9.5625V12.6562H6.46875Z" fill="url(#paint11_linear_5_2864)"/>
<path d="M6.46875 12.6562H9.5625V25.5938H6.46875V12.6562Z" fill="url(#paint12_linear_5_2864)"/>
<path d="M10.125 26.7188H9C8.53594 26.7188 8.15625 26.3391 8.15625 25.875V12.375C8.15625 11.9109 8.53594 11.5312 9 11.5312H10.125C10.5891 11.5312 10.9688 11.9109 10.9688 12.375V25.875C10.9688 26.3391 10.5891 26.7188 10.125 26.7188Z" fill="url(#paint13_linear_5_2864)"/>
<path d="M23.0625 4.78125H12.9375V12.6562H23.9062V5.625C23.9062 5.08838 23.5266 4.78125 23.0625 4.78125Z" fill="url(#paint14_linear_5_2864)"/>
<path d="M35.4375 14.9062H32.7437C32.4256 13.4331 32.0479 12.5637 32.038 12.5415C32.0159 12.4919 31.9799 12.4497 31.9343 12.4202C31.8888 12.3906 31.8356 12.3749 31.7812 12.375H31.1749C30.2639 10.8104 28.5739 9.84375 26.7188 9.84375C26.3416 9.84375 25.9644 9.88509 25.5938 9.96694V9.28125C25.5938 9.20666 25.5641 9.13512 25.5114 9.08238C25.4586 9.02963 25.3871 9 25.3125 9H24.1875V8.4375H25.3125C25.3871 8.4375 25.4586 8.40787 25.5114 8.35512C25.5641 8.30238 25.5938 8.23084 25.5938 8.15625V6.46875C25.5938 6.39416 25.5641 6.32262 25.5114 6.26988C25.4586 6.21713 25.3871 6.1875 25.3125 6.1875H24.1875V5.625C24.1875 4.97334 23.7142 4.5 23.0625 4.5H10.4062C9.78581 4.5 9.28125 5.00456 9.28125 5.625V11.25H9C8.37956 11.25 7.875 11.7546 7.875 12.375H6.46875C6.43181 12.3749 6.39522 12.3822 6.3611 12.3963C6.32697 12.4105 6.29598 12.4312 6.26991 12.4574L2.97731 15.75H0.5625C0.487908 15.75 0.416371 15.7796 0.363626 15.8324C0.310882 15.8851 0.28125 15.9567 0.28125 16.0312V22.2188C0.28125 22.2933 0.310882 22.3649 0.363626 22.4176C0.416371 22.4704 0.487908 22.5 0.5625 22.5H2.97731L6.26991 25.7926C6.29598 25.8188 6.32697 25.8395 6.3611 25.8537C6.39522 25.8678 6.43181 25.8751 6.46875 25.875H7.875C7.875 26.4954 8.37956 27 9 27H10.125C10.7454 27 11.25 26.4954 11.25 25.875H31.7812C31.9011 25.875 32.0077 25.7991 32.0467 25.686C32.313 24.919 32.5334 24.1369 32.7068 23.3438H35.4375C35.5121 23.3438 35.5836 23.3141 35.6364 23.2614C35.6891 23.2086 35.7188 23.1371 35.7188 23.0625V15.1875C35.7188 15.1129 35.6891 15.0414 35.6364 14.9886C35.5836 14.9359 35.5121 14.9062 35.4375 14.9062ZM0.84375 16.3125H2.8125V21.9375H0.84375V16.3125ZM3.375 16.1477L6.1875 13.3352V24.9148L3.375 22.1023V16.1477ZM6.75 25.3125V12.9375H7.875V25.3125H6.75ZM26.7188 10.4062C28.2575 10.4062 29.6677 11.1507 30.5097 12.375H29.0329C28.7969 12.0299 28.546 11.7596 28.2839 11.5805C27.6452 11.1431 26.7995 11.1381 26.0207 11.5661C25.6722 11.7579 25.3671 12.0262 25.0883 12.375H24.1875V11.25H25.3125C25.3871 11.25 25.4586 11.2204 25.5114 11.1676C25.5641 11.1149 25.5938 11.0433 25.5938 10.9688V10.5472C25.9616 10.4547 26.3394 10.4074 26.7188 10.4062ZM28.6875 15.75H11.25V14.9062H28.6875V15.75ZM26.478 25.3125H17.1562V16.3125H26.9269C27.0622 18.3783 27.0773 21.5305 26.478 25.3125ZM11.25 12.9375H16.5938V14.3438H11.25V12.9375ZM17.1562 14.3438V12.9375H26.5028C26.5568 13.1816 26.6473 13.6651 26.7365 14.3438H17.1562ZM25.8505 12.375C25.9848 12.2529 26.1328 12.1468 26.2915 12.0589C26.8802 11.7357 27.5062 11.7301 27.9661 12.0445C28.0856 12.1264 28.2068 12.2389 28.3264 12.375H25.8505ZM25.0312 9.5625V10.6875H24.1875V9.5625H25.0312ZM25.0312 6.75V7.875H24.1875V6.75H25.0312ZM23.0625 5.0625C23.3345 5.0625 23.625 5.21016 23.625 5.625V12.375H13.2188V5.0625H23.0625ZM10.6875 25.875C10.6875 26.1852 10.4352 26.4375 10.125 26.4375H9C8.68978 26.4375 8.4375 26.1852 8.4375 25.875V12.375C8.4375 12.0648 8.68978 11.8125 9 11.8125H10.125C10.4352 11.8125 10.6875 12.0648 10.6875 12.375V25.875ZM10.125 11.25H9.84375V5.625C9.84375 5.31478 10.096 5.0625 10.4062 5.0625H12.6562V12.375H11.25C11.25 11.7546 10.7454 11.25 10.125 11.25ZM11.25 16.3125H16.5938V25.3125H11.25V16.3125ZM31.5802 25.3125H27.047C27.6367 21.5418 27.6244 18.3923 27.4905 16.3125H28.6875C28.6875 16.6227 28.9398 16.875 29.25 16.875H30.6562C30.9665 16.875 31.2188 16.6227 31.2188 16.3125V14.3438C31.2188 14.0335 30.9665 13.7812 30.6562 13.7812H29.25C28.9398 13.7812 28.6875 14.0335 28.6875 14.3438H27.3038C27.252 13.9486 27.1654 13.3529 27.0776 12.9375H31.592C31.968 13.9087 33.7058 19.0027 31.5802 25.3125ZM30.6554 16.3125H29.25V14.3438H30.6562L30.6554 16.3125ZM35.1562 22.7812H32.8224C33.3813 19.8397 33.1909 17.2887 32.8562 15.4688H35.1562V22.7812Z" fill="#3A322B"/>
<defs>
<linearGradient id="paint0_linear_5_2864" x1="31.7812" y1="19.125" x2="35.4375" y2="19.125" gradientUnits="userSpaceOnUse">
<stop stop-color="#F1F2F2"/>
<stop offset="1" stop-color="#E6E7E8"/>
</linearGradient>
<linearGradient id="paint1_linear_5_2864" x1="26.7188" y1="9.82209" x2="26.7188" y2="12.22" gradientUnits="userSpaceOnUse">
<stop stop-color="#6C6F73"/>
<stop offset="1" stop-color="#56585B"/>
</linearGradient>
<linearGradient id="paint2_linear_5_2864" x1="23.3438" y1="7.3125" x2="25.3125" y2="7.3125" gradientUnits="userSpaceOnUse">
<stop stop-color="#D6D8D5"/>
<stop offset="0.997" stop-color="#91998F"/>
</linearGradient>
<linearGradient id="paint3_linear_5_2864" x1="23.3438" y1="10.125" x2="25.3125" y2="10.125" gradientUnits="userSpaceOnUse">
<stop stop-color="#D6D8D5"/>
<stop offset="0.997" stop-color="#91998F"/>
</linearGradient>
<linearGradient id="paint4_linear_5_2864" x1="11.8125" y1="12.5859" x2="11.8125" y2="2.40778" gradientUnits="userSpaceOnUse">
<stop stop-color="#F1F2F2"/>
<stop offset="1" stop-color="#E6E7E8"/>
</linearGradient>
<linearGradient id="paint5_linear_5_2864" x1="25.875" y1="19.125" x2="32.9062" y2="19.125" gradientUnits="userSpaceOnUse">
<stop stop-color="#F1F2F2"/>
<stop offset="1" stop-color="#E6E7E8"/>
</linearGradient>
<linearGradient id="paint6_linear_5_2864" x1="22.0809" y1="14.8359" x2="22.0809" y2="28.1402" gradientUnits="userSpaceOnUse">
<stop stop-color="#AEBC67"/>
<stop offset="1" stop-color="#97A83C"/>
</linearGradient>
<linearGradient id="paint7_linear_5_2864" x1="13.5" y1="23.9341" x2="13.5" y2="12.9535" gradientUnits="userSpaceOnUse">
<stop stop-color="#F1F2F2"/>
<stop offset="1" stop-color="#E6E7E8"/>
</linearGradient>
<linearGradient id="paint8_linear_5_2864" x1="10.4062" y1="15.3281" x2="30.375" y2="15.3281" gradientUnits="userSpaceOnUse">
<stop stop-color="#6C6F73"/>
<stop offset="1" stop-color="#56585B"/>
</linearGradient>
<linearGradient id="paint9_linear_5_2864" x1="27.7734" y1="15.3281" x2="31.5233" y2="15.3281" gradientUnits="userSpaceOnUse">
<stop offset="0.059" stop-color="#FF9A5B"/>
<stop offset="1" stop-color="#F47E3E"/>
</linearGradient>
<linearGradient id="paint10_linear_5_2864" x1="-0.972" y1="19.125" x2="7.9605" y2="19.125" gradientUnits="userSpaceOnUse">
<stop offset="0.269" stop-color="#9F9F9F"/>
<stop offset="0.996" stop-color="#666666"/>
</linearGradient>
<linearGradient id="paint11_linear_5_2864" x1="6.32812" y1="15.3799" x2="6.32812" y2="23.4683" gradientUnits="userSpaceOnUse">
<stop stop-color="#AEBC67"/>
<stop offset="1" stop-color="#97A83C"/>
</linearGradient>
<linearGradient id="paint12_linear_5_2864" x1="6.46875" y1="19.125" x2="9.5625" y2="19.125" gradientUnits="userSpaceOnUse">
<stop stop-color="#F1F2F2"/>
<stop offset="1" stop-color="#E6E7E8"/>
</linearGradient>
<linearGradient id="paint13_linear_5_2864" x1="8.71875" y1="19.125" x2="15.406" y2="19.125" gradientUnits="userSpaceOnUse">
<stop offset="0.269" stop-color="#9F9F9F"/>
<stop offset="0.996" stop-color="#666666"/>
</linearGradient>
<linearGradient id="paint14_linear_5_2864" x1="12.9375" y1="8.71875" x2="23.9062" y2="8.71875" gradientUnits="userSpaceOnUse">
<stop stop-color="#D69B61"/>
<stop offset="1" stop-color="#C17E51"/>
</linearGradient>
</defs>
</svg>
