<svg width="50" height="50" viewBox="0 0 50 50" fill="none" xmlns="http://www.w3.org/2000/svg">
<g clip-path="url(#clip0_5_3536)">
<path d="M46.7304 16.6892C48.358 13.4581 50.0004 9.50928 50.0004 7.52119C50.0016 3.3751 46.6465 0.0105469 42.5004 0C38.3543 0.0104492 34.9992 3.3751 35.0004 7.52119C35.0004 9.50928 36.6429 13.4584 38.2704 16.6892C37.5279 16.9663 36.8579 17.4082 36.3109 17.9817C35.7639 18.5551 35.3541 19.2452 35.1123 20H35.0004C34.7794 20 34.5674 20.0878 34.4112 20.2441C34.2549 20.4003 34.1671 20.6123 34.1671 20.8333C34.1671 21.0543 34.2549 21.2663 34.4112 21.4225C34.5674 21.5788 34.7794 21.6666 35.0004 21.6666H35.1087C35.6889 24.059 38.7227 25.8333 42.5004 25.8333C46.7061 25.8333 50.0004 23.6368 50.0004 20.8333C50.0004 19.1411 48.7692 17.6087 46.7304 16.6892ZM36.6671 7.52119C36.6649 4.29521 39.2745 1.67627 42.5004 1.6667C45.7264 1.67627 48.3358 4.29521 48.3337 7.52119C48.3337 9.82627 45.2201 16.4457 43.2002 19.6135C43.1222 19.7272 43.0176 19.8202 42.8956 19.8844C42.7735 19.9487 42.6377 19.9822 42.4998 19.9822C42.3619 19.9822 42.2261 19.9485 42.1041 19.8842C41.9821 19.8199 41.8776 19.7268 41.7996 19.6131C39.7808 16.4457 36.6671 9.82627 36.6671 7.52119ZM42.5005 24.1667C39.3389 24.1667 36.6672 22.6404 36.6672 20.8334C36.6672 19.811 37.5806 18.8069 39.0426 18.1699C39.537 19.0872 40.0057 19.8987 40.3944 20.5087C40.6194 20.8635 40.9304 21.1557 41.2985 21.3582C41.6666 21.5606 42.0799 21.6668 42.5 21.6669C42.9202 21.6669 43.3335 21.5608 43.7016 21.3584C44.0698 21.156 44.3808 20.8638 44.6059 20.5091C44.9948 19.899 45.4637 19.0872 45.9582 18.1698C47.4204 18.8068 48.3339 19.8109 48.3339 20.8334C48.3338 22.6404 45.6621 24.1667 42.5005 24.1667Z" fill="white"/>
<path d="M46.6671 7.49995C46.6671 5.19878 44.8016 3.33325 42.5004 3.33325C40.1992 3.33325 38.3338 5.19878 38.3338 7.49995C38.3338 9.80112 40.1993 11.6667 42.5005 11.6667C44.8005 11.6639 46.6644 9.80005 46.6671 7.49995ZM40.0005 7.49995C40.0005 6.11929 41.1197 4.99995 42.5005 4.99995C43.8812 4.99995 45.0005 6.11919 45.0005 7.49995C45.0005 8.88071 43.8811 9.99995 42.5005 9.99995C41.1203 9.99849 40.0019 8.88003 40.0005 7.49995ZM17.5005 24.1667C17.5005 20.4847 14.5157 17.5 10.8338 17.5C7.15185 17.5 4.16708 20.4847 4.16708 24.1667C4.16708 27.8486 7.15185 30.8334 10.8338 30.8334C14.514 30.8291 17.4962 27.8468 17.5005 24.1667ZM5.83378 24.1667C5.83378 21.4052 8.07236 19.1667 10.8338 19.1667C13.5952 19.1667 15.8338 21.4052 15.8338 24.1667C15.8338 26.9281 13.5952 29.1667 10.8338 29.1667C8.07363 29.1636 5.83681 26.9268 5.83378 24.1667Z" fill="white"/>
<path d="M21.6667 44.1666H21.5754C21.1272 42.3812 18.9219 40.9169 15.5428 40.183C18.2916 35.1264 21.6667 27.6426 21.6667 24.1984C21.6785 20.3202 19.6162 16.7315 16.2595 14.789C12.9029 12.8466 8.76385 12.8466 5.40721 14.789C2.05058 16.7315 -0.0117201 20.3202 9.62834e-05 24.1984C9.62834e-05 27.6426 3.37519 35.1264 6.12401 40.183C2.32382 41.0084 9.62834e-05 42.7562 9.62834e-05 44.847C9.62834e-05 47.7848 4.65741 49.9999 10.8334 49.9999C16.2953 49.9999 20.563 48.266 21.4783 45.8332H21.6667C22.1269 45.8332 22.5 45.4602 22.5 44.9999C22.5 44.5397 22.1269 44.1666 21.6667 44.1666ZM1.66669 24.1984C1.66367 19.1294 5.76434 15.0145 10.8334 15C15.9023 15.0144 20.0031 19.1294 20.0001 24.1984C20.0001 27.7266 15.2898 37.7697 12.2356 42.5602C12.0862 42.7969 11.8792 42.9919 11.634 43.1271C11.3888 43.2623 11.1134 43.3331 10.8335 43.3331C10.5535 43.3331 10.2781 43.2623 10.0329 43.1271C9.78775 42.9919 9.58078 42.7969 9.43133 42.5602C6.37694 37.7697 1.66669 27.7266 1.66669 24.1984ZM10.8334 48.3333C5.5868 48.3333 1.66669 46.4929 1.66669 44.847C1.66669 43.7675 3.49999 42.3726 6.98065 41.7178C7.35506 42.3681 7.70955 42.959 8.02654 43.4562C8.32648 43.9291 8.74104 44.3186 9.23174 44.5884C9.72244 44.8583 10.2734 44.9998 10.8334 44.9998C11.3934 44.9998 11.9443 44.8583 12.435 44.5884C12.9257 44.3186 13.3403 43.9291 13.6402 43.4562C13.9572 42.959 14.3117 42.3681 14.6861 41.7178C18.1668 42.3726 20.0001 43.7675 20.0001 44.847C20.0001 46.4929 16.0799 48.3333 10.8334 48.3333ZM29.6012 28.3333C29.6012 28.1123 29.5134 27.9004 29.3571 27.7441C29.2009 27.5878 28.9889 27.5 28.7679 27.5H27.9166C27.7118 27.5001 27.5075 27.4789 27.3071 27.4366C27.2 27.4136 27.0895 27.412 26.9818 27.4319C26.8741 27.4517 26.7714 27.4926 26.6795 27.5522C26.5877 27.6118 26.5085 27.689 26.4465 27.7793C26.3845 27.8695 26.341 27.9711 26.3183 28.0783C26.2725 28.2945 26.3145 28.52 26.4348 28.7053C26.5552 28.8906 26.7443 29.0206 26.9604 29.0666C27.2748 29.1333 27.5953 29.1669 27.9166 29.1667H28.7679C28.9889 29.1667 29.2009 29.0789 29.3571 28.9226C29.5134 28.7663 29.6012 28.5543 29.6012 28.3333ZM44.2634 29.0315C44.3337 28.8234 44.3191 28.5959 44.2226 28.3986C44.1262 28.2012 43.9557 28.05 43.7482 27.9777C43.1775 27.7848 42.5889 27.6493 41.9912 27.5732C41.882 27.5581 41.7709 27.5648 41.6643 27.5929C41.5578 27.6211 41.4578 27.6701 41.3703 27.7371C41.2828 27.8041 41.2094 27.8878 41.1545 27.9834C41.0995 28.079 41.0641 28.1845 41.0502 28.2938C41.0363 28.4032 41.0443 28.5142 41.0736 28.6205C41.1029 28.7268 41.153 28.8261 41.221 28.9129C41.289 28.9997 41.3735 29.0721 41.4697 29.126C41.5658 29.1799 41.6718 29.2141 41.7813 29.2268C42.2687 29.2889 42.7488 29.3993 43.2144 29.5564C43.4231 29.6249 43.6504 29.6081 43.8469 29.5098C44.0434 29.4115 44.193 29.2396 44.2634 29.0315ZM47.54 32.4143C47.6854 32.3949 47.823 32.3374 47.939 32.2478C48.055 32.1581 48.1453 32.0395 48.2008 31.9038C48.2562 31.768 48.2749 31.6201 48.2549 31.4749C48.2348 31.3296 48.1768 31.1922 48.0867 31.0766C47.7193 30.601 47.3063 30.1623 46.8538 29.7668C46.6872 29.6232 46.4704 29.5512 46.2509 29.5667C46.0315 29.5822 45.827 29.6839 45.6822 29.8496C45.5374 30.0152 45.464 30.2314 45.4779 30.451C45.4919 30.6706 45.5922 30.8758 45.7568 31.0217C46.1282 31.3458 46.467 31.7055 46.7684 32.0955C46.8576 32.2119 46.9759 32.3026 47.1114 32.3586C47.2469 32.4145 47.3947 32.4338 47.54 32.4143ZM34.5223 28.3333C34.5223 28.2239 34.5007 28.1156 34.4589 28.0145C34.417 27.9134 34.3556 27.8215 34.2782 27.7441C34.2008 27.6667 34.109 27.6054 34.0079 27.5635C33.9068 27.5216 33.7984 27.5 33.689 27.5H32.0484C31.5881 27.5 31.2151 27.8731 31.2151 28.3333C31.2151 28.7936 31.5881 29.1666 32.0484 29.1666H33.689C33.91 29.1666 34.1219 29.0788 34.2782 28.9225C34.4345 28.7663 34.5223 28.5543 34.5223 28.3333ZM49.6842 34.285C49.6556 34.1794 49.6065 34.0805 49.5397 33.9939C49.4729 33.9073 49.3896 33.8347 49.2948 33.7802C49.1032 33.6703 48.8757 33.6409 48.6625 33.6987C48.4493 33.7564 48.2677 33.8965 48.1577 34.0881C48.0478 34.2797 48.0184 34.5071 48.0762 34.7203C48.2041 35.1952 48.2848 35.6815 48.3171 36.1722C48.3243 36.2814 48.353 36.3882 48.4015 36.4864C48.4499 36.5846 48.5173 36.6722 48.5997 36.7443C48.682 36.8165 48.7778 36.8717 48.8815 36.9068C48.9852 36.9419 49.0948 36.9562 49.2041 36.9489C49.4246 36.9342 49.6302 36.8326 49.7758 36.6663C49.9214 36.5001 49.995 36.2828 49.9805 36.0623C49.9407 35.4615 49.8415 34.8662 49.6842 34.285ZM48.9921 38.5591C48.7832 38.4874 48.5543 38.5016 48.3558 38.5986C48.1574 38.6955 48.0056 38.8674 47.9338 39.0763C47.7736 39.5421 47.5681 39.991 47.3202 40.4166C47.2094 40.6076 47.1789 40.8348 47.2354 41.0482C47.2919 41.2617 47.4309 41.444 47.6217 41.5551C47.8125 41.6662 48.0396 41.6971 48.2531 41.641C48.4666 41.5849 48.6492 41.4463 48.7606 41.2557C49.0635 40.7356 49.3143 40.1868 49.5094 39.6175C49.5811 39.4085 49.5669 39.1797 49.4699 38.9812C49.3729 38.7827 49.201 38.6309 48.9921 38.5591ZM26.587 44.1666H24.9471C24.7261 44.1666 24.5142 44.2544 24.3579 44.4107C24.2016 44.567 24.1138 44.7789 24.1138 44.9999C24.1138 45.2209 24.2016 45.4329 24.3579 45.5891C24.5142 45.7454 24.7261 45.8332 24.9471 45.8332H26.587C26.808 45.8332 27.0199 45.7454 27.1762 45.5891C27.3325 45.4329 27.4203 45.2209 27.4203 44.9999C27.4203 44.7789 27.3325 44.567 27.1762 44.4107C27.0199 44.2544 26.808 44.1666 26.587 44.1666ZM41.2972 44.1524C41.1427 44.1617 40.988 44.1665 40.8333 44.1666H39.7086C39.4876 44.1666 39.2757 44.2544 39.1194 44.4107C38.9631 44.567 38.8753 44.7789 38.8753 44.9999C38.8753 45.2209 38.9631 45.4329 39.1194 45.5891C39.2757 45.7454 39.4876 45.8332 39.7086 45.8332H40.8333C41.023 45.8332 41.2117 45.8274 41.3997 45.8157C41.5459 45.807 41.6872 45.7599 41.8094 45.6791C41.9316 45.5984 42.0303 45.4869 42.0957 45.3559C42.1611 45.2248 42.1908 45.0789 42.1818 44.9327C42.1728 44.7865 42.1255 44.6453 42.0445 44.5233C41.9635 44.4012 41.8518 44.3027 41.7206 44.2376C41.5894 44.1725 41.4434 44.1431 41.2972 44.1524ZM39.4425 28.3333C39.4425 28.1123 39.3547 27.9004 39.1984 27.7441C39.0422 27.5878 38.8302 27.5 38.6092 27.5H36.9686C36.7476 27.5 36.5356 27.5878 36.3793 27.7441C36.2231 27.9004 36.1353 28.1123 36.1353 28.3333C36.1353 28.5543 36.2231 28.7663 36.3793 28.9226C36.5356 29.0788 36.7476 29.1666 36.9686 29.1666H38.6092C38.8302 29.1666 39.0422 29.0788 39.1984 28.9226C39.3547 28.7663 39.4425 28.5543 39.4425 28.3333ZM45.38 42.62C44.9889 42.9199 44.5695 43.1808 44.1275 43.3988C43.9293 43.4966 43.778 43.6691 43.707 43.8784C43.6359 44.0878 43.651 44.3167 43.7487 44.515C43.8465 44.7132 44.019 44.8645 44.2283 44.9355C44.4376 45.0065 44.6666 44.9915 44.8648 44.8938C45.4044 44.6273 45.9166 44.3087 46.394 43.9424C46.5658 43.8067 46.6772 43.6088 46.7043 43.3916C46.7313 43.1744 46.6718 42.9552 46.5386 42.7815C46.4054 42.6078 46.2092 42.4935 45.9924 42.4633C45.7756 42.4331 45.5556 42.4894 45.38 42.62ZM31.5079 44.1666H29.8673C29.6463 44.1666 29.4344 44.2544 29.2781 44.4107C29.1218 44.567 29.034 44.7789 29.034 44.9999C29.034 45.2209 29.1218 45.4329 29.2781 45.5891C29.4344 45.7454 29.6463 45.8332 29.8673 45.8332H31.5079C31.9682 45.8332 32.3412 45.4602 32.3412 44.9999C32.3412 44.5397 31.9682 44.1666 31.5079 44.1666ZM36.4282 44.1666H34.7876C34.6782 44.1666 34.5698 44.1881 34.4686 44.2299C34.3675 44.2718 34.2756 44.3332 34.1982 44.4106C34.1208 44.488 34.0594 44.5799 34.0176 44.681C33.9757 44.7822 33.9542 44.8906 33.9542 45C33.9542 45.1095 33.9757 45.2179 34.0176 45.319C34.0594 45.4201 34.1208 45.512 34.1982 45.5894C34.2756 45.6668 34.3675 45.7282 34.4686 45.7701C34.5698 45.8119 34.6782 45.8335 34.7876 45.8334H36.4282C36.6471 45.8301 36.8558 45.7408 37.0093 45.5849C37.1629 45.4289 37.249 45.2189 37.249 45C37.249 44.7812 37.1629 44.5711 37.0093 44.4152C36.8558 44.2592 36.6471 44.17 36.4282 44.1666ZM25.3736 22.6607C25.5833 22.661 25.7854 22.5819 25.9392 22.4393C26.2528 22.15 26.6258 21.9327 27.0322 21.8025C27.1364 21.7693 27.2331 21.7158 27.3167 21.6452C27.4003 21.5746 27.4692 21.4882 27.5194 21.391C27.5696 21.2938 27.6001 21.1876 27.6093 21.0786C27.6185 20.9696 27.6061 20.8598 27.5729 20.7555C27.5397 20.6513 27.4862 20.5546 27.4156 20.471C27.345 20.3874 27.2586 20.3185 27.1614 20.2683C27.0642 20.2181 26.958 20.1875 26.849 20.1784C26.7399 20.1692 26.6302 20.1816 26.5259 20.2148C25.8873 20.4193 25.3009 20.7608 24.808 21.2154C24.6849 21.3292 24.599 21.4774 24.5615 21.6407C24.524 21.8041 24.5366 21.975 24.5977 22.131C24.6587 22.2871 24.7655 22.4211 24.9039 22.5156C25.0423 22.6101 25.206 22.6607 25.3736 22.6607ZM30.0407 21.6667H31.6805C31.9015 21.6667 32.1135 21.5789 32.2697 21.4226C32.426 21.2663 32.5138 21.0544 32.5138 20.8334C32.5138 20.6124 32.426 20.4004 32.2697 20.2441C32.1135 20.0879 31.9015 20.0001 31.6805 20.0001H30.0407C29.8197 20.0001 29.6077 20.0879 29.4514 20.2441C29.2952 20.4004 29.2074 20.6124 29.2074 20.8334C29.2074 21.0544 29.2952 21.2663 29.4514 21.4226C29.6077 21.5789 29.8197 21.6667 30.0407 21.6667ZM25.3145 26.765C25.3885 26.6419 25.4295 26.5018 25.4334 26.3583C25.4374 26.2147 25.4041 26.0726 25.337 25.9457C25.1372 25.5686 25.0232 25.152 25.0033 24.7257C24.9902 24.5058 24.8915 24.2997 24.7282 24.1517C24.565 24.0036 24.3502 23.9255 24.13 23.9339C23.9093 23.9449 23.7019 24.043 23.5534 24.2067C23.405 24.3704 23.3276 24.5864 23.3382 24.8072C23.3697 25.4775 23.5492 26.1326 23.8639 26.7253C23.9349 26.8593 24.041 26.9714 24.1709 27.0496C24.3008 27.1277 24.4496 27.169 24.6012 27.1689C24.7448 27.1687 24.886 27.1314 25.0109 27.0607C25.1359 26.9899 25.2405 26.888 25.3145 26.765Z" fill="white"/>
</g>
<defs>
<clipPath id="clip0_5_3536">
<rect width="50" height="50" fill="white"/>
</clipPath>
</defs>
</svg>
