<svg width="50" height="50" viewBox="0 0 50 50" fill="none" xmlns="http://www.w3.org/2000/svg">
<g clip-path="url(#clip0_5_3530)">
<path d="M16.6663 4.16663H33.333V5.83329H16.6663V4.16663ZM41.2497 31.25C41.2497 29.6418 39.941 28.3333 38.333 28.3333H36.6663V16.6666H34.9997V28.3333H32.9163C31.3082 28.3333 29.9997 29.6419 29.9997 31.25C29.9997 32.0664 30.3391 32.8033 30.8816 33.3333C30.3391 33.8633 29.9997 34.6002 29.9997 35.4166C29.9997 35.9784 30.1669 36.4989 30.4433 36.9445C29.4464 37.4088 28.7497 38.4133 28.7497 39.5833C28.7497 40.0324 28.8602 40.453 29.0423 40.8333H22.4997C22.4997 38.2853 21.2228 36.0303 19.2754 34.6744C21.1585 33.9566 22.4997 32.1321 22.4997 30C22.4997 29.5398 22.127 29.1666 21.6663 29.1666H14.9997V20.8333H13.333V29.1666C11.9545 29.1666 10.833 30.2881 10.833 31.6666V50H12.4997V31.6666C12.4997 31.2073 12.8732 30.8333 13.333 30.8333H20.7272C20.3569 32.2692 19.0499 33.3333 17.4997 33.3333H14.9997C14.5391 33.3333 14.1663 33.7064 14.1663 34.1666C14.1663 34.6268 14.5391 35 14.9997 35C18.2158 35 20.833 37.6167 20.833 40.8333V41.6666C20.833 42.1268 21.2057 42.5 21.6663 42.5H26.5423C26.3602 42.8803 26.2497 43.3009 26.2497 43.75C26.2497 45.3581 27.5583 46.6666 29.1663 46.6666V50H30.833V46.6666H34.583C36.1911 46.6666 37.4997 45.358 37.4997 43.75C37.4997 43.2961 37.3864 42.8715 37.2006 42.4881C38.7532 42.4248 39.9997 41.1511 39.9997 39.5833C39.9997 39.0215 39.8325 38.501 39.556 38.0554C40.5529 37.5911 41.2497 36.5866 41.2497 35.4166C41.2497 34.6002 40.9103 33.8633 40.3678 33.3333C40.9103 32.8033 41.2497 32.0664 41.2497 31.25ZM34.583 45H29.1663C28.4771 45 27.9163 44.4392 27.9163 43.75C27.9163 43.0607 28.4771 42.5 29.1663 42.5H34.583C35.2723 42.5 35.833 43.0607 35.833 43.75C35.833 44.4392 35.2723 45 34.583 45ZM37.083 40.8333H31.6663C30.9771 40.8333 30.4163 40.2726 30.4163 39.5833C30.4163 38.894 30.9771 38.3333 31.6663 38.3333H37.083C37.7723 38.3333 38.333 38.894 38.333 39.5833C38.333 40.2726 37.7723 40.8333 37.083 40.8333ZM38.333 36.6666H32.9163C32.2271 36.6666 31.6663 36.1059 31.6663 35.4166C31.6663 34.7274 32.2271 34.1666 32.9163 34.1666H38.333C39.0223 34.1666 39.583 34.7274 39.583 35.4166C39.583 36.1059 39.0223 36.6666 38.333 36.6666ZM38.333 32.5H32.9163C32.2271 32.5 31.6663 31.9392 31.6663 31.25C31.6663 30.5607 32.2271 30 32.9163 30H38.333C39.0223 30 39.583 30.5607 39.583 31.25C39.583 31.9392 39.0223 32.5 38.333 32.5ZM12.4973 10.607C12.4889 10.4888 12.4554 10.3736 12.399 10.2694C12.3426 10.1651 12.2645 10.074 12.1701 10.0024L11.3026 9.34475C11.0951 8.29423 10.173 7.49996 9.0703 7.49996C7.82603 7.49996 6.81113 8.51152 6.79488 9.76111C6.12476 9.64367 5.48695 9.38619 4.92311 9.00548L4.63259 8.80933C4.50724 8.72454 4.36114 8.67553 4.21002 8.66756C4.05889 8.6596 3.90845 8.69298 3.77488 8.76413C3.64143 8.83516 3.52982 8.94115 3.45198 9.07075C3.37414 9.20035 3.33302 9.34868 3.33301 9.49986V10.1835C3.33301 11.1878 3.63572 12.1456 4.19728 12.9501L3.57395 13.5808C3.45838 13.6977 3.37998 13.8462 3.3486 14.0075C3.31721 14.1689 3.33426 14.3359 3.39758 14.4876C3.4609 14.6393 3.56768 14.7689 3.70447 14.8601C3.84126 14.9512 4.00196 14.9999 4.16634 15H8.20447C9.81499 15 11.1463 13.7724 11.3254 12.1968L12.2588 11.2525C12.3422 11.168 12.4066 11.0668 12.4477 10.9555C12.4888 10.8442 12.5057 10.7254 12.4973 10.607ZM9.91988 11.2476C9.76544 11.4035 9.67884 11.6141 9.67895 11.8335C9.67895 12.6604 9.01728 13.3333 8.20436 13.3333H6.08447C6.15089 13.1805 6.17004 13.0112 6.13945 12.8474C6.10885 12.6836 6.02991 12.5327 5.9128 12.4141C5.52384 12.0203 5.24551 11.5246 5.10467 10.9904C5.90336 11.3272 6.7615 11.5005 7.62832 11.4999C8.08895 11.4999 8.46165 11.1267 8.46165 10.6665V9.79163C8.46165 9.44694 8.73509 9.16663 9.0704 9.16663C9.40572 9.16663 9.67915 9.44694 9.67915 9.79163C9.67915 9.92024 9.7089 10.0471 9.76608 10.1623C9.82325 10.2775 9.90631 10.3779 10.0087 10.4557L10.4059 10.7564L9.91988 11.2476Z" fill="white"/>
<path d="M27.5 14.1667V12.5H25C24.5394 12.5 24.1667 12.8731 24.1667 13.3333V15.8333H22.5V17.5H24.1667V20.8333H25.8333V17.5H27.5V15.8333H25.8333V14.1667H27.5Z" fill="white"/>
<path d="M30 9.16667H20C18.6215 9.16667 17.5 10.2881 17.5 11.6667V21.6667C17.5 23.0452 18.6215 24.1667 20 24.1667H30C31.3785 24.1667 32.5 23.0452 32.5 21.6667V11.6667C32.5 10.2881 31.3785 9.16667 30 9.16667ZM30.8333 21.6667C30.8333 22.126 30.4598 22.5 30 22.5H20C19.5402 22.5 19.1667 22.126 19.1667 21.6667V11.6667C19.1667 11.2073 19.5402 10.8333 20 10.8333H30C30.4598 10.8333 30.8333 11.2073 30.8333 11.6667V21.6667ZM12.5 4.16667H2.5C1.12146 4.16667 0 5.28813 0 6.66667V16.6667C0 18.0452 1.12146 19.1667 2.5 19.1667H12.5C13.8785 19.1667 15 18.0452 15 16.6667V6.66667C15 5.28813 13.8785 4.16667 12.5 4.16667ZM13.3333 16.6667C13.3333 17.126 12.9598 17.5 12.5 17.5H2.5C2.04021 17.5 1.66667 17.126 1.66667 16.6667V6.66667C1.66667 6.20729 2.04021 5.83333 2.5 5.83333H12.5C12.9598 5.83333 13.3333 6.20729 13.3333 6.66667V16.6667ZM47.5 0H37.5C36.1215 0 35 1.12146 35 2.5V12.5C35 13.8785 36.1215 15 37.5 15H47.5C48.8785 15 50 13.8785 50 12.5V2.5C50 1.12146 48.8785 0 47.5 0ZM48.3333 12.5C48.3333 12.9594 47.9598 13.3333 47.5 13.3333H37.5C37.0402 13.3333 36.6667 12.9594 36.6667 12.5V8.33333H38.4176C38.8048 10.2327 40.488 11.6667 42.5 11.6667C44.512 11.6667 46.1952 10.2327 46.5824 8.33333H48.3333V12.5ZM40 7.5C40 6.12146 41.1215 5 42.5 5C43.8785 5 45 6.12146 45 7.5C45 8.87854 43.8785 10 42.5 10C41.1215 10 40 8.87854 40 7.5ZM48.3333 6.66667H46.5824C46.1952 4.76729 44.512 3.33333 42.5 3.33333C40.488 3.33333 38.8048 4.76729 38.4176 6.66667H36.6667V2.5C36.6667 2.04063 37.0402 1.66667 37.5 1.66667H47.5C47.9598 1.66667 48.3333 2.04063 48.3333 2.5V6.66667ZM24.1667 34.1667H25.8333V35.8333H24.1667V34.1667Z" fill="white"/>
</g>
<defs>
<clipPath id="clip0_5_3530">
<rect width="50" height="50" fill="white"/>
</clipPath>
</defs>
</svg>
