<svg width="50" height="50" viewBox="0 0 50 50" fill="none" xmlns="http://www.w3.org/2000/svg">
<g clip-path="url(#clip0_5_3519)">
<path d="M48.334 32.1302C48.2805 32.1302 48.2271 32.1353 48.1746 32.1455H48.1779C47.9537 32.1888 47.7287 32.2205 47.5037 32.2446V11.0135C47.5023 9.53389 46.3032 8.33481 44.8236 8.33346H31.6667V5.10091C31.6663 2.28524 29.3848 0.0022923 26.5691 6.02139e-07H20.9374C18.1197 -0.00135358 15.8345 2.2816 15.8331 5.09924V8.33346H3.5163C2.03545 8.33304 0.83439 9.53264 0.832932 11.0135V38.9872C0.83439 40.4681 2.03545 41.6677 3.5163 41.6673H5.833C5.833 43.048 6.95229 44.1673 8.33304 44.1673C9.71379 44.1673 10.8331 43.048 10.8331 41.6673H34.1668V42.2389C34.1691 43.5387 34.5326 44.8122 35.2168 45.9173C36.016 47.2098 37.2026 48.217 38.6076 48.7957L41.3444 49.9357C41.446 49.9781 41.5551 49.9999 41.6652 49.9999C41.7753 49.9999 41.8844 49.9781 41.986 49.9357L44.7227 48.7957C46.1315 48.2188 47.3218 47.2114 48.1236 45.9173C48.8055 44.8115 49.1667 43.5381 49.167 42.2389V32.9638C49.1671 32.7428 49.0793 32.5308 48.9231 32.3745C48.7669 32.2182 48.555 32.1303 48.334 32.1302ZM17.4998 5.10091C17.4986 4.64974 17.5869 4.2028 17.7595 3.78597C17.9322 3.36914 18.1858 2.9907 18.5057 2.67254C19.1522 2.03012 20.026 1.66868 20.9374 1.66669H26.5691C27.4802 1.6689 28.3537 2.03033 29 2.67254C29.3188 2.99118 29.5714 3.36984 29.743 3.78665C29.9147 4.20346 30.002 4.65015 30 5.10091V8.33346H28.3333V5.58925C28.3333 4.34569 27.3269 3.33661 26.0833 3.33338H21.4257C20.1799 3.33151 19.1684 4.34006 19.1665 5.58592V8.33346H17.4998V5.10091ZM26.6666 5.58925V8.33346H20.8332V5.58925C20.8332 5.43299 20.8953 5.28313 21.0058 5.17264C21.1163 5.06215 21.2661 5.00007 21.4224 5.00007H26.0833C26.2385 5.00161 26.3869 5.06436 26.4961 5.17469C26.6054 5.28501 26.6666 5.434 26.6666 5.58925ZM2.49962 11.0135C2.50004 10.4534 2.95452 9.99973 3.51464 10.0001H7.4997V17.1553L2.49962 22.1553V11.0135ZM2.49962 24.512L8.92138 18.0903L11.6664 15.3452L13.8015 17.4811L2.49962 28.0771V24.512ZM3.5163 40.0006C2.95619 40.0019 2.50098 39.549 2.49962 38.9889V30.3613L7.4997 25.6737V40.0006H3.5163ZM8.33304 42.5006C8.11202 42.5006 7.90006 42.4128 7.74378 42.2565C7.58749 42.1003 7.4997 41.8883 7.4997 41.6673H9.16639C9.16639 41.8883 9.07859 42.1003 8.92231 42.2565C8.76602 42.4128 8.55406 42.5006 8.33304 42.5006ZM35.1668 32.1455C35.0455 32.1207 34.9203 32.1232 34.8002 32.1529C34.6801 32.1826 34.568 32.2386 34.4723 32.317C34.3765 32.3954 34.2994 32.4941 34.2466 32.606C34.1937 32.7178 34.1665 32.8401 34.1668 32.9638V40.0006H9.16639V24.167C9.16639 24.1504 9.15805 24.137 9.15722 24.1204L15.5698 18.1078C15.6512 18.0314 15.7164 17.9394 15.7616 17.8373C15.8068 17.7352 15.831 17.6251 15.8327 17.5135C15.8345 17.4019 15.8139 17.291 15.772 17.1875C15.7301 17.0841 15.6679 16.99 15.589 16.9111L12.2556 13.5777C12.0993 13.4215 11.8874 13.3337 11.6664 13.3337C11.4454 13.3337 11.2335 13.4215 11.0772 13.5777L9.16639 15.4886V10.0001H39.1668V11.7335C35.982 11.2479 33.0063 13.4359 32.5207 16.6209C32.0351 19.8058 34.2231 22.7814 37.408 23.267C37.9909 23.3559 38.5839 23.3559 39.1668 23.267V31.9171C37.8731 32.324 36.4984 32.4025 35.1668 32.1455ZM42.5002 17.5003C42.5002 19.8014 40.6347 21.667 38.3335 21.667C36.0323 21.667 34.1668 19.8014 34.1668 17.5003C34.1668 15.1991 36.0323 13.3335 38.3335 13.3335C40.6336 13.3362 42.4975 15.2002 42.5002 17.5003ZM40.8335 47.9174L39.2502 47.2557C38.1671 46.8106 37.252 46.0351 36.6351 45.0398H36.6393C36.1163 44.1989 35.8373 43.2292 35.8334 42.2389V33.923C37.5469 34.0762 39.2707 33.7786 40.8335 33.0597V47.9174ZM42.0269 30.9221C42.0027 30.9106 41.9779 30.9003 41.9527 30.8913C41.8644 30.8565 41.7709 30.837 41.676 30.8338H41.6669C41.5715 30.8366 41.4774 30.8558 41.3885 30.8905C41.3633 30.8995 41.3386 30.9098 41.3144 30.9213C41.2934 30.9288 41.2728 30.9374 41.2527 30.9471L40.836 31.1871V22.7628C43.7424 21.389 44.9848 17.919 43.611 15.0126C43.035 13.7944 42.0543 12.8136 40.836 12.2377V10.0001H44.8227C45.3812 10.002 45.8332 10.455 45.8336 11.0135V32.2546C44.6601 32.1458 43.5244 31.783 42.5052 31.1913L42.0885 30.948C42.0685 30.9382 42.0479 30.9296 42.0269 30.9221ZM47.5003 42.2389C47.499 43.2286 47.2222 44.1984 46.7011 45.0398C46.0852 46.035 45.1709 46.8104 44.0886 47.2557L42.5002 47.9174V33.0597C44.0628 33.7796 45.7868 34.0772 47.5003 33.923V42.2389Z" fill="white"/>
<path d="M21.6303 32.5429L18.0919 29.007C17.9327 28.8565 17.7219 28.7726 17.5028 28.7726C17.2836 28.7726 17.0728 28.8565 16.9136 29.007L13.3777 32.5429C13.2215 32.6992 13.1337 32.9111 13.1337 33.1321C13.1337 33.3531 13.2215 33.565 13.3777 33.7213L16.9161 37.2563C17.0724 37.4126 17.2843 37.5003 17.5053 37.5003C17.7262 37.5003 17.9382 37.4126 18.0944 37.2563L21.6303 33.7213C21.7866 33.565 21.8743 33.3531 21.8743 33.1321C21.8743 32.9111 21.7866 32.6992 21.6303 32.5429ZM17.4994 35.4888L15.1419 33.1321L17.4994 30.7746L19.857 33.1321L17.4994 35.4888ZM30.5888 24.4111L24.7587 18.5777C24.6024 18.4215 24.3905 18.3337 24.1695 18.3337C23.9486 18.3337 23.7366 18.4215 23.5804 18.5777L18.5803 23.5778C18.4241 23.7341 18.3363 23.946 18.3363 24.167C18.3363 24.388 18.4241 24.5999 18.5803 24.7562L24.4137 30.5896C24.5691 30.7451 24.7797 30.8328 24.9995 30.8337H29.9996C30.2206 30.8337 30.4326 30.7459 30.5889 30.5897C30.7452 30.4334 30.833 30.2214 30.833 30.0004V25.0003C30.833 24.8909 30.8114 24.7825 30.7695 24.6814C30.7276 24.5803 30.6662 24.4885 30.5888 24.4111ZM29.1663 29.1671H25.3479L20.3478 24.167L24.1662 20.3453L29.1663 25.3453V29.1671Z" fill="white"/>
</g>
<defs>
<clipPath id="clip0_5_3519">
<rect width="50" height="50" fill="white"/>
</clipPath>
</defs>
</svg>
