<svg width="50" height="50" viewBox="0 0 50 50" fill="none" xmlns="http://www.w3.org/2000/svg">
<path d="M24.9997 2.08337C20.4672 2.08337 16.0365 3.42741 12.2679 5.94553C8.49924 8.46364 5.56195 12.0427 3.82745 16.2302C2.09294 20.4177 1.63911 25.0255 2.52336 29.4709C3.4076 33.9163 5.5902 37.9996 8.79516 41.2046C12.0001 44.4095 16.0835 46.5921 20.5289 47.4764C24.9743 48.3606 29.582 47.9068 33.7695 46.1723C37.957 44.4378 41.5361 41.5005 44.0542 37.7319C46.5723 33.9632 47.9164 29.5325 47.9164 25C47.9095 18.9243 45.4928 13.0993 41.1966 8.80312C36.9004 4.50691 31.0754 2.09027 24.9997 2.08337ZM44.0809 33.3334H37.6351C38.1634 30.9371 38.4568 28.495 38.5111 26.0417H45.7799C45.6623 28.5554 45.0865 31.0266 44.0809 33.3334ZM4.21948 26.0417H11.4882C11.5425 28.495 11.8359 30.9371 12.3643 33.3334H5.91844C4.91284 31.0266 4.33707 28.5554 4.21948 26.0417ZM5.91844 16.6667H12.3643C11.8359 19.063 11.5425 21.5051 11.4882 23.9584H4.21948C4.33707 21.4446 4.91284 18.9735 5.91844 16.6667ZM26.0414 14.5834V4.26254C29.832 4.88754 33.0872 8.88337 34.908 14.5834H26.0414ZM35.4945 16.6667C36.0592 19.0581 36.3734 21.5019 36.432 23.9584H26.0414V16.6667H35.4945ZM23.958 4.26254V14.5834H15.0914C16.9122 8.88337 20.1674 4.88754 23.958 4.26254ZM23.958 16.6667V23.9584H13.5705C13.6291 21.5019 13.9433 19.0581 14.508 16.6667H23.958ZM13.5705 26.0417H23.958V33.3334H14.5049C13.9412 30.9418 13.6281 28.4981 13.5705 26.0417ZM23.958 35.4167V45.7375C20.1674 45.1125 16.9122 41.1167 15.0914 35.4167H23.958ZM26.0414 45.7375V35.4167H34.908C33.0872 41.1167 29.832 45.1125 26.0414 45.7375ZM26.0414 33.3334V26.0417H36.4289C36.3703 28.4982 36.0561 30.9419 35.4914 33.3334H26.0414ZM38.5111 23.9584C38.4568 21.5051 38.1634 19.063 37.6351 16.6667H44.0809C45.0865 18.9735 45.6623 21.4446 45.7799 23.9584H38.5111ZM43.0143 14.5834H37.0966C36.1925 11.1891 34.4924 8.0592 32.1372 5.45317C36.7166 7.13505 40.5642 10.3647 43.0143 14.5834ZM17.8622 5.45317C15.507 8.0592 13.8069 11.1891 12.9028 14.5834H6.9851C9.43516 10.3647 13.2827 7.13505 17.8622 5.45317ZM6.9851 35.4167H12.9028C13.8069 38.811 15.507 41.9409 17.8622 44.5469C13.2827 42.865 9.43516 39.6354 6.9851 35.4167ZM32.1372 44.5469C34.4924 41.9409 36.1925 38.811 37.0966 35.4167H43.0143C40.5642 39.6354 36.7166 42.865 32.1372 44.5469Z" fill="white"/>
</svg>
