<svg width="50" height="50" viewBox="0 0 50 50" fill="none" xmlns="http://www.w3.org/2000/svg">
<path d="M11.7075 28.0842C11.4759 27.8842 11.1925 27.7775 10.8875 27.7775L10.28 27.8567L10.0041 28.1317C9.83828 28.2976 9.63994 28.5917 9.63994 29.0459V31.0842H7.18584V29.0459C7.18584 28.6726 7.03916 28.3343 6.7708 28.0959C6.54124 27.8905 6.24389 27.7771 5.93584 27.7775L5.32832 27.8567L5.05244 28.1317C4.88662 28.2976 4.68828 28.5917 4.68828 29.0459V36.1101C4.68828 36.4617 4.81992 36.7851 5.0958 37.0534C5.32998 37.2601 5.6208 37.3685 5.93584 37.3685L6.49746 37.2876L6.76328 37.056C7.03662 36.8177 7.18574 36.481 7.18574 36.1102V33.5201H9.63906V36.1102C9.63906 36.4618 9.7707 36.7852 10.0324 37.0418L10.5232 37.3693H10.8874L11.4591 37.2885L11.7274 37.0451C11.9908 36.806 12.135 36.4734 12.135 36.1102V29.046C12.135 28.68 11.9934 28.345 11.7075 28.0842ZM21.37 29.3259C20.5816 28.2983 19.4759 27.7768 18.0792 27.7768C16.695 27.7768 15.5551 28.3126 14.7733 29.3359C14.1309 30.2001 13.8042 31.2893 13.8042 32.5718C13.8042 33.8567 14.1317 34.9435 14.7783 35.8026C15.5524 36.8276 16.6925 37.3685 18.0792 37.3685C19.4584 37.3685 20.5967 36.8276 21.3676 35.8093C22.0292 34.9526 22.3634 33.8626 22.3634 32.5718C22.3634 31.2842 22.0292 30.1925 21.37 29.3259ZM19.4083 34.3366C19.2175 34.5966 18.8733 34.9425 18.08 34.9425C17.4649 34.9425 17.055 34.7566 16.7592 34.3441C16.4566 33.9208 16.3025 33.325 16.3025 32.5733C16.3025 31.8167 16.4534 31.2217 16.7567 30.8059C17.0567 30.3884 17.465 30.2025 18.0801 30.2025C18.8734 30.2025 19.2176 30.5483 19.406 30.8084C19.7135 31.2317 19.8701 31.8251 19.8701 32.5726C19.87 33.3158 19.7134 33.91 19.4083 34.3366ZM30.0184 28.5408L29.7009 28.2616C29.4667 28.055 29.1684 27.9466 28.8417 27.9466H24.0617C23.3784 27.9466 22.8825 28.4591 22.8825 29.1649C22.8825 29.8708 23.3775 30.3833 24.0608 30.3833H25.2475V36.1191C25.2475 36.4649 25.3791 36.7842 25.6408 37.0408L26.1316 37.3684H26.4958L27.0575 37.2875L27.3233 37.0559C27.5941 36.8192 27.7434 36.4858 27.7434 36.1192V30.3834H28.8417C29.1884 30.3834 29.4983 30.2593 29.7009 30.0584C29.9643 29.8275 30.1084 29.5093 30.1084 29.165L30.0184 28.5408ZM38.0816 35.355L37.7642 35.0741C37.6008 34.9316 37.32 34.7608 36.9025 34.7608H33.7242V33.6599H36.4217C36.8634 33.6599 37.1542 33.4657 37.3275 33.2957C37.5542 33.0665 37.6817 32.7632 37.6817 32.4424L37.6009 31.8115L37.2733 31.5307C37.1125 31.3906 36.8316 31.224 36.4217 31.224H33.7242V30.3832H36.7734C37.1101 30.3832 37.4251 30.2565 37.6843 30.0024C37.9005 29.7771 38.0211 29.477 38.0209 29.1649L37.9426 28.5407L37.6251 28.2615C37.3909 28.0549 37.0951 27.9465 36.7734 27.9465H33.1159C32.3834 27.9465 31.9343 28.2848 31.6801 28.5748C31.3826 28.9223 31.2259 29.3656 31.2259 29.8565V35.2973C31.2259 35.7798 31.3825 36.219 31.6875 36.5781C31.9367 36.8598 32.3858 37.1973 33.1158 37.1973H36.9024C37.3491 37.1973 37.6399 36.9982 37.7982 36.8398C37.9136 36.7281 38.0054 36.5943 38.0679 36.4464C38.1305 36.2985 38.1626 36.1395 38.1624 35.9789L38.0816 35.355ZM45.94 35.355L45.6226 35.0741C45.3884 34.8691 45.09 34.7608 44.7609 34.7608H42.1734V29.0457C42.1734 28.6724 42.0268 28.3341 41.7584 28.0957C41.5288 27.8903 41.2315 27.7769 40.9234 27.7774L40.3159 27.8566L40.04 28.1315C39.8742 28.2974 39.6759 28.5915 39.6759 29.0457V35.2983C39.6759 35.7808 39.8325 36.2199 40.1375 36.5791C40.3858 36.86 40.835 37.1975 41.565 37.1975H44.7608C45.11 37.1975 45.43 37.0683 45.6566 36.8399C45.772 36.7283 45.8638 36.5945 45.9263 36.4466C45.9889 36.2987 46.021 36.1397 46.0208 35.9791L45.94 35.355Z" fill="white"/>
<path d="M48.75 11.25C49.4408 11.25 50 10.6908 50 10V5C50 4.30918 49.4408 3.75 48.75 3.75C48.0592 3.75 47.5 4.30918 47.5 5V6.25H2.5V5C2.5 4.30918 1.94082 3.75 1.25 3.75C0.55918 3.75 0 4.30918 0 5V10C0 10.6908 0.55918 11.25 1.25 11.25C1.94082 11.25 2.5 10.6908 2.5 10V8.75H7.5V18.75H5C2.23838 18.75 0 20.9884 0 23.75V41.25C0 44.0116 2.23838 46.25 5 46.25H45C47.7616 46.25 50 44.0116 50 41.25V23.75C50 20.9884 47.7616 18.75 45 18.75H42.5V8.75H47.5V10C47.5 10.6908 48.0592 11.25 48.75 11.25ZM10 8.75H40V18.75H10V8.75ZM45 21.25C46.3783 21.25 47.5 22.3717 47.5 23.75V41.25C47.5 42.6283 46.3783 43.75 45 43.75H5C3.62168 43.75 2.5 42.6283 2.5 41.25V23.75C2.5 22.3717 3.62168 21.25 5 21.25H45Z" fill="white"/>
</svg>
