<svg width="50" height="50" viewBox="0 0 50 50" fill="none" xmlns="http://www.w3.org/2000/svg">
<g clip-path="url(#clip0_5_3524)">
<path d="M13.7431 23.5578C19.155 23.5578 23.5579 19.1549 23.5579 13.743C23.5579 8.33105 19.1549 3.92822 13.7431 3.92822C8.33124 3.92822 3.92822 8.33115 3.92822 13.7431C3.92822 19.155 8.33115 23.5578 13.7431 23.5578ZM13.7431 5.39307C18.3473 5.39307 22.0931 9.13877 22.0931 13.7431C22.0931 18.3474 18.3473 22.0931 13.7431 22.0931C9.13886 22.0931 5.39316 18.3474 5.39316 13.7431C5.39316 9.13877 9.13886 5.39307 13.7431 5.39307ZM36.2569 46.0717C41.6688 46.0717 46.0717 41.6688 46.0717 36.2569C46.0717 30.845 41.6688 26.4421 36.2569 26.4421C30.845 26.4421 26.4421 30.845 26.4421 36.2569C26.4421 41.6688 30.8451 46.0717 36.2569 46.0717ZM36.2569 27.907C40.8611 27.907 44.6068 31.6527 44.6068 36.257C44.6068 40.8611 40.8611 44.6069 36.2569 44.6069C31.6527 44.6069 27.9069 40.8612 27.9069 36.257C27.907 31.6527 31.6528 27.907 36.2569 27.907ZM30.5284 8.25898C33.9883 8.87178 36.9778 10.8696 38.8562 13.7923L38.0602 14.0385C37.4519 14.2267 37.0046 14.7096 36.8635 15.3304C36.7223 15.9512 36.9168 16.5802 37.384 17.0129L42.7608 21.9937C43.0936 22.302 43.5153 22.4646 43.9503 22.4646C44.1257 22.4646 44.3033 22.4382 44.4781 22.3842C45.0863 22.196 45.5338 21.7131 45.675 21.0923L47.3 13.9453C47.4411 13.3245 47.2466 12.6954 46.7795 12.2628C46.3124 11.8302 45.6706 11.6842 45.0622 11.8724L44.1086 12.1674C43.2767 10.613 42.22 9.18983 40.9726 7.94394C38.3684 5.33965 35.0828 3.6209 31.4713 2.97363C31.0938 2.90568 30.7063 2.91903 30.3344 3.0128C29.9625 3.10657 29.6149 3.27859 29.3148 3.51738C29.0167 3.75481 28.7725 4.05309 28.5987 4.39233C28.425 4.73156 28.3255 5.10396 28.307 5.48467C28.2415 6.83057 29.1966 8.02324 30.5284 8.25898ZM29.77 5.55586C29.7872 5.20137 29.9496 4.88447 30.2271 4.66338C30.4452 4.49007 30.7155 4.39581 30.994 4.396C31.0668 4.396 31.1399 4.40244 31.2127 4.41543C34.5283 5.00986 37.545 6.58818 39.9366 8.97988C41.2192 10.2607 42.2812 11.7446 43.08 13.3717C43.1568 13.5283 43.2871 13.6524 43.4473 13.7215C43.6076 13.7906 43.7872 13.8002 43.9539 13.7485L45.495 13.2718C45.6372 13.2279 45.7371 13.2941 45.7839 13.3375C45.8308 13.3809 45.9045 13.4754 45.8715 13.6205L44.2465 20.7675C44.2135 20.9125 44.106 20.9659 44.045 20.9849C43.9841 21.0036 43.8653 21.0202 43.7561 20.9191L38.3793 15.9384C38.2701 15.8372 38.2775 15.7176 38.2918 15.6554C38.306 15.5932 38.3509 15.482 38.4932 15.438L40.1763 14.9173C40.2799 14.8852 40.3751 14.8304 40.455 14.757C40.535 14.6836 40.5976 14.5934 40.6383 14.4928C40.6791 14.3923 40.6971 14.2839 40.6909 14.1756C40.6847 14.0673 40.6545 13.9617 40.6025 13.8664C38.5611 10.1297 34.9823 7.56025 30.7839 6.8167C30.1762 6.70908 29.7403 6.16699 29.77 5.55586ZM19.869 42.104C16.4092 41.4912 13.4196 39.4934 11.5412 36.5708L12.3373 36.3246C12.9455 36.1364 13.393 35.6534 13.5341 35.0326C13.6752 34.4118 13.4807 33.7828 13.0136 33.3502L7.63671 28.3692C7.16972 27.9365 6.52773 27.7906 5.91953 27.9787C5.31123 28.167 4.86386 28.6499 4.72265 29.2707L3.09765 36.4177C2.95654 37.0385 3.15107 37.6675 3.61816 38.1002C4.08525 38.5328 4.72714 38.6788 5.33544 38.4906L6.28906 38.1956C7.12098 39.7499 8.17771 41.173 9.42509 42.4188C12.0294 45.0233 15.3149 46.7421 18.9264 47.3893C19.3038 47.4572 19.6914 47.4438 20.0632 47.35C20.4351 47.2563 20.7827 47.0843 21.0828 46.8455C21.381 46.6081 21.6251 46.3098 21.7989 45.9706C21.9727 45.6313 22.0721 45.2589 22.0906 44.8782C22.156 43.5325 21.201 42.3399 19.869 42.104ZM20.6275 44.8071C20.6103 45.1616 20.4479 45.4785 20.1704 45.6996C20.0332 45.8086 19.8743 45.8871 19.7044 45.9299C19.5344 45.9726 19.3573 45.9786 19.1849 45.9475C15.8693 45.3532 12.8526 43.7749 10.4609 41.3831C9.17402 40.0963 8.1165 38.6186 7.31757 36.9914C7.24069 36.8348 7.11042 36.7108 6.95022 36.6417C6.79003 36.5726 6.61042 36.5629 6.44374 36.6145L4.90263 37.0912C4.76064 37.1352 4.66054 37.0689 4.61376 37.0255C4.56689 36.9821 4.49326 36.8876 4.52626 36.7426L6.15126 29.5956C6.18427 29.4505 6.2916 29.3971 6.35263 29.3781C6.41357 29.3595 6.53232 29.3428 6.6415 29.4438L12.0185 34.4247C12.1275 34.5258 12.1201 34.6454 12.106 34.7077C12.0918 34.77 12.0468 34.8811 11.9046 34.9251L10.2215 35.4457C10.1178 35.4778 10.0225 35.5325 9.94261 35.6059C9.86267 35.6793 9.80003 35.7695 9.75924 35.8701C9.71845 35.9707 9.70051 36.079 9.70673 36.1874C9.71295 36.2957 9.74317 36.4013 9.79521 36.4966C11.8365 40.2332 15.4153 42.8027 19.6139 43.5463C20.2213 43.654 20.6572 44.196 20.6275 44.8071Z" fill="white"/>
<path d="M10.7728 18.3968C11.6229 18.9528 12.2097 19.1274 12.9509 19.1756V19.8466C12.9509 20.2512 13.2788 20.579 13.6833 20.579C14.0878 20.579 14.4157 20.2512 14.4157 19.8466V19.1146C15.9224 18.7966 16.8033 17.5444 17.0001 16.3737C17.2563 14.8495 16.4595 13.5243 14.9699 12.9979C14.7845 12.9325 14.5998 12.8653 14.4157 12.7962V9.73525C14.8555 9.85684 15.1164 10.0771 15.1414 10.0987C15.285 10.2284 15.4742 10.296 15.6675 10.2867C15.8608 10.2773 16.0426 10.1919 16.1731 10.0489C16.3036 9.90602 16.3722 9.71726 16.364 9.52389C16.3557 9.33053 16.2713 9.14829 16.1291 9.01699C16.0907 8.98164 15.4559 8.41006 14.4158 8.23828V7.63965C14.4158 7.23506 14.0879 6.90723 13.6834 6.90723C13.2789 6.90723 12.951 7.23506 12.951 7.63965V8.29277C12.8648 8.31279 12.7778 8.33486 12.689 8.36162C11.7056 8.65781 10.9709 9.49893 10.7716 10.5564C10.5895 11.5227 10.9004 12.4553 11.5828 12.9905C11.9319 13.2644 12.3638 13.5152 12.951 13.7789V17.7072C12.4553 17.663 12.125 17.531 11.5749 17.171C11.4123 17.0647 11.2142 17.0272 11.0241 17.067C10.8339 17.1067 10.6674 17.2204 10.561 17.3829C10.5083 17.4634 10.472 17.5534 10.4542 17.648C10.4363 17.7425 10.4372 17.8396 10.4569 17.9337C10.4766 18.0279 10.5146 18.1172 10.5688 18.1967C10.623 18.2761 10.6923 18.3441 10.7728 18.3968ZM12.4867 11.8379C12.24 11.6444 12.1318 11.2479 12.2109 10.8276C12.2796 10.4637 12.5097 10.0308 12.9508 9.82617V12.142C12.7778 12.044 12.6205 11.9428 12.4867 11.8379ZM14.4816 14.3789C15.6801 14.8025 15.6066 15.827 15.5555 16.1308C15.459 16.7048 15.072 17.3135 14.4156 17.5834V14.3552L14.4816 14.3789ZM30.4703 35.5803H31.4112C31.3839 35.8022 31.3681 36.0277 31.3681 36.257C31.3681 36.4863 31.3839 36.7118 31.4112 36.9338H30.4703C30.0658 36.9338 29.7379 37.2616 29.7379 37.6662C29.7379 38.0708 30.0658 38.3986 30.4703 38.3986H31.8013C32.6389 40.3774 34.6002 41.7693 36.8806 41.7693C38.082 41.7693 39.1576 41.377 39.991 40.6349C40.1563 40.4873 40.3108 40.328 40.4531 40.1582C40.5779 40.0094 40.6385 39.817 40.6215 39.6235C40.6045 39.43 40.5113 39.2512 40.3625 39.1264C40.2136 39.0016 40.0213 38.941 39.8278 38.958C39.6343 38.975 39.4555 39.0681 39.3306 39.217C39.234 39.3324 39.1291 39.4407 39.0168 39.5409C38.4478 40.0476 37.7292 40.3045 36.8806 40.3045C35.4348 40.3045 34.1644 39.5421 33.4484 38.3986H37.048C37.4525 38.3986 37.7805 38.0708 37.7805 37.6662C37.7805 37.2616 37.4525 36.9338 37.048 36.9338H32.8908C32.8536 36.7136 32.8331 36.4877 32.8331 36.257C32.8331 36.0264 32.8535 35.8005 32.8908 35.5803H37.048C37.4525 35.5803 37.7805 35.2524 37.7805 34.8479C37.7805 34.4433 37.4525 34.1154 37.048 34.1154H33.4484C34.1644 32.972 35.4348 32.2095 36.8806 32.2095C37.6917 32.2095 38.474 32.4483 39.1431 32.9003C39.304 33.0083 39.5013 33.0481 39.6915 33.0109C39.8818 32.9737 40.0495 32.8626 40.158 32.702C40.2665 32.5414 40.3069 32.3443 40.2704 32.1539C40.2338 31.9635 40.1233 31.7954 39.963 31.6864C39.0509 31.0702 37.9849 30.7445 36.8806 30.7445C34.6002 30.7445 32.6388 32.1364 31.8013 34.1153H30.4704C30.0659 34.1153 29.738 34.4432 29.738 34.8478C29.738 35.2523 30.0658 35.5803 30.4703 35.5803Z" fill="white"/>
<path d="M13.7431 27.486C21.321 27.486 27.4861 21.3209 27.4861 13.743C27.4861 6.16504 21.321 0 13.7431 0C11.0185 0 8.38438 0.796484 6.12578 2.30332C5.96565 2.41174 5.85489 2.57908 5.81767 2.76885C5.78045 2.95861 5.81979 3.1554 5.92711 3.31627C6.03442 3.47714 6.20101 3.58904 6.39051 3.62756C6.58002 3.66608 6.77707 3.62809 6.93867 3.52187C8.95586 2.17617 11.3087 1.46484 13.7431 1.46484C20.5133 1.46484 26.0213 6.97275 26.0213 13.7431C26.0213 20.5134 20.5133 26.0213 13.7431 26.0213C6.97285 26.0213 1.46484 20.5133 1.46484 13.7431C1.46484 10.7622 2.54678 7.8876 4.51133 5.64883C4.63621 5.50238 4.69843 5.31266 4.68455 5.1207C4.67067 4.92874 4.5818 4.74995 4.43714 4.62299C4.29249 4.49603 4.10369 4.43111 3.91154 4.44224C3.7194 4.45338 3.53936 4.5397 3.41035 4.68252C1.21122 7.18848 -0.000971724 10.409 5.84468e-07 13.7431C5.84468e-07 21.3209 6.16504 27.486 13.7431 27.486ZM36.2569 22.514C33.4567 22.514 30.7618 23.3519 28.4635 24.937C28.1305 25.1667 28.0467 25.6228 28.2764 25.9558C28.5061 26.2888 28.9621 26.3727 29.2951 26.1429C31.3478 24.7271 33.7551 23.9789 36.2568 23.9789C43.0271 23.9789 48.5351 29.4868 48.5351 36.2571C48.5351 43.0274 43.0272 48.5352 36.2569 48.5352C29.4866 48.5352 23.9787 43.0272 23.9787 36.2569C23.9787 33.3454 25.0166 30.5217 26.9013 28.3063C26.9649 28.2333 27.0134 28.1483 27.0439 28.0563C27.0745 27.9644 27.0865 27.8673 27.0792 27.7707C27.072 27.674 27.0457 27.5798 27.0018 27.4935C26.9578 27.4071 26.8972 27.3303 26.8234 27.2675C26.7496 27.2047 26.6641 27.1572 26.5718 27.1277C26.4795 27.0982 26.3823 27.0874 26.2857 27.0957C26.1892 27.1041 26.0953 27.1315 26.0094 27.1764C25.9236 27.2213 25.8475 27.2828 25.7855 27.3573C23.6758 29.8374 22.5139 32.9979 22.5139 36.257C22.5139 43.835 28.679 50.0001 36.2569 50.0001C43.8349 50.0001 50 43.8349 50 36.2569C50 28.679 43.835 22.514 36.2569 22.514Z" fill="white"/>
</g>
<defs>
<clipPath id="clip0_5_3524">
<rect width="50" height="50" fill="white"/>
</clipPath>
</defs>
</svg>
