<svg width="36" height="36" viewBox="0 0 36 36" fill="none" xmlns="http://www.w3.org/2000/svg">
<g clip-path="url(#clip0_5_2908)">
<path d="M18 35.4375C27.6305 35.4375 35.4375 27.6305 35.4375 18C35.4375 8.36953 27.6305 0.5625 18 0.5625C8.36953 0.5625 0.5625 8.36953 0.5625 18C0.5625 27.6305 8.36953 35.4375 18 35.4375Z" fill="url(#paint0_linear_5_2908)"/>
<path d="M18 33.75C26.8538 33.75 34.0312 26.6985 34.0312 18C34.0312 9.30152 26.8538 2.25 18 2.25C9.14619 2.25 1.96875 9.30152 1.96875 18C1.96875 26.6985 9.14619 33.75 18 33.75Z" fill="url(#paint1_linear_5_2908)"/>
<path d="M9.28124 9.28125L8.15624 8.15625C5.58871 10.6926 3.9268 14.1286 3.92624 18H5.62724C5.6278 14.5966 7.02533 11.5124 9.28124 9.28125Z" fill="url(#paint2_linear_5_2908)"/>
<path d="M18 5.76338V4.21875C17.9992 4.21875 18.0008 4.21875 18 4.21875C14.1424 4.21875 10.6982 5.66916 8.15625 8.15625L9.28125 9.28125C11.5158 7.09481 14.609 5.90625 18 5.90625C18.0008 5.90625 17.9992 5.76338 18 5.76338Z" fill="url(#paint3_linear_5_2908)"/>
<path d="M27.8438 8.15625C25.3021 5.66831 21.8579 4.21931 18 4.21875V5.90625C21.3913 5.90681 24.4845 7.09397 26.7188 9.28125L27.8438 8.15625Z" fill="url(#paint4_linear_5_2908)"/>
<path d="M27.8438 8.15625L26.7188 9.28125C28.9845 11.4992 30.3674 14.5977 30.3682 18H32.0693C32.0687 14.1297 30.4211 10.6791 27.8438 8.15625Z" fill="url(#paint5_linear_5_2908)"/>
<path d="M30.375 18C30.3777 19.6237 30.0557 21.2314 29.4278 22.7288C28.7998 24.2261 27.8788 25.5827 26.7188 26.7188L27.8438 27.8438C30.4203 25.3207 32.0693 21.8723 32.0693 18.0023V18H30.375Z" fill="url(#paint6_linear_5_2908)"/>
<path d="M24.1875 29.8125H11.8125C11.5031 29.8125 11.25 29.5594 11.25 29.25V27.2812C11.25 26.9719 11.5031 26.7188 11.8125 26.7188H24.1875C24.4969 26.7188 24.75 26.9719 24.75 27.2812V29.25C24.75 29.5594 24.4969 29.8125 24.1875 29.8125Z" fill="url(#paint7_linear_5_2908)"/>
<path d="M25.3125 11.25L14.0625 23.3438L12.6562 21.9375L24.75 10.6875L25.3125 11.25Z" fill="url(#paint8_linear_5_2908)"/>
<path d="M18 19.9688C19.0873 19.9688 19.9688 19.0873 19.9688 18C19.9688 16.9127 19.0873 16.0312 18 16.0312C16.9127 16.0312 16.0312 16.9127 16.0312 18C16.0312 19.0873 16.9127 19.9688 18 19.9688Z" fill="url(#paint9_linear_5_2908)"/>
<path d="M5.62724 18H3.92624V18.0023C3.92624 21.8734 5.5783 25.3204 8.15624 27.8438L9.2984 26.7016C7.03236 24.4834 5.62724 21.4054 5.62724 18.0023V18Z" fill="url(#paint10_linear_5_2908)"/>
<path d="M18 0.28125C8.22994 0.28125 0.28125 8.22994 0.28125 18C0.28125 27.7701 8.22994 35.7188 18 35.7188C27.7701 35.7188 35.7188 27.7701 35.7188 18C35.7188 8.22994 27.7701 0.28125 18 0.28125ZM18 35.1562C8.53988 35.1562 0.84375 27.4601 0.84375 18C0.84375 8.53988 8.53988 0.84375 18 0.84375C27.4601 0.84375 35.1562 8.53988 35.1562 18C35.1562 27.4601 27.4601 35.1562 18 35.1562Z" fill="#3A322B"/>
<path d="M18 1.96875C9.00534 1.96875 1.6875 9.16031 1.6875 18C1.6875 26.8397 9.00534 34.0312 18 34.0312C26.9947 34.0312 34.3125 26.8397 34.3125 18C34.3125 9.16031 26.9947 1.96875 18 1.96875ZM18 33.4688C9.31528 33.4688 2.25 26.5295 2.25 18C2.25 9.47053 9.31528 2.53125 18 2.53125C26.6847 2.53125 33.75 9.47053 33.75 18C33.75 26.5295 26.6847 33.4688 18 33.4688Z" fill="#3A322B"/>
<path d="M24.1875 26.4375H11.8125C11.3473 26.4375 10.9688 26.8161 10.9688 27.2813V29.25C10.9688 29.7152 11.3473 30.0938 11.8125 30.0938H24.1875C24.6527 30.0938 25.0312 29.7152 25.0312 29.25V27.2813C25.0312 26.8161 24.6527 26.4375 24.1875 26.4375ZM24.4687 29.25C24.4687 29.3246 24.4391 29.3961 24.3864 29.4489C24.3336 29.5016 24.2621 29.5313 24.1875 29.5313H11.8125C11.7379 29.5313 11.6664 29.5016 11.6136 29.4489C11.5609 29.3961 11.5312 29.3246 11.5312 29.25V27.2813C11.5312 27.2067 11.5609 27.1351 11.6136 27.0824C11.6664 27.0296 11.7379 27 11.8125 27H24.1875C24.2621 27 24.3336 27.0296 24.3864 27.0824C24.4391 27.1351 24.4687 27.2067 24.4687 27.2813V29.25ZM24.9488 10.4887C24.8973 10.4372 24.8279 10.4077 24.7551 10.4064C24.6823 10.4051 24.6118 10.432 24.5585 10.4816L18.7529 15.8822C18.5114 15.7952 18.2567 15.7505 18 15.75C16.7594 15.75 15.75 16.7594 15.75 18C15.75 18.2073 15.7804 18.4073 15.8333 18.5982L12.4647 21.7316C12.4371 21.7574 12.4149 21.7885 12.3996 21.823C12.3842 21.8575 12.3759 21.8948 12.3752 21.9326C12.3745 21.9704 12.3815 22.0079 12.3956 22.043C12.4097 22.078 12.4307 22.1099 12.4574 22.1366L13.8637 23.5429C13.9164 23.5955 13.988 23.6251 14.0625 23.625H14.0678C14.1441 23.6236 14.2163 23.5913 14.2687 23.5353L17.4021 20.1668C17.5967 20.2215 17.7978 20.2495 18 20.25C19.2406 20.25 20.25 19.2406 20.25 18C20.2495 17.7434 20.2048 17.4888 20.1178 17.2474L25.5187 11.4415C25.5682 11.3882 25.5952 11.3177 25.5939 11.2449C25.5926 11.1721 25.5631 11.1027 25.5116 11.0512L24.9488 10.4887ZM14.0552 22.9388L13.0615 21.9451L16.0684 19.1478C16.2607 19.4702 16.5301 19.7396 16.8525 19.9319L14.0552 22.9388ZM18 19.6875C17.0693 19.6875 16.3125 18.9307 16.3125 18C16.3125 17.0693 17.0693 16.3125 18 16.3125C18.9307 16.3125 19.6875 17.0693 19.6875 18C19.6875 18.9307 18.9307 19.6875 18 19.6875ZM19.8444 16.7153C19.6922 16.4972 19.5028 16.3078 19.2847 16.1556L24.7427 11.0782L24.9218 11.257L19.8444 16.7153Z" fill="#3A322B"/>
<path d="M32.9062 17.7188H32.3435C32.2701 14.1567 30.8216 10.7831 28.2389 8.15878L28.6051 7.79259C28.6578 7.73986 28.6875 7.66833 28.6875 7.59375C28.6875 7.51917 28.6578 7.44764 28.6051 7.39491C28.579 7.36879 28.548 7.34808 28.5139 7.33395C28.4797 7.31982 28.4432 7.31254 28.4062 7.31254C28.3317 7.31254 28.2601 7.34217 28.2074 7.39491L27.8367 7.76559C25.2787 5.35978 21.9068 4.01119 18.2812 3.94397V3.375C18.2812 3.30041 18.2516 3.22887 18.1989 3.17613C18.1461 3.12338 18.0746 3.09375 18 3.09375C17.9254 3.09375 17.8539 3.12338 17.8011 3.17613C17.7484 3.22887 17.7188 3.30041 17.7188 3.375V3.94397C14.0951 4.01062 10.7238 5.35894 8.16328 7.76531L7.79259 7.39462C7.76648 7.36851 7.73548 7.3478 7.70136 7.33367C7.66725 7.31953 7.63068 7.31226 7.59375 7.31226C7.55682 7.31226 7.52025 7.31953 7.48614 7.33367C7.45202 7.3478 7.42102 7.36851 7.39491 7.39462C7.36879 7.42074 7.34808 7.45174 7.33395 7.48586C7.31982 7.51997 7.31254 7.55654 7.31254 7.59347C7.31254 7.6304 7.31982 7.66696 7.33395 7.70108C7.34808 7.7352 7.36879 7.7662 7.39491 7.79231L7.76194 8.15934C5.17669 10.8082 3.72656 14.1806 3.65231 17.7188H3.09375C3.01916 17.7188 2.94762 17.7484 2.89488 17.8011C2.84213 17.8539 2.8125 17.9254 2.8125 18C2.8125 18.0746 2.84213 18.1461 2.89488 18.1989C2.94762 18.2516 3.01916 18.2812 3.09375 18.2812H3.65203C3.72431 21.8393 5.17444 25.2132 7.76109 27.8412L7.39491 28.2074C7.36879 28.2335 7.34808 28.2645 7.33395 28.2986C7.31982 28.3328 7.31254 28.3693 7.31254 28.4062C7.31254 28.4808 7.34217 28.5524 7.39491 28.6051C7.44764 28.6578 7.51917 28.6875 7.59375 28.6875C7.66833 28.6875 7.73986 28.6578 7.79259 28.6051L9.49725 26.9004C9.52345 26.8741 9.54418 26.8428 9.55825 26.8084C9.57232 26.774 9.57946 26.7372 9.57925 26.7C9.57904 26.6628 9.57149 26.6261 9.55703 26.5918C9.54257 26.5576 9.52149 26.5266 9.495 26.5005C7.18228 24.2364 5.9085 21.2181 5.9085 18C5.90934 14.7831 7.1775 11.7577 9.47784 9.48206C11.6497 7.3575 14.6762 6.1875 18 6.1875C21.3249 6.18806 24.3512 7.35778 26.5213 9.4815L26.523 9.48319C28.825 11.7371 30.0932 14.7617 30.0938 18C30.0938 21.2369 28.8253 24.262 26.5219 26.5177C26.4954 26.5437 26.4743 26.5748 26.4599 26.609C26.4455 26.6433 26.4379 26.6801 26.4378 26.7172C26.4376 26.7544 26.4447 26.7912 26.4588 26.8256C26.4729 26.86 26.4937 26.8913 26.5199 26.9176L28.2074 28.6051C28.2335 28.6313 28.2644 28.6521 28.2986 28.6663C28.3327 28.6805 28.3693 28.6878 28.4062 28.6878C28.4432 28.6878 28.4798 28.6805 28.5139 28.6663C28.5481 28.6521 28.579 28.6313 28.6051 28.6051C28.6312 28.579 28.652 28.548 28.6661 28.5139C28.6803 28.4798 28.6876 28.4432 28.6876 28.4062C28.6876 28.3693 28.6803 28.3327 28.6661 28.2986C28.652 28.2645 28.6312 28.2335 28.6051 28.2074L28.2389 27.8409C30.8225 25.2146 32.2709 21.8419 32.3435 18.2812H32.9062C32.9808 18.2812 33.0524 18.2516 33.1051 18.1989C33.1579 18.1461 33.1875 18.0746 33.1875 18C33.1875 17.9254 33.1579 17.8539 33.1051 17.8011C33.0524 17.7484 32.9808 17.7188 32.9062 17.7188ZM8.90044 26.7016L8.15878 27.4432C5.67872 24.9224 4.28737 21.6903 4.21453 18.2812H5.34881C5.41856 21.4512 6.67153 24.4212 8.90044 26.7016ZM5.34938 17.7188H4.21481C4.2885 14.3317 5.68041 11.099 8.15962 8.55731L8.88469 9.28238C6.66731 11.5729 5.41997 14.5479 5.34938 17.7188ZM9.28603 8.88806L8.56125 8.16328C11.0149 5.86294 14.2453 4.57284 17.7188 4.50647V5.62753C14.4585 5.68997 11.4846 6.84 9.28603 8.88806ZM18.2812 5.62781V4.50675C21.7564 4.57341 24.9868 5.8635 27.439 8.16356L26.7145 8.88806C24.518 6.84084 21.5435 5.69053 18.2812 5.62781ZM27.1164 9.28125L27.8412 8.55647C30.3173 11.0737 31.707 14.3058 31.781 17.7188H30.6534C30.5834 14.5291 29.3358 11.5529 27.1164 9.28125ZM27.8412 27.4432L27.1164 26.7185C29.3363 24.4457 30.5837 21.4698 30.6532 18.2812H31.781C31.7087 21.6906 30.3187 24.9235 27.8412 27.4432Z" fill="#3A322B"/>
</g>
<defs>
<linearGradient id="paint0_linear_5_2908" x1="0.5625" y1="18" x2="35.4375" y2="18" gradientUnits="userSpaceOnUse">
<stop offset="0.049" stop-color="#F47E3E"/>
<stop offset="1" stop-color="#EB5C43"/>
</linearGradient>
<linearGradient id="paint1_linear_5_2908" x1="18" y1="4.40634" x2="18" y2="50.1874" gradientUnits="userSpaceOnUse">
<stop stop-color="#F1F2F2"/>
<stop offset="1" stop-color="#E6E7E8"/>
</linearGradient>
<linearGradient id="paint2_linear_5_2908" x1="5.48943" y1="14.9878" x2="9.4663" y2="7.78275" gradientUnits="userSpaceOnUse">
<stop offset="0.044" stop-color="#F8D0C8"/>
<stop offset="1" stop-color="#F3B4A9"/>
</linearGradient>
<linearGradient id="paint3_linear_5_2908" x1="9.10294" y1="8.02547" x2="20.4086" y2="3.55894" gradientUnits="userSpaceOnUse">
<stop offset="0.228" stop-color="#F3B4A9"/>
<stop offset="1" stop-color="#EE9180"/>
</linearGradient>
<linearGradient id="paint4_linear_5_2908" x1="18" y1="6.75" x2="27.8438" y2="6.75" gradientUnits="userSpaceOnUse">
<stop stop-color="#EE9180"/>
<stop offset="1" stop-color="#E55B42"/>
</linearGradient>
<linearGradient id="paint5_linear_5_2908" x1="28.0868" y1="9.08437" x2="31.5582" y2="17.7458" gradientUnits="userSpaceOnUse">
<stop stop-color="#E86C55"/>
<stop offset="1" stop-color="#E2472B"/>
</linearGradient>
<linearGradient id="paint6_linear_5_2908" x1="31.7886" y1="18.3884" x2="27.5794" y2="27.0174" gradientUnits="userSpaceOnUse">
<stop stop-color="#E2472B"/>
<stop offset="1" stop-color="#AA3520"/>
</linearGradient>
<linearGradient id="paint7_linear_5_2908" x1="18" y1="24.4688" x2="18" y2="38.5377" gradientUnits="userSpaceOnUse">
<stop stop-color="#50A8D2"/>
<stop offset="1" stop-color="#198DC4"/>
</linearGradient>
<linearGradient id="paint8_linear_5_2908" x1="11.8293" y1="19.8959" x2="26.4351" y2="14.2161" gradientUnits="userSpaceOnUse">
<stop stop-color="#CC484B"/>
<stop offset="0.967" stop-color="#E75F43"/>
</linearGradient>
<linearGradient id="paint9_linear_5_2908" x1="16.0312" y1="18" x2="19.9688" y2="18" gradientUnits="userSpaceOnUse">
<stop offset="0.049" stop-color="#F47E3E"/>
<stop offset="1" stop-color="#EB5C43"/>
</linearGradient>
<linearGradient id="paint10_linear_5_2908" x1="3.92624" y1="22.9219" x2="9.2984" y2="22.9219" gradientUnits="userSpaceOnUse">
<stop offset="0.044" stop-color="#F8D0C8"/>
<stop offset="1" stop-color="#F3B4A9"/>
</linearGradient>
<clipPath id="clip0_5_2908">
<rect width="36" height="36" fill="white"/>
</clipPath>
</defs>
</svg>
