<svg width="36" height="36" viewBox="0 0 36 36" fill="none" xmlns="http://www.w3.org/2000/svg">
<path d="M23.3438 25.5938C23.24 25.5189 22.903 25.3572 22.7813 25.3125C18.8845 23.0127 20.5886 13.6572 20.8125 10.6875H15.1875C15.4336 13.7002 17.1101 23.083 13.2188 25.3125C13.0936 25.3575 12.7623 25.517 12.6563 25.5938C12.4809 25.724 12.3386 25.8938 12.2409 26.0892C12.1432 26.2846 12.0928 26.5003 12.0938 26.7188V32.9062C12.0938 33.6797 12.7266 34.3125 13.5 34.3125H14.625C15.3062 34.9844 16.5434 35.4375 18 35.4375C19.4566 35.4375 20.6938 34.9844 21.375 34.3125H22.5C23.2735 34.3125 23.9063 33.6797 23.9063 32.9062V26.7188C23.9073 26.5003 23.8569 26.2846 23.7592 26.0892C23.6614 25.8938 23.5191 25.724 23.3438 25.5938Z" fill="url(#paint0_linear_5_2886)"/>
<path d="M18.8438 23.3438H17.1562C17.0016 23.3438 16.875 23.2172 16.875 23.0625V12.9375C16.875 12.7828 17.0016 12.6562 17.1562 12.6562H18.8438C18.9984 12.6562 19.125 12.7828 19.125 12.9375V23.0625C19.125 23.2172 18.9984 23.3438 18.8438 23.3438Z" fill="url(#paint1_linear_5_2886)"/>
<path d="M24.1875 1.40625C22.4972 0.855 20.3434 0.5625 18 0.5625C15.6566 0.5625 13.5028 0.855 11.8125 1.40625V13.2061C11.8125 13.3709 11.936 13.5 12.0938 13.5H13.2188C13.3765 13.5 13.5 13.3709 13.5 13.2061V11.8125C13.5 11.6477 13.6235 11.5312 13.7812 11.5312H22.2188C22.3765 11.5312 22.5 11.6477 22.5 11.8125V13.2061C22.5 13.3709 22.6235 13.5 22.7812 13.5H23.9062C24.064 13.5 24.1875 13.3709 24.1875 13.2061V1.40625Z" fill="url(#paint2_linear_5_2886)"/>
<path d="M21.375 11.5312H14.625V5.625C14.625 5.55041 14.6546 5.47887 14.7074 5.42613C14.7601 5.37338 14.8317 5.34375 14.9062 5.34375H21.0938C21.1683 5.34375 21.2399 5.37338 21.2926 5.42613C21.3454 5.47887 21.375 5.55041 21.375 5.625V11.5312Z" fill="url(#paint3_linear_5_2886)"/>
<path d="M18 10.4062C19.0873 10.4062 19.9688 9.52481 19.9688 8.4375C19.9688 7.35019 19.0873 6.46875 18 6.46875C16.9127 6.46875 16.0312 7.35019 16.0312 8.4375C16.0312 9.52481 16.9127 10.4062 18 10.4062Z" fill="url(#paint4_radial_5_2886)"/>
<path d="M18 9.28125C18.466 9.28125 18.8438 8.90349 18.8438 8.4375C18.8438 7.97151 18.466 7.59375 18 7.59375C17.534 7.59375 17.1562 7.97151 17.1562 8.4375C17.1562 8.90349 17.534 9.28125 18 9.28125Z" fill="url(#paint5_linear_5_2886)"/>
<path d="M18 34.0312C20.6406 34.0312 22.7812 31.8906 22.7812 29.25C22.7812 26.6094 20.6406 24.4688 18 24.4688C15.3594 24.4688 13.2188 26.6094 13.2188 29.25C13.2188 31.8906 15.3594 34.0312 18 34.0312Z" fill="url(#paint6_linear_5_2886)"/>
<path d="M18 32.9062C20.0193 32.9062 21.6562 31.2693 21.6562 29.25C21.6562 27.2307 20.0193 25.5938 18 25.5938C15.9807 25.5938 14.3438 27.2307 14.3438 29.25C14.3438 31.2693 15.9807 32.9062 18 32.9062Z" fill="url(#paint7_radial_5_2886)"/>
<path d="M18 31.7812C19.398 31.7812 20.5312 30.648 20.5312 29.25C20.5312 27.852 19.398 26.7188 18 26.7188C16.602 26.7188 15.4688 27.852 15.4688 29.25C15.4688 30.648 16.602 31.7812 18 31.7812Z" fill="url(#paint8_linear_5_2886)"/>
<path d="M17.1562 23.625H18.8438C19.154 23.625 19.4062 23.3727 19.4062 23.0625V12.9375C19.4062 12.6273 19.154 12.375 18.8438 12.375H17.1562C16.846 12.375 16.5938 12.6273 16.5938 12.9375V23.0625C16.5938 23.3727 16.846 23.625 17.1562 23.625ZM17.1562 12.9375H18.8438L18.8429 23.0625H17.1562V12.9375Z" fill="#3A322B"/>
<path d="M24.275 1.13878C22.5543 0.577687 20.3847 0.28125 18 0.28125C15.6153 0.28125 13.4457 0.577687 11.725 1.13878C11.6687 1.15723 11.6195 1.19303 11.5847 1.24107C11.5499 1.28911 11.5312 1.34693 11.5313 1.40625V13.2061C11.5313 13.5287 11.7785 13.7812 12.0938 13.7812H13.2188C13.534 13.7812 13.7812 13.5287 13.7812 13.2061V11.8125H15.0196L15.0623 12.1953C15.4949 16.0411 16.2993 23.1927 13.0984 25.0574C12.9412 25.1182 12.6169 25.2754 12.4886 25.3682C12.2775 25.5242 12.1063 25.7278 11.9888 25.9625C11.8713 26.1972 11.8109 26.4563 11.8125 26.7188V32.9062C11.8125 33.8369 12.5693 34.5938 13.5 34.5938H14.5133C15.2904 35.3 16.5822 35.7188 18 35.7188C19.4178 35.7188 20.7098 35.3 21.4867 34.5938H22.5C23.4307 34.5938 24.1875 33.8369 24.1875 32.9062V26.7188C24.189 26.4557 24.1282 26.1961 24.0103 25.961C23.8924 25.7259 23.7205 25.522 23.5088 25.3659C23.3803 25.2728 23.0518 25.1168 22.9047 25.0585C19.7246 23.1505 20.5104 16.081 20.9329 12.2791L20.9846 11.8125H22.2188V13.2061C22.2188 13.5287 22.466 13.7812 22.7812 13.7812H23.9062C24.2215 13.7812 24.4688 13.5287 24.4688 13.2061V1.40625C24.4688 1.34693 24.4501 1.28911 24.4153 1.24107C24.3805 1.19303 24.3313 1.15723 24.275 1.13878ZM18 0.84375C20.2365 0.84375 22.2727 1.10897 23.9062 1.61212V1.6875H12.0938V1.61212C13.7273 1.10897 15.7635 0.84375 18 0.84375ZM12.0938 2.8125V2.25H23.9062V2.8125H12.0938ZM23.9062 3.375V3.9375H12.0938V3.375H23.9062ZM21.0938 11.25H14.9062V5.625H21.0938V11.25ZM22.6384 25.5547C22.6529 25.5634 22.6683 25.5707 22.6842 25.5766C22.7959 25.6177 23.1055 25.7684 23.1758 25.8193C23.3162 25.9233 23.43 26.059 23.5081 26.2153C23.5861 26.3716 23.6262 26.5441 23.625 26.7188V32.9062C23.625 33.5267 23.1204 34.0312 22.5 34.0312H21.375C21.301 34.0312 21.2302 34.0605 21.1776 34.1123C20.5147 34.7659 19.3269 35.1562 18 35.1562C16.6731 35.1562 15.4853 34.7659 14.8224 34.1123C14.7698 34.0604 14.6989 34.0313 14.625 34.0312H13.5C12.8796 34.0312 12.375 33.5267 12.375 32.9062V26.7188C12.375 26.3596 12.5387 26.0319 12.8211 25.8218C12.8987 25.7656 13.2022 25.6174 13.3141 25.5772C13.3296 25.5715 13.3442 25.5648 13.3585 25.5566C16.9034 23.5257 16.0692 16.1142 15.6212 12.1326L15.5855 11.8125H20.4187L20.374 12.2169C19.9364 16.153 19.1219 23.4796 22.6384 25.5547ZM22.7812 13.2061V11.8125C22.7812 11.4969 22.534 11.25 22.2188 11.25H21.6562V5.625C21.6562 5.31478 21.404 5.0625 21.0938 5.0625H14.9062C14.596 5.0625 14.3438 5.31478 14.3438 5.625V11.25H13.7812C13.466 11.25 13.2188 11.4969 13.2188 11.8125V13.2188L12.0938 13.2061V4.5H23.9062V13.2188L22.7812 13.2061Z" fill="#3A322B"/>
<path d="M18 10.6875C19.2406 10.6875 20.25 9.67809 20.25 8.4375C20.25 7.19691 19.2406 6.1875 18 6.1875C16.7594 6.1875 15.75 7.19691 15.75 8.4375C15.75 9.67809 16.7594 10.6875 18 10.6875ZM18 6.75C18.9307 6.75 19.6875 7.50684 19.6875 8.4375C19.6875 9.36816 18.9307 10.125 18 10.125C17.0693 10.125 16.3125 9.36816 16.3125 8.4375C16.3125 7.50684 17.0693 6.75 18 6.75Z" fill="#3A322B"/>
<path d="M18 9.5625C18.6204 9.5625 19.125 9.05794 19.125 8.4375C19.125 7.81706 18.6204 7.3125 18 7.3125C17.3796 7.3125 16.875 7.81706 16.875 8.4375C16.875 9.05794 17.3796 9.5625 18 9.5625ZM18 7.875C18.3102 7.875 18.5625 8.12728 18.5625 8.4375C18.5625 8.74772 18.3102 9 18 9C17.6898 9 17.4375 8.74772 17.4375 8.4375C17.4375 8.12728 17.6898 7.875 18 7.875ZM12.9375 29.25C12.9375 32.0414 15.2086 34.3125 18 34.3125C20.7914 34.3125 23.0625 32.0414 23.0625 29.25C23.0625 26.4586 20.7914 24.1875 18 24.1875C15.2086 24.1875 12.9375 26.4586 12.9375 29.25ZM22.5 29.25C22.5 31.7312 20.4812 33.75 18 33.75C15.5188 33.75 13.5 31.7312 13.5 29.25C13.5 26.7688 15.5188 24.75 18 24.75C20.4812 24.75 22.5 26.7688 22.5 29.25Z" fill="#3A322B"/>
<path d="M14.0625 29.25C14.0625 31.4212 15.8288 33.1875 18 33.1875C20.1712 33.1875 21.9375 31.4212 21.9375 29.25C21.9375 27.0788 20.1712 25.3125 18 25.3125C15.8288 25.3125 14.0625 27.0788 14.0625 29.25ZM21.375 29.25C21.375 31.111 19.861 32.625 18 32.625C16.139 32.625 14.625 31.111 14.625 29.25C14.625 27.389 16.139 25.875 18 25.875C19.861 25.875 21.375 27.389 21.375 29.25Z" fill="#3A322B"/>
<path d="M15.1875 29.25C15.1875 30.8008 16.4492 32.0625 18 32.0625C19.5508 32.0625 20.8125 30.8008 20.8125 29.25C20.8125 27.6992 19.5508 26.4375 18 26.4375C16.4492 26.4375 15.1875 27.6992 15.1875 29.25ZM20.25 29.25C20.25 30.4906 19.2406 31.5 18 31.5C16.7594 31.5 15.75 30.4906 15.75 29.25C15.75 28.0094 16.7594 27 18 27C19.2406 27 20.25 28.0094 20.25 29.25Z" fill="#3A322B"/>
<defs>
<linearGradient id="paint0_linear_5_2886" x1="18" y1="52.5001" x2="18" y2="-9.03459" gradientUnits="userSpaceOnUse">
<stop stop-color="#DADCD9"/>
<stop offset="1" stop-color="#9AA098"/>
</linearGradient>
<linearGradient id="paint1_linear_5_2886" x1="18" y1="13.1192" x2="18" y2="37.2952" gradientUnits="userSpaceOnUse">
<stop stop-color="#FFE886"/>
<stop offset="1" stop-color="#FFC96A"/>
</linearGradient>
<linearGradient id="paint2_linear_5_2886" x1="18" y1="24.6563" x2="18" y2="-10.51" gradientUnits="userSpaceOnUse">
<stop stop-color="#DADCD9"/>
<stop offset="1" stop-color="#9AA098"/>
</linearGradient>
<linearGradient id="paint3_linear_5_2886" x1="14.625" y1="8.4375" x2="21.375" y2="8.4375" gradientUnits="userSpaceOnUse">
<stop stop-color="#F1F2F2"/>
<stop offset="1" stop-color="#E6E7E8"/>
</linearGradient>
<radialGradient id="paint4_radial_5_2886" cx="0" cy="0" r="1" gradientUnits="userSpaceOnUse" gradientTransform="translate(18 8.4375) scale(6.09384)">
<stop stop-color="#DADCD9"/>
<stop offset="1" stop-color="#9AA098"/>
</radialGradient>
<linearGradient id="paint5_linear_5_2886" x1="17.1562" y1="8.4375" x2="18.8438" y2="8.4375" gradientUnits="userSpaceOnUse">
<stop stop-color="#F1F2F2"/>
<stop offset="1" stop-color="#E6E7E8"/>
</linearGradient>
<linearGradient id="paint6_linear_5_2886" x1="13.2188" y1="29.25" x2="22.7812" y2="29.25" gradientUnits="userSpaceOnUse">
<stop stop-color="#F1F2F2"/>
<stop offset="1" stop-color="#E6E7E8"/>
</linearGradient>
<radialGradient id="paint7_radial_5_2886" cx="0" cy="0" r="1" gradientUnits="userSpaceOnUse" gradientTransform="translate(18 29.25) scale(8.06372)">
<stop stop-color="#DADCD9"/>
<stop offset="1" stop-color="#9AA098"/>
</radialGradient>
<linearGradient id="paint8_linear_5_2886" x1="15.4688" y1="29.25" x2="20.5312" y2="29.25" gradientUnits="userSpaceOnUse">
<stop stop-color="#F1F2F2"/>
<stop offset="1" stop-color="#E6E7E8"/>
</linearGradient>
</defs>
</svg>
