<svg width="36" height="36" viewBox="0 0 36 36" fill="none" xmlns="http://www.w3.org/2000/svg">
<rect width="36" height="36" fill="#1E1E1E"/>
<g id="21">
<rect width="1920" height="467" transform="translate(-970 -44)" fill="white"/>
<g id="Group 10">
<g id="Frame">
<g id="Group">
<path id="Vector" d="M5.0625 27.2812H9V16.5938H5.0625V27.2812Z" fill="url(#paint0_linear_5_2821)"/>
<path id="Vector_2" d="M1.125 16.5982L3.9375 14.3488C4.80994 13.7126 5.63147 14.2138 5.625 15.1875V28.6875C5.63203 29.6671 4.84678 30.1641 3.9375 29.5312L1.125 26.7187C0.626906 26.3191 0.5625 25.9163 0.5625 25.5937V17.6923C0.5625 17.3697 0.626906 16.9979 1.125 16.5982Z" fill="url(#paint1_linear_5_2821)"/>
<path id="Vector_3" d="M28.9688 21.0938H34.5938V15.1875H28.9688V21.0938Z" fill="url(#paint2_linear_5_2821)"/>
<path id="Vector_4" d="M15.75 8.71875H23.0625V5.90625H15.75V8.71875Z" fill="url(#paint3_linear_5_2821)"/>
<path id="Vector_5" d="M34.0312 22.7812H34.5938C35.0578 22.7812 35.4375 22.4016 35.4375 21.9375V14.0625C35.4375 13.5984 35.0578 13.2188 34.5938 13.2188H34.0312C33.5672 13.2188 33.1875 13.5984 33.1875 14.0625V21.9375C33.1875 22.4016 33.5672 22.7812 34.0312 22.7812Z" fill="url(#paint4_linear_5_2821)"/>
<path id="Vector_6" d="M14.3438 6.75H24.4688C24.9328 6.75 25.3125 6.37031 25.3125 5.90625V5.34375C25.3125 4.87969 24.9328 4.5 24.4688 4.5H14.3438C13.8797 4.5 13.5 4.87969 13.5 5.34375V5.90625C13.5 6.37031 13.8797 6.75 14.3438 6.75Z" fill="url(#paint5_linear_5_2821)"/>
<path id="Vector_7" d="M8.71875 13.5H11.5312V9C11.5312 8.53594 11.9109 8.15625 12.375 8.15625H26.7188C27.1828 8.15625 27.5625 8.53594 27.5625 9V11.5312H30.375C30.8391 11.5312 31.2188 11.9109 31.2188 12.375V23.9062C31.2188 24.3703 30.8391 24.75 30.375 24.75H27L22.5 30.0938H8.71875C8.25469 30.0938 7.875 29.7141 7.875 29.25V14.3438C7.875 13.8797 8.25469 13.5 8.71875 13.5Z" fill="url(#paint6_linear_5_2821)"/>
<path id="Vector_8" d="M21.6562 16.3125V21.0938C21.6562 21.2451 21.7862 21.375 21.9375 21.375H22.5C22.6492 21.375 22.7923 21.4343 22.8977 21.5398C23.0032 21.6452 23.0625 21.7883 23.0625 21.9375C23.0625 22.0867 23.0032 22.2298 22.8977 22.3352C22.7923 22.4407 22.6492 22.5 22.5 22.5H21.375C20.9239 22.5 20.5312 22.131 20.5312 21.6799V16.3125C20.5312 16.1633 20.5905 16.0202 20.696 15.9148C20.8015 15.8093 20.9446 15.75 21.0938 15.75C21.2429 15.75 21.386 15.8093 21.4915 15.9148C21.597 16.0202 21.6562 16.1633 21.6562 16.3125Z" fill="url(#paint7_linear_5_2821)"/>
<path id="Vector_9" d="M18 16.3125V21.0938C18 21.2451 18.1299 21.375 18.2812 21.375H18.8438C18.9929 21.375 19.136 21.4343 19.2415 21.5398C19.347 21.6452 19.4062 21.7883 19.4062 21.9375C19.4062 22.0867 19.347 22.2298 19.2415 22.3352C19.136 22.4407 18.9929 22.5 18.8438 22.5H17.7188C17.2676 22.5 16.875 22.131 16.875 21.6799V16.3125C16.875 16.1633 16.9343 16.0202 17.0398 15.9148C17.1452 15.8093 17.2883 15.75 17.4375 15.75C17.5867 15.75 17.7298 15.8093 17.8352 15.9148C17.9407 16.0202 18 16.1633 18 16.3125Z" fill="url(#paint8_linear_5_2821)"/>
<path id="Vector_10" d="M14.3438 16.3125V21.0938C14.3438 21.2451 14.4737 21.375 14.625 21.375H15.1875C15.3367 21.375 15.4798 21.4343 15.5852 21.5398C15.6907 21.6452 15.75 21.7883 15.75 21.9375C15.75 22.0867 15.6907 22.2298 15.5852 22.3352C15.4798 22.4407 15.3367 22.5 15.1875 22.5H14.0625C13.6114 22.5 13.2188 22.131 13.2188 21.6799V16.3125C13.2188 16.1633 13.278 16.0202 13.3835 15.9148C13.489 15.8093 13.6321 15.75 13.7812 15.75C13.9304 15.75 14.0735 15.8093 14.179 15.9148C14.2845 16.0202 14.3438 16.1633 14.3438 16.3125Z" fill="url(#paint9_linear_5_2821)"/>
<path id="Vector_11" d="M10.6875 16.3125V21.0938C10.6875 21.2451 10.8174 21.375 10.9688 21.375H11.5312C11.6804 21.375 11.8235 21.4343 11.929 21.5398C12.0345 21.6452 12.0938 21.7883 12.0938 21.9375C12.0938 22.0867 12.0345 22.2298 11.929 22.3352C11.8235 22.4407 11.6804 22.5 11.5312 22.5H10.4062C9.95513 22.5 9.5625 22.131 9.5625 21.6799V16.3125C9.5625 16.1633 9.62176 16.0202 9.72725 15.9148C9.83274 15.8093 9.97582 15.75 10.125 15.75C10.2742 15.75 10.4173 15.8093 10.5227 15.9148C10.6282 16.0202 10.6875 16.1633 10.6875 16.3125Z" fill="url(#paint10_linear_5_2821)"/>
<path id="Vector_12" d="M9.5625 17.1562H22.5C22.8094 17.1562 23.0625 16.9031 23.0625 16.5938V15.75C23.0625 15.4406 22.8094 15.1875 22.5 15.1875H9.5625C9.25312 15.1875 9 15.4406 9 15.75V16.5938C9 16.9031 9.25312 17.1562 9.5625 17.1562Z" fill="url(#paint11_linear_5_2821)"/>
<path id="Vector_13" d="M27.2812 23.625C28.8346 23.625 30.0938 22.3658 30.0938 20.8125C30.0938 19.2592 28.8346 18 27.2812 18C25.7279 18 24.4688 19.2592 24.4688 20.8125C24.4688 22.3658 25.7279 23.625 27.2812 23.625Z" fill="url(#paint12_linear_5_2821)"/>
<path id="Vector_14" d="M27.2812 21.9375C27.9026 21.9375 28.4062 21.4338 28.4062 20.8125C28.4062 20.1912 27.9026 19.6875 27.2812 19.6875C26.6599 19.6875 26.1562 20.1912 26.1562 20.8125C26.1562 21.4338 26.6599 21.9375 27.2812 21.9375Z" fill="url(#paint13_linear_5_2821)"/>
<path id="Vector_15" d="M27.2812 16.0312C28.2132 16.0312 28.9688 15.2757 28.9688 14.3438C28.9688 13.4118 28.2132 12.6562 27.2812 12.6562C26.3493 12.6562 25.5938 13.4118 25.5938 14.3438C25.5938 15.2757 26.3493 16.0312 27.2812 16.0312Z" fill="url(#paint14_linear_5_2821)"/>
<path id="Vector_16" d="M27.2812 14.9062C27.5919 14.9062 27.8438 14.6544 27.8438 14.3438C27.8438 14.0331 27.5919 13.7812 27.2812 13.7812C26.9706 13.7812 26.7188 14.0331 26.7188 14.3438C26.7188 14.6544 26.9706 14.9062 27.2812 14.9062Z" fill="url(#paint15_linear_5_2821)"/>
<path id="Vector_17" d="M14.625 12.6562C15.557 12.6562 16.3125 11.9007 16.3125 10.9688C16.3125 10.0368 15.557 9.28125 14.625 9.28125C13.693 9.28125 12.9375 10.0368 12.9375 10.9688C12.9375 11.9007 13.693 12.6562 14.625 12.6562Z" fill="url(#paint16_linear_5_2821)"/>
<path id="Vector_18" d="M24.4688 12.6562C25.4007 12.6562 26.1562 11.9007 26.1562 10.9688C26.1562 10.0368 25.4007 9.28125 24.4688 9.28125C23.5368 9.28125 22.7812 10.0368 22.7812 10.9688C22.7812 11.9007 23.5368 12.6562 24.4688 12.6562Z" fill="url(#paint17_linear_5_2821)"/>
<path id="Vector_19" d="M7.875 29.25C7.875 29.7141 8.25469 30.0938 8.71875 30.0938H22.5L23.9212 28.4062H7.875V29.25Z" fill="url(#paint18_linear_5_2821)"/>
<g id="Group_2">
<path id="Vector_20" d="M34.5938 12.9375H34.0312C33.4108 12.9375 32.9062 13.4421 32.9062 14.0625V14.9062H31.5V12.375C31.5 11.7546 30.9954 11.25 30.375 11.25H27.8438V9C27.8438 8.37956 27.3392 7.875 26.7188 7.875H23.3438V7.03125H24.4688C25.0892 7.03125 25.5938 6.52669 25.5938 5.90625V5.34375C25.5938 4.72331 25.0892 4.21875 24.4688 4.21875H14.3438C13.7233 4.21875 13.2188 4.72331 13.2188 5.34375V5.90625C13.2188 6.52669 13.7233 7.03125 14.3438 7.03125H15.4688V7.875H12.375C11.7546 7.875 11.25 8.37956 11.25 9V13.2188H8.71875C8.09831 13.2188 7.59375 13.7233 7.59375 14.3438V16.3125H5.90625V15.1895C5.90991 14.607 5.65594 14.1278 5.22647 13.9075C4.7925 13.6859 4.26234 13.7635 3.76172 14.1292L0.949219 16.3783L0.948938 16.3789C0.357187 16.8539 0.28125 17.3303 0.28125 17.6923V25.5938C0.28125 25.9386 0.349594 26.4507 0.936844 26.928L3.73866 29.7301C3.75042 29.7419 3.76322 29.7526 3.77691 29.7622C4.09303 29.9821 4.41956 30.0943 4.72331 30.0943C4.90894 30.0943 5.08641 30.0524 5.24756 29.9675C5.66409 29.7481 5.91047 29.2688 5.90625 28.6875V27.5625H7.59375V29.25C7.59375 29.8704 8.09831 30.375 8.71875 30.375H22.5C22.583 30.375 22.6617 30.3384 22.7152 30.2752L27.1308 25.0312H30.375C30.9954 25.0312 31.5 24.5267 31.5 23.9062V21.375H32.9062V21.9375C32.9062 22.5579 33.4108 23.0625 34.0312 23.0625H34.5938C35.2142 23.0625 35.7188 22.5579 35.7188 21.9375V14.0625C35.7188 13.4421 35.2142 12.9375 34.5938 12.9375ZM5.34375 28.6895C5.34628 29.0585 5.21241 29.3504 4.98544 29.4697C4.75734 29.59 4.44206 29.5329 4.11834 29.3138L1.32413 26.5196C1.3168 26.5125 1.3092 26.5056 1.30134 26.4991C0.899156 26.1768 0.84375 25.8736 0.84375 25.5938V17.6923C0.84375 17.4468 0.878906 17.1565 1.30078 16.8179L4.10344 14.5761C4.41675 14.3477 4.73259 14.2864 4.97025 14.4082C5.2065 14.5294 5.346 14.8199 5.34375 15.1875V28.6895ZM13.7812 5.90625V5.34375C13.7812 5.03353 14.0335 4.78125 14.3438 4.78125H24.4688C24.779 4.78125 25.0312 5.03353 25.0312 5.34375V5.90625C25.0312 6.21647 24.779 6.46875 24.4688 6.46875H14.3438C14.0335 6.46875 13.7812 6.21647 13.7812 5.90625ZM16.0312 7.03125H22.7812V7.875H16.0312V7.03125ZM5.90625 27V16.875H7.59375V27H5.90625ZM22.3692 29.8125H8.71875C8.40853 29.8125 8.15625 29.5602 8.15625 29.25V28.6875H23.3165L22.3692 29.8125ZM30.9375 23.9062C30.9375 24.2165 30.6852 24.4688 30.375 24.4688H27C26.917 24.4688 26.8383 24.5053 26.7848 24.5686L23.7901 28.125H8.15625V14.3438C8.15625 14.0335 8.40853 13.7812 8.71875 13.7812H11.5312C11.6058 13.7812 11.6774 13.7516 11.7301 13.6989C11.7829 13.6461 11.8125 13.5746 11.8125 13.5V9C11.8125 8.68978 12.0648 8.4375 12.375 8.4375H26.7188C27.029 8.4375 27.2812 8.68978 27.2812 9V11.5312C27.2812 11.6058 27.3109 11.6774 27.3636 11.7301C27.4164 11.7829 27.4879 11.8125 27.5625 11.8125H30.375C30.6852 11.8125 30.9375 12.0648 30.9375 12.375V23.9062ZM31.5 20.8125V15.4688H32.9062V20.8125H31.5ZM35.1562 21.9375C35.1562 22.2477 34.904 22.5 34.5938 22.5H34.0312C33.721 22.5 33.4688 22.2477 33.4688 21.9375V14.0625C33.4688 13.7523 33.721 13.5 34.0312 13.5H34.5938C34.904 13.5 35.1562 13.7523 35.1562 14.0625V21.9375Z" fill="#3A322B"/>
<path id="Vector_21" d="M22.5 14.9062H9.5625C9.09731 14.9062 8.71875 15.2848 8.71875 15.75V16.5938C8.71875 16.9599 8.95472 17.2693 9.28125 17.3858V21.6799C9.28125 22.277 9.7965 22.7812 10.4062 22.7812H11.5312C11.9964 22.7812 12.375 22.4027 12.375 21.9375C12.375 21.4723 11.9964 21.0938 11.5312 21.0938H10.9688V17.4375H12.9375V21.6799C12.9375 22.277 13.4528 22.7812 14.0625 22.7812H15.1875C15.6527 22.7812 16.0312 22.4027 16.0312 21.9375C16.0312 21.4723 15.6527 21.0938 15.1875 21.0938H14.625V17.4375H16.5938V21.6799C16.5938 22.277 17.109 22.7812 17.7188 22.7812H18.8438C19.3089 22.7812 19.6875 22.4027 19.6875 21.9375C19.6875 21.4723 19.3089 21.0938 18.8438 21.0938H18.2812V17.4375H20.25V21.6799C20.25 22.277 20.7653 22.7812 21.375 22.7812H22.5C22.9652 22.7812 23.3438 22.4027 23.3438 21.9375C23.3438 21.4723 22.9652 21.0938 22.5 21.0938H21.9375V17.4375H22.5C22.9652 17.4375 23.3438 17.0589 23.3438 16.5938V15.75C23.3438 15.2848 22.9652 14.9062 22.5 14.9062ZM10.9688 21.6562H11.5312C11.6037 21.6595 11.672 21.6905 11.7221 21.7429C11.7722 21.7953 11.8002 21.865 11.8002 21.9375C11.8002 22.01 11.7722 22.0797 11.7221 22.1321C11.672 22.1845 11.6037 22.2155 11.5312 22.2188H10.4062C10.1067 22.2188 9.84375 21.9668 9.84375 21.6799V17.4375H10.4062V21.0938C10.4062 21.3986 10.6639 21.6562 10.9688 21.6562ZM14.625 21.6562H15.1875C15.2599 21.6595 15.3283 21.6905 15.3784 21.7429C15.4285 21.7953 15.4565 21.865 15.4565 21.9375C15.4565 22.01 15.4285 22.0797 15.3784 22.1321C15.3283 22.1845 15.2599 22.2155 15.1875 22.2188H14.0625C13.763 22.2188 13.5 21.9668 13.5 21.6799V17.4375H14.0625V21.0938C14.0625 21.3986 14.3201 21.6562 14.625 21.6562ZM18.2812 21.6562H18.8438C18.9162 21.6595 18.9845 21.6905 19.0346 21.7429C19.0847 21.7953 19.1127 21.865 19.1127 21.9375C19.1127 22.01 19.0847 22.0797 19.0346 22.1321C18.9845 22.1845 18.9162 22.2155 18.8438 22.2188H17.7188C17.4192 22.2188 17.1562 21.9668 17.1562 21.6799V17.4375H17.7188V21.0938C17.7188 21.3986 17.9764 21.6562 18.2812 21.6562ZM21.9375 21.6562H22.5C22.5724 21.6595 22.6408 21.6905 22.6909 21.7429C22.741 21.7953 22.769 21.865 22.769 21.9375C22.769 22.01 22.741 22.0797 22.6909 22.1321C22.6408 22.1845 22.5724 22.2155 22.5 22.2188H21.375C21.0755 22.2188 20.8125 21.9668 20.8125 21.6799V17.4375H21.375V21.0938C21.375 21.3986 21.6326 21.6562 21.9375 21.6562ZM22.7812 16.5938C22.7812 16.749 22.655 16.875 22.5 16.875H9.5625C9.40753 16.875 9.28125 16.749 9.28125 16.5938V15.75C9.28125 15.5947 9.40753 15.4688 9.5625 15.4688H22.5C22.655 15.4688 22.7812 15.5947 22.7812 15.75V16.5938ZM27.2812 19.4062C26.5058 19.4062 25.875 20.0371 25.875 20.8125C25.875 21.5879 26.5058 22.2188 27.2812 22.2188C28.0567 22.2188 28.6875 21.5879 28.6875 20.8125C28.6875 20.0371 28.0567 19.4062 27.2812 19.4062ZM27.2812 21.6562C26.8161 21.6562 26.4375 21.2777 26.4375 20.8125C26.4375 20.3473 26.8161 19.9688 27.2812 19.9688C27.7464 19.9688 28.125 20.3473 28.125 20.8125C28.125 21.2777 27.7464 21.6562 27.2812 21.6562ZM27.2812 15.1875C27.7464 15.1875 28.125 14.8089 28.125 14.3438C28.125 13.8786 27.7464 13.5 27.2812 13.5C26.8161 13.5 26.4375 13.8786 26.4375 14.3438C26.4375 14.8089 26.8161 15.1875 27.2812 15.1875ZM27.2812 14.0625C27.337 14.0624 27.3914 14.0789 27.4378 14.1098C27.4841 14.1407 27.5202 14.1847 27.5416 14.2362C27.5629 14.2876 27.5685 14.3442 27.5577 14.3989C27.5468 14.4535 27.52 14.5037 27.4806 14.5431C27.4412 14.5825 27.391 14.6093 27.3364 14.6202C27.2817 14.631 27.2251 14.6254 27.1737 14.6041C27.1222 14.5827 27.0782 14.5466 27.0473 14.5003C27.0164 14.4539 26.9999 14.3995 27 14.3438C27 14.1885 27.1263 14.0625 27.2812 14.0625ZM14.625 12.9375C15.7106 12.9375 16.5938 12.0541 16.5938 10.9688C16.5938 9.88341 15.7106 9 14.625 9C13.5394 9 12.6562 9.88341 12.6562 10.9688C12.6562 12.0541 13.5394 12.9375 14.625 12.9375ZM14.625 9.5625C15.4004 9.5625 16.0312 10.1933 16.0312 10.9688C16.0312 11.7442 15.4004 12.375 14.625 12.375C13.8496 12.375 13.2188 11.7442 13.2188 10.9688C13.2188 10.1933 13.8496 9.5625 14.625 9.5625ZM24.4688 12.9375C25.5544 12.9375 26.4375 12.0541 26.4375 10.9688C26.4375 9.88341 25.5544 9 24.4688 9C23.3831 9 22.5 9.88341 22.5 10.9688C22.5 12.0541 23.3831 12.9375 24.4688 12.9375ZM24.4688 9.5625C25.2442 9.5625 25.875 10.1933 25.875 10.9688C25.875 11.7442 25.2442 12.375 24.4688 12.375C23.6933 12.375 23.0625 11.7442 23.0625 10.9688C23.0625 10.1933 23.6933 9.5625 24.4688 9.5625Z" fill="#3A322B"/>
<path id="Vector_22" d="M23.7074 11.7301C23.7335 11.7563 23.7644 11.7771 23.7986 11.7913C23.8327 11.8055 23.8693 11.8128 23.9062 11.8128C23.9432 11.8128 23.9798 11.8055 24.0139 11.7913C24.0481 11.7771 24.079 11.7563 24.1051 11.7301L24.4688 11.3664L24.8324 11.7301C24.8585 11.7563 24.8894 11.7771 24.9236 11.7913C24.9577 11.8055 24.9943 11.8128 25.0312 11.8128C25.0682 11.8128 25.1048 11.8055 25.1389 11.7913C25.1731 11.7771 25.204 11.7563 25.2301 11.7301C25.2562 11.704 25.277 11.673 25.2911 11.6389C25.3053 11.6048 25.3126 11.5682 25.3126 11.5313C25.3126 11.4943 25.3053 11.4577 25.2911 11.4236C25.277 11.3895 25.2562 11.3585 25.2301 11.3324L24.8664 10.9688L25.2301 10.6051C25.2562 10.579 25.2769 10.548 25.2911 10.5139C25.3052 10.4797 25.3125 10.4432 25.3125 10.4063C25.3125 10.3693 25.3052 10.3328 25.2911 10.2986C25.2769 10.2645 25.2562 10.2335 25.2301 10.2074C25.204 10.1813 25.173 10.1606 25.1389 10.1465C25.1047 10.1323 25.0682 10.125 25.0312 10.125C24.9943 10.125 24.9578 10.1323 24.9236 10.1465C24.8895 10.1606 24.8585 10.1813 24.8324 10.2074L24.4688 10.5711L24.1051 10.2074C24.079 10.1813 24.048 10.1606 24.0139 10.1465C23.9797 10.1323 23.9432 10.125 23.9062 10.125C23.8693 10.125 23.8328 10.1323 23.7986 10.1465C23.7645 10.1606 23.7335 10.1813 23.7074 10.2074C23.6813 10.2335 23.6606 10.2645 23.6465 10.2986C23.6323 10.3328 23.625 10.3693 23.625 10.4063C23.625 10.4432 23.6323 10.4797 23.6465 10.5139C23.6606 10.548 23.6813 10.579 23.7074 10.6051L24.0711 10.9688L23.7074 11.3324C23.6813 11.3585 23.6605 11.3895 23.6464 11.4236C23.6322 11.4577 23.6249 11.4943 23.6249 11.5313C23.6249 11.5682 23.6322 11.6048 23.6464 11.6389C23.6605 11.673 23.6813 11.704 23.7074 11.7301ZM13.8637 11.7301C13.8897 11.7563 13.9207 11.7771 13.9548 11.7913C13.9889 11.8055 14.0255 11.8128 14.0625 11.8128C14.0995 11.8128 14.1361 11.8055 14.1702 11.7913C14.2043 11.7771 14.2353 11.7563 14.2613 11.7301L14.625 11.3664L14.9887 11.7301C15.0147 11.7563 15.0457 11.7771 15.0798 11.7913C15.1139 11.8055 15.1505 11.8128 15.1875 11.8128C15.2245 11.8128 15.2611 11.8055 15.2952 11.7913C15.3293 11.7771 15.3603 11.7563 15.3863 11.7301C15.4125 11.704 15.4332 11.673 15.4474 11.6389C15.4615 11.6048 15.4688 11.5682 15.4688 11.5313C15.4688 11.4943 15.4615 11.4577 15.4474 11.4236C15.4332 11.3895 15.4125 11.3585 15.3863 11.3324L15.0227 10.9688L15.3863 10.6051C15.4125 10.579 15.4332 10.548 15.4473 10.5139C15.4614 10.4797 15.4687 10.4432 15.4687 10.4063C15.4687 10.3693 15.4614 10.3328 15.4473 10.2986C15.4332 10.2645 15.4125 10.2335 15.3863 10.2074C15.3602 10.1813 15.3292 10.1606 15.2951 10.1465C15.261 10.1323 15.2244 10.125 15.1875 10.125C15.1506 10.125 15.114 10.1323 15.0799 10.1465C15.0458 10.1606 15.0148 10.1813 14.9887 10.2074L14.625 10.5711L14.2613 10.2074C14.2352 10.1813 14.2042 10.1606 14.1701 10.1465C14.136 10.1323 14.0994 10.125 14.0625 10.125C14.0256 10.125 13.989 10.1323 13.9549 10.1465C13.9208 10.1606 13.8898 10.1813 13.8637 10.2074C13.8375 10.2335 13.8168 10.2645 13.8027 10.2986C13.7886 10.3328 13.7813 10.3693 13.7813 10.4063C13.7813 10.4432 13.7886 10.4797 13.8027 10.5139C13.8168 10.548 13.8375 10.579 13.8637 10.6051L14.2273 10.9688L13.8637 11.3324C13.8375 11.3585 13.8168 11.3895 13.8026 11.4236C13.7885 11.4577 13.7812 11.4943 13.7812 11.5313C13.7812 11.5682 13.7885 11.6048 13.8026 11.6389C13.8168 11.673 13.8375 11.704 13.8637 11.7301ZM29.115 15.055C29.2011 14.8343 29.25 14.5949 29.25 14.3438C29.25 13.2584 28.3669 12.375 27.2812 12.375C26.1956 12.375 25.3125 13.2584 25.3125 14.3438C25.3125 14.5949 25.3614 14.8343 25.4475 15.055L24.7638 19.0207C24.389 19.543 24.1875 20.1697 24.1875 20.8125C24.1875 22.5183 25.5755 23.9063 27.2812 23.9063C28.987 23.9063 30.375 22.5183 30.375 20.8125C30.375 20.1445 30.1601 19.5269 29.7987 19.0207L29.115 15.055ZM27.2812 16.3125C27.7988 16.3127 28.2954 16.1084 28.663 15.7441L29.1074 18.3209C28.5947 17.944 27.9647 17.7188 27.2812 17.7188C26.5978 17.7188 25.9678 17.944 25.4554 18.3206L25.8997 15.7438C26.2671 16.1083 26.7637 16.3127 27.2812 16.3125ZM27.2812 12.9375C28.0567 12.9375 28.6875 13.5683 28.6875 14.3438C28.6875 15.1192 28.0567 15.75 27.2812 15.75C26.5058 15.75 25.875 15.1192 25.875 14.3438C25.875 13.5683 26.5058 12.9375 27.2812 12.9375ZM27.2812 23.3438C25.8857 23.3438 24.75 22.2083 24.75 20.8125C24.75 19.4167 25.8857 18.2813 27.2812 18.2813C28.6768 18.2813 29.8125 19.4167 29.8125 20.8125C29.8125 22.2083 28.6768 23.3438 27.2812 23.3438Z" fill="#3A322B"/>
</g>
</g>
</g>
</g>
</g>
<defs>
<linearGradient id="paint0_linear_5_2821" x1="9" y1="21.9375" x2="5.0625" y2="21.9375" gradientUnits="userSpaceOnUse">
<stop stop-color="#F1F2F2"/>
<stop offset="1" stop-color="#E6E7E8"/>
</linearGradient>
<linearGradient id="paint1_linear_5_2821" x1="0.5625" y1="21.9392" x2="5.625" y2="21.9392" gradientUnits="userSpaceOnUse">
<stop stop-color="#7C7E82"/>
<stop offset="1" stop-color="#6D6E71"/>
</linearGradient>
<linearGradient id="paint2_linear_5_2821" x1="34.5938" y1="18.1406" x2="28.9688" y2="18.1406" gradientUnits="userSpaceOnUse">
<stop stop-color="#F1F2F2"/>
<stop offset="1" stop-color="#E6E7E8"/>
</linearGradient>
<linearGradient id="paint3_linear_5_2821" x1="23.0625" y1="7.3125" x2="15.75" y2="7.3125" gradientUnits="userSpaceOnUse">
<stop stop-color="#F1F2F2"/>
<stop offset="1" stop-color="#E6E7E8"/>
</linearGradient>
<linearGradient id="paint4_linear_5_2821" x1="33.1875" y1="18" x2="35.4375" y2="18" gradientUnits="userSpaceOnUse">
<stop stop-color="#7C7E82"/>
<stop offset="1" stop-color="#6D6E71"/>
</linearGradient>
<linearGradient id="paint5_linear_5_2821" x1="19.4062" y1="4.77028" x2="19.4062" y2="9.40809" gradientUnits="userSpaceOnUse">
<stop stop-color="#E15C63"/>
<stop offset="0.406" stop-color="#DE585F"/>
<stop offset="0.826" stop-color="#D44B53"/>
<stop offset="1" stop-color="#CE444C"/>
</linearGradient>
<linearGradient id="paint6_linear_5_2821" x1="19.5469" y1="0.971437" x2="19.5469" y2="24.6682" gradientUnits="userSpaceOnUse">
<stop stop-color="#D6D8D5"/>
<stop offset="1" stop-color="#A8AEA6"/>
</linearGradient>
<linearGradient id="paint7_linear_5_2821" x1="20.5312" y1="19.125" x2="23.0625" y2="19.125" gradientUnits="userSpaceOnUse">
<stop offset="0.059" stop-color="#FF9A5B"/>
<stop offset="1" stop-color="#F47E3E"/>
</linearGradient>
<linearGradient id="paint8_linear_5_2821" x1="16.875" y1="19.125" x2="19.4062" y2="19.125" gradientUnits="userSpaceOnUse">
<stop offset="0.059" stop-color="#FF9A5B"/>
<stop offset="1" stop-color="#F47E3E"/>
</linearGradient>
<linearGradient id="paint9_linear_5_2821" x1="13.2188" y1="19.125" x2="15.75" y2="19.125" gradientUnits="userSpaceOnUse">
<stop offset="0.059" stop-color="#FF9A5B"/>
<stop offset="1" stop-color="#F47E3E"/>
</linearGradient>
<linearGradient id="paint10_linear_5_2821" x1="9.5625" y1="19.125" x2="12.0938" y2="19.125" gradientUnits="userSpaceOnUse">
<stop offset="0.059" stop-color="#FF9A5B"/>
<stop offset="1" stop-color="#F47E3E"/>
</linearGradient>
<linearGradient id="paint11_linear_5_2821" x1="16.0312" y1="12.3055" x2="16.0312" y2="26.5894" gradientUnits="userSpaceOnUse">
<stop stop-color="#E15C63"/>
<stop offset="0.406" stop-color="#DE585F"/>
<stop offset="0.826" stop-color="#D44B53"/>
<stop offset="1" stop-color="#CE444C"/>
</linearGradient>
<linearGradient id="paint12_linear_5_2821" x1="24.4688" y1="20.8125" x2="30.0938" y2="20.8125" gradientUnits="userSpaceOnUse">
<stop stop-color="#F1F2F2"/>
<stop offset="1" stop-color="#E6E7E8"/>
</linearGradient>
<linearGradient id="paint13_linear_5_2821" x1="26.1562" y1="20.8125" x2="28.4062" y2="20.8125" gradientUnits="userSpaceOnUse">
<stop offset="0.269" stop-color="#9F9F9F"/>
<stop offset="0.996" stop-color="#666666"/>
</linearGradient>
<linearGradient id="paint14_linear_5_2821" x1="25.5938" y1="14.3438" x2="28.9688" y2="14.3438" gradientUnits="userSpaceOnUse">
<stop stop-color="#F1F2F2"/>
<stop offset="1" stop-color="#E6E7E8"/>
</linearGradient>
<linearGradient id="paint15_linear_5_2821" x1="26.7188" y1="14.3438" x2="27.8438" y2="14.3438" gradientUnits="userSpaceOnUse">
<stop offset="0.269" stop-color="#9F9F9F"/>
<stop offset="0.996" stop-color="#666666"/>
</linearGradient>
<linearGradient id="paint16_linear_5_2821" x1="12.9375" y1="10.9688" x2="16.3125" y2="10.9688" gradientUnits="userSpaceOnUse">
<stop stop-color="#58595B"/>
<stop offset="1" stop-color="#414042"/>
</linearGradient>
<linearGradient id="paint17_linear_5_2821" x1="22.7812" y1="10.9688" x2="26.1562" y2="10.9688" gradientUnits="userSpaceOnUse">
<stop stop-color="#58595B"/>
<stop offset="1" stop-color="#414042"/>
</linearGradient>
<linearGradient id="paint18_linear_5_2821" x1="15.8979" y1="29.8477" x2="15.8979" y2="28.4777" gradientUnits="userSpaceOnUse">
<stop stop-color="#7C7E82"/>
<stop offset="1" stop-color="#6D6E71"/>
</linearGradient>
</defs>
</svg>
