<svg width="130" height="130" viewBox="0 0 130 130" fill="none" xmlns="http://www.w3.org/2000/svg">
<path d="M65 130C47.6379 130 31.315 123.239 19.0379 110.962C6.76127 98.685 0 82.3621 0 65C0 47.6379 6.76127 31.315 19.0379 19.0379C31.315 6.76127 47.6379 0 65 0C82.3621 0 98.685 6.76127 110.962 19.0379C123.239 31.315 130 47.6379 130 65C130 82.3621 123.239 98.685 110.962 110.962C98.685 123.239 82.3621 130 65 130Z" fill="#08006A"/>
<path d="M110.962 19.0379C98.685 6.76127 82.3621 0 65 0V130C82.3621 130 98.685 123.239 110.962 110.962C123.239 98.685 130 82.3621 130 65C130 47.6379 123.239 31.315 110.962 19.0379Z" fill="#06023A"/>
<path d="M65 46.9727C57.2998 46.9727 51.0352 40.708 51.0352 33.0078C51.0352 25.3076 57.2998 19.043 65 19.043C72.7002 19.043 78.9648 25.3076 78.9648 33.0078C78.9648 40.708 72.7002 46.9727 65 46.9727ZM76.4258 100.293V54.5898H48.4961V62.207H56.1133V100.293H48.4961V107.91H84.043V100.293H76.4258Z" fill="white"/>
<path d="M65 46.9727C72.7002 46.9727 78.9648 40.708 78.9648 33.0078C78.9648 25.3076 72.7002 19.043 65 19.043V46.9727ZM76.4258 100.293V54.5898H65V107.91H84.043V100.293H76.4258Z" fill="#CCEFFF"/>
</svg>
