<svg width="130" height="130" viewBox="0 0 130 130" fill="none" xmlns="http://www.w3.org/2000/svg">
<path d="M65 130C100.899 130 130 100.899 130 65C130 29.1015 100.899 0 65 0C29.1015 0 0 29.1015 0 65C0 100.899 29.1015 130 65 130Z" fill="#08006A"/>
<path d="M128.406 79.3553L78.7968 29.7463L54.5132 32.749V52.9526L36.7578 100.253L66.4854 129.981C96.7906 129.301 121.975 107.881 128.406 79.3553Z" fill="#06023A"/>
<path d="M56.6476 48.3462H51.2031V29.7463H65.0006L67.0695 32.4687L65.0006 35.1909H56.6476V48.3462Z" fill="#4656DD"/>
<path d="M78.797 48.3462H73.3525V35.1909H65V29.7463H78.797V48.3462Z" fill="#303FC3"/>
<path d="M65 100.254H36.758L40.8649 44.5908H65L76.5266 72.4626L65 100.254Z" fill="#FFE26F"/>
<path d="M93.242 100.254H65V44.5908H89.1351L93.242 100.254Z" fill="#FFD428"/>
<path d="M74.9266 70.8034L64.9997 86.2894C56.4471 86.2894 49.5137 79.3562 49.5137 70.8034C49.5137 62.2505 56.4471 55.3174 64.9997 55.3174L74.9266 70.8034Z" fill="#00D08B"/>
<path d="M80.486 70.8033C80.486 79.3559 73.5526 86.2893 65 86.2893V55.3173C73.5526 55.3173 80.486 62.2507 80.486 70.8033Z" fill="#00B479"/>
<path d="M65 71.1788L62.8857 73.8476L57.8079 68.3066L54.5137 71.3256L63.1325 80.731L65 78.374L66.9343 73.1806L65 71.1788Z" fill="white"/>
<path d="M65 78.374L75.7689 64.7816L72.2668 62.007L65 71.1788V78.374Z" fill="#E9E9EC"/>
</svg>
