<svg width="130" height="130" viewBox="0 0 130 130" fill="none" xmlns="http://www.w3.org/2000/svg">
<path d="M65 130C100.899 130 130 100.899 130 65C130 29.1015 100.899 0 65 0C29.1015 0 0 29.1015 0 65C0 100.899 29.1015 130 65 130Z" fill="#08006A"/>
<path d="M129.178 75.3379L96.5552 42.7153L33.0469 107.604L54.4176 129.138C57.9158 129.711 61.4548 130 64.9997 130C97.3794 130 124.225 106.323 129.178 75.3379Z" fill="#06023A"/>
<path d="M76.2603 22.3962H33.0469V107.604H96.9526V43.0881L76.2603 22.3962Z" fill="white"/>
<path d="M76.2605 43.0882H96.9529L76.2605 22.3963V43.0882Z" fill="#D0D5D9"/>
<path d="M38.2511 43.6979H45.3516V50.7985H38.2511V43.6979Z" fill="#FFCD02"/>
<path d="M52.8428 47.7861H86.3018V50.7985H52.8428V47.7861ZM52.8428 76.1887H86.3018V79.201H52.8428V76.1887ZM52.8428 90.3902H86.3018V93.4026H52.8428V90.3902ZM52.8428 61.9876H86.3018V65H52.8428V61.9876Z" fill="#F4AF30"/>
<path d="M38.2511 57.8995H45.3516V65H38.2511V57.8995ZM38.2511 72.1005H45.3516V79.2011H38.2511V72.1005ZM38.2511 86.3021H45.3516V93.4026H38.2511V86.3021Z" fill="#FFCD02"/>
</svg>
