<svg width="130" height="130" viewBox="0 0 130 130" fill="none" xmlns="http://www.w3.org/2000/svg">
<g clip-path="url(#clip0_5_2990)">
<path fill-rule="evenodd" clip-rule="evenodd" d="M61.8793 128.755C61.8799 128.756 61.8805 128.757 65 125.465L61.8805 128.757C63.6298 130.414 66.3699 130.414 68.1192 128.757L65 125.465C68.1195 128.757 68.1207 128.756 68.1213 128.755L68.1236 128.753L68.1322 128.745L68.1623 128.716L68.2736 128.61L68.6943 128.206C69.2205 127.697 69.7439 127.185 70.2647 126.67C72.1429 124.814 73.9972 122.933 75.827 121.028C80.418 116.255 86.5522 109.595 92.6979 102.074C98.8304 94.5686 105.053 86.109 109.766 77.7393C114.41 69.4912 117.907 60.7784 117.907 52.907C117.907 23.6874 94.2199 0 65 0C35.7804 0 12.093 23.6874 12.093 52.907C12.093 60.7784 15.5907 69.4915 20.2346 77.7393C24.9469 86.1088 31.1702 94.5686 37.3024 102.074C43.4484 109.595 49.5823 116.255 54.1736 121.028C56.0032 122.933 57.8574 124.814 59.7359 126.67C60.2566 127.185 60.7801 127.697 61.3063 128.206L61.7264 128.61L61.8383 128.716L61.8684 128.745L61.877 128.753L61.8793 128.755Z" fill="#0D00A6"/>
<path fill-rule="evenodd" clip-rule="evenodd" d="M65 125.465V130C63.8392 130.001 62.7223 129.556 61.8805 128.757L65 125.465ZM65 125.465V0C35.7804 0 12.093 23.6874 12.093 52.907C12.093 60.7784 15.5907 69.4915 20.2346 77.7393C24.9469 86.1088 31.1702 94.5686 37.3024 102.074C43.4484 109.595 49.5823 116.255 54.1736 121.028C56.0032 122.933 57.8574 124.814 59.7359 126.67C60.2566 127.185 60.7801 127.697 61.3063 128.206L61.7264 128.61L61.8383 128.716L61.8684 128.745L61.877 128.753L61.8793 128.755C61.8799 128.756 61.8805 128.757 65 125.465Z" fill="#08006A"/>
<path fill-rule="evenodd" clip-rule="evenodd" d="M87.6744 40.814C87.6744 28.2911 77.5229 18.1395 65 18.1395C52.4777 18.1395 42.3259 28.2911 42.3259 40.814C42.3259 53.3368 52.4777 63.4884 65 63.4884C77.5229 63.4884 87.6744 53.3368 87.6744 40.814ZM44.3255 96.335C39.411 90.3207 34.5584 83.8192 30.5641 77.3853C52.3723 66.1502 78.1225 65.7136 100.237 76.0756C96.1 82.9349 90.9224 89.9118 85.6739 96.335C79.7272 103.613 73.7677 110.085 69.289 114.741C67.8737 116.214 66.4438 117.672 64.9994 119.116C63.8282 117.946 62.3727 116.47 60.7099 114.741C56.2311 110.085 50.272 103.613 44.325 96.335H44.3255Z" fill="#FAFAFA"/>
<path fill-rule="evenodd" clip-rule="evenodd" d="M65 68.6371V119.116C63.8288 117.946 62.3735 116.47 60.7105 114.741C56.2317 110.085 50.2726 103.613 44.3255 96.335C39.411 90.3207 34.5584 83.8192 30.5641 77.3853C41.2287 71.89 53.0057 68.8981 65 68.6371ZM65 18.1395C52.4777 18.1395 42.3259 28.2911 42.3259 40.814C42.3259 53.3368 52.4777 63.4884 65 63.4884V18.1395Z" fill="#E5E6E8"/>
</g>
<defs>
<clipPath id="clip0_5_2990">
<rect width="130" height="130" fill="white"/>
</clipPath>
</defs>
</svg>
