<svg width="130" height="130" viewBox="0 0 130 130" fill="none" xmlns="http://www.w3.org/2000/svg">
<path d="M65 130C100.899 130 130 100.899 130 65C130 29.1015 100.899 0 65 0C29.1015 0 0 29.1015 0 65C0 100.899 29.1015 130 65 130Z" fill="#08006A"/>
<path d="M130 65C130 58.6026 129.076 52.4212 127.354 46.5819L106.283 25.5115L85.1034 33.1287L90.7838 38.8091L70.6688 56.0666L21.4277 67.8681L34.3729 80.8133L22.0706 98.6878L52.1032 128.72C56.3491 129.574 60.6695 130.002 65.0003 130C100.899 130 130 100.899 130 65Z" fill="#06023A"/>
<path d="M44.5158 57.6207C31.2607 60.5625 21.8098 60.2603 21.7161 60.2565L21.4276 67.8684C21.5079 67.8714 21.9433 67.8867 22.6957 67.8867C25.8347 67.8867 34.4916 67.6223 45.9047 65.1148C52.6965 63.6193 59.3519 61.5609 65.8021 58.9608V50.7018C57.8774 54.1498 50.4938 56.2938 44.5158 57.6207Z" fill="#E2E2E2"/>
<path d="M85.1036 25.5115V33.1287H93.7151C80.7374 43.3814 72.5363 47.8479 64.8779 51.1001V59.3277C73.9307 55.7603 83.8478 50.6187 98.6663 38.9195V46.6913H106.283V25.5115H85.1036Z" fill="white"/>
<path d="M22.0703 77.1123H36.9599V98.6878H22.0703V77.1123ZM44.1566 71.8885H59.0461V98.688H44.1566V71.8885ZM65.4984 63.0652H80.388V98.688H65.4984V63.0652ZM86.3441 51.1514H101.234V98.6878H86.3441V51.1514Z" fill="#FE6A16"/>
<path d="M29.1846 77.1123H36.9602V98.6877H29.1846V77.1123ZM52.0156 71.8884H59.0467V98.6879H52.0156V71.8884ZM73.1919 63.0652H80.3886V98.6879H73.1919V63.0652ZM94.0373 51.1514H101.234V98.6877H94.0373V51.1514Z" fill="#F24500"/>
</svg>
