<svg width="130" height="130" viewBox="0 0 130 130" fill="none" xmlns="http://www.w3.org/2000/svg">
<path d="M121.875 101.562H77.1875V40.625H112.411L125.938 68.5973V97.5C125.938 98.5774 125.509 99.6108 124.748 100.373C123.986 101.134 122.952 101.562 121.875 101.562Z" fill="#08006A"/>
<path d="M125.938 73.125H91.4062V40.625H112.761L125.938 68.6075V73.125Z" fill="#052D3F"/>
<path d="M81.25 101.562H8.125C7.04756 101.562 6.01425 101.134 5.25238 100.373C4.49051 99.6108 4.0625 98.5774 4.0625 97.5V34.5312C4.0625 33.4538 4.49051 32.4205 5.25238 31.6586C6.01425 30.8968 7.04756 30.4687 8.125 30.4688H77.1875C78.2649 30.4688 79.2983 30.8968 80.0601 31.6586C80.822 32.4205 81.25 33.4538 81.25 34.5312V101.562Z" fill="#F79F19"/>
<path d="M30.4688 85.3125C26.1605 85.3173 22.03 87.0309 18.9836 90.0774C15.9372 93.1238 14.2236 97.2542 14.2188 101.562H46.7188C46.7139 97.2542 45.0003 93.1238 41.9539 90.0774C38.9075 87.0309 34.777 85.3173 30.4688 85.3125Z" fill="#DD830B"/>
<path d="M103.594 85.3125C99.2855 85.3173 95.155 87.0309 92.1086 90.0774C89.0622 93.1238 87.3486 97.2542 87.3438 101.562H119.844C119.839 97.2542 118.125 93.1238 115.079 90.0774C112.032 87.0309 107.902 85.3173 103.594 85.3125Z" fill="#07014A"/>
<path d="M30.4688 113.75C28.0583 113.75 25.702 113.035 23.6977 111.696C21.6935 110.357 20.1314 108.453 19.209 106.226C18.2865 103.999 18.0452 101.549 18.5154 99.1848C18.9857 96.8207 20.1464 94.6491 21.8509 92.9446C23.5553 91.2402 25.7269 90.0794 28.0911 89.6092C30.4552 89.1389 32.9057 89.3803 35.1327 90.3027C37.3597 91.2252 39.2631 92.7873 40.6023 94.7915C41.9415 96.7957 42.6563 99.152 42.6563 101.562C42.6525 104.794 41.3672 107.891 39.0825 110.176C36.7977 112.461 33.6999 113.746 30.4688 113.75Z" fill="black"/>
<path d="M30.4688 105.625C32.7124 105.625 34.5312 103.806 34.5312 101.562C34.5312 99.3188 32.7124 97.5 30.4688 97.5C28.2251 97.5 26.4062 99.3188 26.4062 101.562C26.4062 103.806 28.2251 105.625 30.4688 105.625Z" fill="white"/>
<path d="M103.594 113.75C101.183 113.75 98.827 113.035 96.8227 111.696C94.8185 110.357 93.2564 108.453 92.334 106.226C91.4115 103.999 91.1702 101.549 91.6404 99.1848C92.1107 96.8207 93.2714 94.6491 94.9759 92.9446C96.6803 91.2402 98.8519 90.0794 101.216 89.6092C103.58 89.1389 106.031 89.3803 108.258 90.3027C110.485 91.2252 112.388 92.7873 113.727 94.7915C115.066 96.7957 115.781 99.152 115.781 101.562C115.777 104.794 114.492 107.891 112.207 110.176C109.923 112.461 106.825 113.746 103.594 113.75Z" fill="black"/>
<path d="M40.625 42.6562C36.8553 42.6606 33.2412 44.16 30.5756 46.8256C27.91 49.4912 26.4106 53.1053 26.4062 56.875C26.4062 64.0961 37.7325 78.8125 39.0244 80.468L40.625 82.5195L42.2256 80.468C43.5175 78.8125 54.8438 64.0961 54.8438 56.875C54.8394 53.1053 53.34 49.4912 50.6744 46.8256C48.0088 44.16 44.3947 42.6606 40.625 42.6562ZM40.625 62.9688C39.4198 62.9688 38.2416 62.6114 37.2395 61.9418C36.2374 61.2722 35.4563 60.3205 34.9951 59.207C34.5339 58.0935 34.4132 56.8682 34.6483 55.6862C34.8835 54.5041 35.4638 53.4183 36.3161 52.5661C37.1683 51.7138 38.2541 51.1335 39.4362 50.8983C40.6182 50.6632 41.8435 50.7839 42.957 51.2451C44.0705 51.7063 45.0222 52.4874 45.6918 53.4895C46.3614 54.4916 46.7188 55.6698 46.7188 56.875C46.7188 58.4912 46.0767 60.0411 44.9339 61.1839C43.7911 62.3267 42.2412 62.9688 40.625 62.9688Z" fill="#DD830B"/>
<path d="M42.6562 40.625C38.8865 40.6293 35.2724 42.1287 32.6068 44.7943C29.9412 47.4599 28.4418 51.074 28.4375 54.8438C28.4375 62.0648 39.7638 76.7813 41.0556 78.4367L42.6562 80.4883L44.2569 78.4367C45.5487 76.7813 56.875 62.0648 56.875 54.8438C56.8707 51.074 55.3713 47.4599 52.7057 44.7943C50.0401 42.1287 46.426 40.6293 42.6562 40.625ZM42.6562 60.9375C41.451 60.9375 40.2729 60.5801 39.2707 59.9105C38.2686 59.2409 37.4876 58.2892 37.0264 57.1757C36.5651 56.0622 36.4445 54.837 36.6796 53.6549C36.9147 52.4728 37.4951 51.387 38.3473 50.5348C39.1995 49.6826 40.2853 49.1022 41.4674 48.8671C42.6495 48.632 43.8747 48.7526 44.9882 49.2139C46.1017 49.6751 47.0534 50.4561 47.723 51.4582C48.3926 52.4604 48.75 53.6385 48.75 54.8438C48.75 56.4599 48.108 58.0099 46.9652 59.1527C45.8224 60.2955 44.2724 60.9375 42.6562 60.9375Z" fill="#08006A"/>
<path d="M112.761 40.625H108.353L91.4062 57.5717V69.0625L115.028 45.4411L112.761 40.625ZM116.868 49.3472L93.0881 73.125H98.8345L118.706 53.2533L116.868 49.3472Z" fill="white"/>
<path d="M103.594 105.625C105.837 105.625 107.656 103.806 107.656 101.562C107.656 99.3188 105.837 97.5 103.594 97.5C101.35 97.5 99.5312 99.3188 99.5312 101.562C99.5312 103.806 101.35 105.625 103.594 105.625Z" fill="white"/>
</svg>
