<svg width="130" height="130" viewBox="0 0 130 130" fill="none" xmlns="http://www.w3.org/2000/svg">
<path d="M104.994 116.618L91.9941 112.163C91.3633 111.934 90.6559 112.24 90.35 112.851L84.3089 125.182C83.7927 126.215 82.3015 126.176 81.8618 125.106L67.6383 90.8088L59.8192 71.9206L84.653 61.6353L92.453 80.4662L106.677 114.821C107.135 115.891 106.103 116.981 104.994 116.618Z" fill="#08006A"/>
<path d="M92.453 80.4662C91.6692 80.6765 90.8662 80.7721 90.0441 80.7721C89.3177 80.7721 88.6486 81.0971 88.1706 81.6515C88.075 81.7662 87.9412 81.9573 87.8074 82.3015C87.0481 84.1286 85.7634 85.6891 84.1161 86.785C82.4687 87.881 80.533 88.463 78.5544 88.4573C77.2353 88.4573 75.9162 88.1897 74.6927 87.6926C74.4059 87.5588 74.1 87.5015 73.7941 87.5015C73.1633 87.5015 72.5706 87.75 72.1118 88.1897C70.85 89.4706 69.3015 90.3691 67.6383 90.8088L59.8192 71.9206L84.653 61.6353L92.453 80.4662Z" fill="#060050"/>
<path d="M70.1809 71.9206L62.3618 90.8088L48.1383 125.106C47.6985 126.176 46.2074 126.215 45.6912 125.182L39.65 112.851C39.5074 112.556 39.2614 112.322 38.9585 112.196C38.6556 112.069 38.3167 112.057 38.0059 112.163L25.0059 116.618C23.8971 116.981 22.8647 115.891 23.3236 114.821L37.5471 80.4662L45.3471 61.6353L70.1809 71.9206Z" fill="#08006A"/>
<path d="M70.1809 71.9206L62.3618 90.8088C60.6986 90.3691 59.1691 89.4897 57.9265 88.2279C57.4294 87.75 56.8368 87.5015 56.2059 87.5015C55.9 87.5015 55.5941 87.5588 55.2883 87.6926C54.0839 88.1897 52.7647 88.4573 51.4456 88.4573C49.1113 88.4614 46.8504 87.6423 45.0603 86.1441C43.777 85.1078 42.7827 83.7579 42.1736 82.225C41.8103 81.3647 40.9309 80.7721 39.9559 80.7721C39.1339 80.7721 38.3118 80.6765 37.5471 80.4662L45.3471 61.6353L70.1809 71.9206Z" fill="#060050"/>
<path d="M104.822 50.0882L104.803 50.1073C103.025 51.8853 102.509 54.5426 103.465 56.8559V56.875C104.593 59.6088 103.656 62.6676 101.343 64.2926C100.96 64.5603 100.559 64.7897 100.1 64.9809L100.081 65C97.7677 65.9559 96.2574 68.2309 96.2574 70.7353V70.7735C96.2574 72.6853 95.3971 74.3868 94.0398 75.5147C92.9501 76.4132 91.5545 76.9485 90.0442 76.9485C88.1515 76.9485 86.3927 77.8088 85.2265 79.2235C84.8442 79.6824 84.5383 80.2176 84.2898 80.7912C83.8245 81.9296 83.0303 82.9033 82.0086 83.5879C80.9869 84.2724 79.7843 84.6366 78.5545 84.6338C77.7706 84.6338 76.9486 84.4809 76.1648 84.1559C75.4001 83.8309 74.5971 83.6779 73.7942 83.6779C72.1883 83.6779 70.6015 84.3088 69.4162 85.4941L69.378 85.5324C68.2151 86.69 66.6409 87.3399 65.0001 87.3399C63.3592 87.3399 61.7851 86.69 60.6221 85.5324L60.5839 85.4941C58.8059 83.7162 56.1486 83.2 53.8353 84.1559C53.0515 84.4809 52.2295 84.6338 51.4456 84.6338C50.0118 84.6338 48.6162 84.1368 47.5265 83.2191C46.7618 82.6073 46.1118 81.7853 45.7103 80.7912C45.2388 79.6533 44.4403 78.6809 43.4161 77.9969C42.3918 77.3129 41.1876 76.9481 39.9559 76.9485H39.9368C38.294 76.9485 36.7185 76.2959 35.5569 75.1343C34.3953 73.9727 33.7427 72.3972 33.7427 70.7544V70.7353C33.7427 68.2309 32.2324 65.9559 29.9001 65L29.8809 64.9809C29.1286 64.6714 28.4447 64.2166 27.8683 63.6425C27.2919 63.0684 26.8343 62.3863 26.5218 61.6352C26.2093 60.8841 26.048 60.0787 26.047 59.2652C26.046 58.4517 26.2055 57.646 26.5162 56.8941L26.5353 56.8559C27.4912 54.5426 26.9751 51.8853 25.1971 50.1073L25.178 50.0882C24.6011 49.5144 24.1433 48.8322 23.831 48.0809C23.5186 47.3296 23.3578 46.524 23.3578 45.7103C23.3578 44.8966 23.5186 44.091 23.831 43.3397C24.1433 42.5883 24.6011 41.9062 25.178 41.3324L25.1971 41.3132C26.9751 39.5353 27.4912 36.8588 26.5353 34.5456L26.5162 34.5073C25.982 33.214 25.9029 31.7775 26.2919 30.4333C26.681 29.0892 27.515 27.917 28.6574 27.1088C29.0206 26.8221 29.4412 26.5926 29.8809 26.4015H29.9001C31.038 25.9301 32.0106 25.1317 32.6946 24.1074C33.3786 23.083 33.7434 21.8788 33.7427 20.6471C33.7427 18.9265 34.4309 17.3779 35.5589 16.25C36.6868 15.1412 38.2162 14.4338 39.9368 14.4338H39.9559C42.4795 14.4338 44.7353 12.9235 45.7103 10.6103V10.5912C46.3398 9.0707 47.5471 7.86227 49.067 7.23138C50.5869 6.60048 52.295 6.59871 53.8162 7.22647L53.8353 7.24558C56.1486 8.20147 58.7868 7.66617 60.5648 5.92647L60.603 5.88823H60.6221C61.1976 5.31077 61.8814 4.85259 62.6343 4.53996C63.3872 4.22734 64.1944 4.06641 65.0096 4.06641C65.8248 4.06641 66.6321 4.22734 67.385 4.53996C68.1379 4.85259 68.8217 5.31077 69.3971 5.88823H69.4162C69.8751 6.34706 70.4104 6.72941 70.9839 7.01617C72.5706 7.83823 74.4633 7.95294 76.1648 7.24558C76.9486 6.92058 77.7706 6.76764 78.5545 6.76764C80.0074 6.76764 81.403 7.2647 82.4927 8.20147L82.5118 8.22058C83.2765 8.81323 83.8883 9.61617 84.2898 10.5912V10.6103C85.2648 12.9235 87.5206 14.4338 90.0442 14.4338C91.7648 14.4338 93.3133 15.1412 94.4412 16.25C95.5692 17.3779 96.2574 18.9265 96.2574 20.6471C96.2574 21.9088 96.6206 23.0941 97.3089 24.1073C97.9589 25.1015 98.9339 25.9235 100.081 26.4015H100.119C103.293 27.7206 104.784 31.3338 103.484 34.5073L103.465 34.5456C102.509 36.8588 103.025 39.5353 104.803 41.3132L104.822 41.3324C105.399 41.9062 105.857 42.5883 106.169 43.3397C106.482 44.091 106.642 44.8966 106.642 45.7103C106.642 46.524 106.482 47.3296 106.169 48.0809C105.857 48.8322 105.399 49.5144 104.822 50.0882Z" fill="#FDC72E"/>
<path d="M93.8772 45.716C93.8772 61.6563 80.9537 74.5837 65.0096 74.5837C49.0463 74.5837 36.1228 61.6563 36.1228 45.716C36.1228 29.7528 49.0463 16.8293 65.0096 16.8293C80.9537 16.8293 93.8772 29.7528 93.8772 45.716Z" fill="#F9AC00"/>
<path d="M75.5587 49.4076C75.0043 49.9525 74.7481 50.7287 74.8819 51.4953L76.1361 58.8709C76.4706 60.7922 74.448 62.27 72.714 61.36L66.0955 57.8806C65.7571 57.7002 65.3796 57.6058 64.9962 57.6058C64.6128 57.6058 64.2353 57.7002 63.8969 57.8806L57.288 61.36C55.554 62.27 53.5218 60.7922 53.8544 58.8709L55.1219 51.4953C55.2558 50.7306 54.9996 49.9525 54.4433 49.4076L49.0903 44.1885C47.6909 42.8216 48.4575 40.4434 50.3999 40.1662L57.7984 39.0879C58.5631 38.9771 59.2322 38.4896 59.5763 37.7994L62.8837 31.091C63.0783 30.6959 63.3797 30.3631 63.7538 30.1304C64.1278 29.8977 64.5595 29.7743 65 29.7743C65.4405 29.7743 65.8722 29.8977 66.2463 30.1304C66.6203 30.3631 66.9217 30.6959 67.1163 31.091L70.4275 37.8013C70.7716 38.4896 71.4369 38.9771 72.2055 39.0879L79.6021 40.1662C81.533 40.4434 82.3111 42.8216 80.9136 44.1866L75.5587 49.4076Z" fill="#FDC72E"/>
<g opacity="0.3">
<path d="M85.2265 79.2235C84.8442 79.6824 84.5383 80.2177 84.2897 80.7912C83.8245 81.9296 83.0303 82.9034 82.0086 83.5879C80.9869 84.2724 79.7842 84.6366 78.5544 84.6338C77.7706 84.6338 76.9486 84.4809 76.1647 84.1559C75.4 83.8309 74.5971 83.6779 73.7941 83.6779C72.1883 83.6779 70.6015 84.3088 69.4162 85.4941L69.378 85.5324C68.215 86.69 66.6409 87.3399 65 87.3399C63.3591 87.3399 61.785 86.69 60.6221 85.5324L60.5839 85.4941C58.8059 83.7162 56.1486 83.2 53.8353 84.1559C53.0515 84.4809 52.2294 84.6338 51.4456 84.6338C50.0118 84.6338 48.6162 84.1368 47.5265 83.2191L28.6574 27.1088C29.0206 26.8221 29.4412 26.5926 29.8809 26.4015H29.9C31.038 25.9301 32.0106 25.1317 32.6946 24.1074C33.3786 23.083 33.7434 21.8788 33.7427 20.6471C33.7427 18.9265 34.4309 17.3779 35.5589 16.25C36.6868 15.1412 38.2162 14.4338 39.9368 14.4338H39.9559C42.4794 14.4338 44.7353 12.9235 45.7103 10.6103V10.5912C46.3398 9.0707 47.5471 7.86227 49.067 7.23138C50.5868 6.60048 52.295 6.59872 53.8162 7.22647L53.8353 7.24559C56.1486 8.20147 58.7868 7.66617 60.5647 5.92647L85.2265 79.2235ZM101.343 64.2927C100.96 64.5603 100.559 64.7897 100.1 64.9809L100.081 65C97.7677 65.9559 96.2574 68.2309 96.2574 70.7353V70.7735C96.2574 72.6853 95.3971 74.3868 94.0397 75.5147L70.9839 7.01617C72.5706 7.83823 74.4633 7.95294 76.1647 7.24559C76.9486 6.92059 77.7706 6.76764 78.5544 6.76764C80.0074 6.76764 81.403 7.2647 82.4927 8.20147L82.5118 8.22059L101.343 64.2927Z" fill="white"/>
</g>
<path opacity="0.3" d="M97.0412 102.394C96.1809 102.719 94.2309 100.138 92.6632 96.6206C91.1147 93.1029 90.5221 89.9868 91.3824 89.6618C92.2235 89.3368 94.1735 91.9368 95.7412 95.4353C97.3088 98.9529 97.8824 102.069 97.0412 102.394Z" fill="white"/>
</svg>
