<svg width="130" height="130" viewBox="0 0 130 130" fill="none" xmlns="http://www.w3.org/2000/svg">
<path d="M33.2194 67.515C35.0066 69.3049 37.1293 70.7246 39.4661 71.6927C41.8029 72.6608 44.3078 73.1584 46.8371 73.1568H83.1687C85.6981 73.1583 88.2029 72.6608 90.5397 71.6926C92.8765 70.7245 94.9993 69.3048 96.7865 67.515L107.965 56.3486C110.258 54.0527 113.099 52.3795 116.219 51.4868C115.356 51.0047 114.601 50.3495 114.003 49.5623C113.778 49.2544 113.583 48.9465 113.386 48.6092L112.307 46.6055L100.967 25.6491C100.057 23.9732 98.7129 22.5734 97.0751 21.5968C95.4373 20.6201 93.5666 20.1028 91.6598 20.0992H38.3119C34.4432 20.0992 30.855 22.2437 29.0047 25.6501L17.679 46.6045L16.5862 48.6092C16.4171 48.9455 16.2217 49.2544 15.9968 49.5623C15.3903 50.3416 14.638 50.9955 13.782 51.4878C16.9056 52.3747 19.7494 54.0484 22.0413 56.3486L33.2194 67.515Z" fill="#0A007B"/>
<path d="M17.0486 43.6272V48.4558L5.48933 47.6445C4.67651 47.586 3.916 47.2219 3.36082 46.6253C2.80565 46.0288 2.49701 45.2441 2.49701 44.4292C2.49701 43.6143 2.80565 42.8296 3.36082 42.2331C3.916 41.6365 4.67651 41.2724 5.48933 41.2139L13.8308 40.6274C14.2425 40.5985 14.6557 40.6545 15.0447 40.7922C15.4338 40.9298 15.7903 41.146 16.0922 41.4274C16.394 41.7088 16.6347 42.0494 16.7992 42.4278C16.9638 42.8063 17.0487 43.2145 17.0486 43.6272ZM112.951 43.6272V48.4558L124.511 47.6445C125.324 47.586 126.084 47.2219 126.639 46.6253C127.194 46.0288 127.503 45.2441 127.503 44.4292C127.503 43.6143 127.194 42.8296 126.639 42.2331C126.084 41.6365 125.324 41.2724 124.511 41.2139L116.169 40.6274C115.758 40.5985 115.344 40.6545 114.955 40.7922C114.566 40.9298 114.21 41.146 113.908 41.4274C113.606 41.7088 113.365 42.0494 113.201 42.4278C113.036 42.8063 112.951 43.2145 112.951 43.6272Z" fill="#0A007B"/>
<path d="M107.103 45.6886L97.2449 27.4779C96.7015 26.4732 95.8966 25.6341 94.9152 25.0496C93.9339 24.465 92.8128 24.1568 91.6705 24.1575H38.3158C37.1732 24.1567 36.0516 24.4651 35.0701 25.05C34.0885 25.6349 33.2835 26.4745 32.7404 27.4798L22.8878 45.6886H107.103Z" fill="#E8E8EA"/>
<path d="M117.186 51.9736C116.918 51.8612 116.652 51.7488 116.4 51.609C116.334 51.5748 116.283 51.523 116.219 51.4868C113.099 52.3795 110.258 54.0528 107.965 56.3486L96.7865 67.515C94.9993 69.3049 92.8765 70.7245 90.5397 71.6926C88.2029 72.6608 85.6981 73.1583 83.1687 73.1568H46.8371C44.3078 73.1584 41.8029 72.6608 39.4661 71.6927C37.1293 70.7246 35.0066 69.3049 33.2194 67.515L22.0413 56.3496C19.7495 54.0494 16.9056 52.3757 13.782 51.4888C13.4629 51.6747 13.1306 51.8371 12.7879 51.9746C10.0124 53.0572 7.62902 54.9535 5.95045 57.4147C4.27188 59.876 3.37656 62.7872 3.38195 65.7663V87.4089C3.38195 90.9277 4.78361 94.0809 7.06887 96.3935C9.45576 98.7679 12.6868 100.099 16.0535 100.094H30.8667C31.7972 100.094 32.6495 99.5722 33.0718 98.7433L33.0816 98.7257C33.2886 98.319 33.604 97.9774 33.993 97.7387C34.3819 97.4999 34.8293 97.3734 35.2857 97.3729H94.7055C95.6399 97.3729 96.4942 97.8988 96.9155 98.7326C97.122 99.1415 97.438 99.485 97.8281 99.7251C98.2183 99.9651 98.6674 100.092 99.1255 100.092H113.945C120.954 100.092 126.617 94.4299 126.617 87.4069V65.7663C126.617 59.4716 122.708 54.1181 117.186 51.9736Z" fill="#08006A"/>
<path d="M23.8633 68.5423C23.8633 73.0952 20.1656 76.7929 15.601 76.7929C11.048 76.7929 7.35135 73.0952 7.35135 68.5423C7.35135 63.9776 11.048 60.2809 15.601 60.2809C16.686 60.2805 17.7605 60.4939 18.7631 60.909C19.7656 61.324 20.6765 61.9325 21.4438 62.6997C22.2111 63.4669 22.8197 64.3777 23.2349 65.3802C23.65 66.3827 23.8636 67.4572 23.8633 68.5423Z" fill="#FFC863"/>
<path d="M15.602 72.0415C14.6727 72.0405 13.782 71.6703 13.1257 71.0125C12.4693 70.3548 12.1012 69.4632 12.1022 68.5339C12.1033 67.6047 12.4734 66.714 13.1312 66.0576C13.789 65.4013 14.6806 65.0332 15.6098 65.0342C16.539 65.0352 17.4298 65.4054 18.0861 66.0632C18.7424 66.721 19.1106 67.6125 19.1095 68.5418C19.1085 69.471 18.7383 70.3617 18.0806 71.0181C17.4228 71.6744 16.5312 72.0425 15.602 72.0415Z" fill="#FFB749"/>
<path d="M122.645 68.5423C122.645 73.0952 118.947 76.7929 114.382 76.7929C109.829 76.7929 106.133 73.0952 106.133 68.5423C106.133 63.9776 109.829 60.2809 114.382 60.2809C115.467 60.2805 116.542 60.4939 117.544 60.909C118.547 61.324 119.458 61.9325 120.225 62.6997C120.993 63.4669 121.601 64.3777 122.016 65.3802C122.431 66.3827 122.645 67.4572 122.645 68.5423Z" fill="#FFC863"/>
<path d="M114.383 72.0415C113.454 72.0405 112.563 71.6703 111.907 71.0125C111.251 70.3548 110.883 69.4632 110.884 68.5339C110.885 67.6047 111.255 66.714 111.913 66.0576C112.57 65.4013 113.462 65.0332 114.391 65.0342C115.32 65.0352 116.211 65.4054 116.868 66.0632C117.524 66.721 117.892 67.6125 117.891 68.5418C117.89 69.471 117.52 70.3617 116.862 71.0181C116.204 71.6744 115.313 72.0425 114.383 72.0415Z" fill="#FFB749"/>
<path d="M117.747 84.0699L117.732 84.0983C115.827 86.8504 113.283 89.0993 110.317 90.652C107.352 92.2046 104.054 93.0146 100.707 93.0125H29.2031C25.8624 93.0148 22.5717 92.2014 19.6168 90.6429C16.6619 89.0845 14.1322 86.8282 12.2474 84.0699C12.2059 84.008 12.1819 83.9361 12.178 83.8617C12.178 83.6809 12.3305 83.5001 12.5396 83.5001H48.8947V85.4032C48.8947 86.4862 49.7558 87.3336 50.8105 87.3336H79.1827C79.4363 87.3341 79.6875 87.2845 79.9219 87.1877C80.1563 87.0908 80.3693 86.9487 80.5486 86.7693C80.7278 86.5899 80.8699 86.3769 80.9667 86.1424C81.0634 85.908 81.1128 85.6568 81.1122 85.4032V83.501H117.455C117.52 83.5018 117.585 83.5205 117.641 83.5551C117.697 83.5897 117.742 83.6389 117.772 83.6974C117.802 83.7559 117.816 83.8215 117.811 83.8872C117.807 83.9528 117.784 84.016 117.747 84.0699Z" fill="#E8E8EA"/>
<path d="M81.1102 79.4955V85.409C81.1102 86.4881 80.2442 87.3346 79.1847 87.3346H50.8144C50.5613 87.3354 50.3105 87.2861 50.0766 87.1896C49.8426 87.0931 49.63 86.9513 49.4511 86.7723C49.2721 86.5934 49.1303 86.3808 49.0338 86.1468C48.9373 85.9128 48.888 85.6621 48.8888 85.409V79.4955C48.8888 78.4369 49.7548 77.5699 50.8144 77.5699H79.1847C80.2442 77.5699 81.1102 78.4369 81.1102 79.4955Z" fill="#FFC863"/>
<path d="M21.9632 99.9172V106.732C21.9637 107.148 21.882 107.561 21.7229 107.945C21.5638 108.33 21.3303 108.68 21.0358 108.974C20.7414 109.269 20.3917 109.502 20.0069 109.661C19.6221 109.82 19.2097 109.901 18.7933 109.901H6.53812C6.12175 109.901 5.70935 109.82 5.32454 109.661C4.93973 109.502 4.59008 109.269 4.29561 108.974C4.00115 108.68 3.76766 108.33 3.60853 107.945C3.4494 107.561 3.36776 107.148 3.36827 106.732V87.2398C3.36827 90.7361 4.78361 93.9059 7.07669 96.2088C8.25357 97.3874 9.65181 98.3218 11.191 98.9583C12.7303 99.5947 14.3801 99.9206 16.0457 99.9172H21.9632ZM126.628 87.2398V106.732C126.628 107.148 126.547 107.561 126.388 107.945C126.228 108.33 125.995 108.68 125.7 108.974C125.406 109.269 125.056 109.502 124.672 109.661C124.287 109.82 123.874 109.901 123.458 109.901H111.203C110.786 109.901 110.374 109.82 109.989 109.661C109.604 109.502 109.255 109.269 108.96 108.974C108.666 108.68 108.432 108.33 108.273 107.945C108.114 107.561 108.032 107.148 108.033 106.732V99.9172H113.949C120.954 99.9172 126.627 94.2441 126.627 87.2398H126.628Z" fill="#606076"/>
</svg>
